<svg xmlns="http://www.w3.org/2000/svg" height="240" width="320"><g class="x axis"><text dy=".71em" y="6" transform="translate(30 222)">postMessage</text><text dy=".71em" y="6" transform="translate(111.667 222)">BC channel</text><text dy=".71em" y="6" transform="translate(193.333 222)">threads</text><g class="tick"><path d="M43 210v6"/><text y="9" dy=".71em" text-anchor="middle" transform="translate(43 210)">x 0</text></g><g class="tick"><path d="M63 210v6"/><text y="9" dy=".71em" text-anchor="middle" transform="translate(63 210)">M 0</text></g><g class="tick"><path d="M83 210v6"/><text y="9" dy=".71em" text-anchor="middle" transform="translate(83 210)">90% 0</text></g><g class="tick"><path d="M103 210v6"/><text y="9" dy=".71em" text-anchor="middle" transform="translate(103 210)">95% 0</text></g><g class="tick"><path d="M123 210v6"/><text y="9" dy=".71em" text-anchor="middle" transform="translate(123 210)">x 1</text></g><g class="tick"><path d="M143 210v6"/><text y="9" dy=".71em" text-anchor="middle" transform="translate(143 210)">M 1</text></g><g class="tick"><path d="M163 210v6"/><text y="9" dy=".71em" text-anchor="middle" transform="translate(163 210)">90% 1</text></g><g class="tick"><path d="M183 210v6"/><text y="9" dy=".71em" text-anchor="middle" transform="translate(183 210)">95% 1</text></g><g class="tick"><path d="M203 210v6"/><text y="9" dy=".71em" text-anchor="middle" transform="translate(203 210)">x 2</text></g><g class="tick"><path d="M223 210v6"/><text y="9" dy=".71em" text-anchor="middle" transform="translate(223 210)">M 2</text></g><g class="tick"><path d="M243 210v6"/><text y="9" dy=".71em" text-anchor="middle" transform="translate(243 210)">90% 2</text></g><g class="tick"><path d="M263 210v6"/><text y="9" dy=".71em" text-anchor="middle" transform="translate(263 210)">95% 2</text></g><path d="M30 216v-6h245v6" class="domain"/></g><g class="y axis"><text dy=".71em" y="6" transform="translate(30 5) rotate(-90)" text-anchor="end">Latency in ms</text><g class="tick"><path d="M30 210h-6"/><text x="-9" dy=".32em" text-anchor="end" transform="translate(30 210)">0</text></g><g class="tick"><path d="M30 192.514h-6"/><text x="-9" dy=".32em" text-anchor="end" transform="translate(30 192.514)">2</text></g><g class="tick"><path d="M30 175.028h-6"/><text x="-9" dy=".32em" text-anchor="end" transform="translate(30 175.028)">4</text></g><g class="tick"><path d="M30 157.542h-6"/><text x="-9" dy=".32em" text-anchor="end" transform="translate(30 157.542)">6</text></g><g class="tick"><path d="M30 140.055h-6"/><text x="-9" dy=".32em" text-anchor="end" transform="translate(30 140.055)">8</text></g><g class="tick"><path d="M30 122.57h-6"/><text x="-9" dy=".32em" text-anchor="end" transform="translate(30 122.569)">10</text></g><g class="tick"><path d="M30 105.083h-6"/><text x="-9" dy=".32em" text-anchor="end" transform="translate(30 105.083)">12</text></g><g class="tick"><path d="M30 87.597h-6"/><text x="-9" dy=".32em" text-anchor="end" transform="translate(30 87.597)">14</text></g><g class="tick"><path d="M30 70.11h-6"/><text x="-9" dy=".32em" text-anchor="end" transform="translate(30 70.111)">16</text></g><g class="tick"><path d="M30 52.625h-6"/><text x="-9" dy=".32em" text-anchor="end" transform="translate(30 52.625)">18</text></g><g class="tick"><path d="M30 35.14h-6"/><text x="-9" dy=".32em" text-anchor="end" transform="translate(30 35.139)">20</text></g><g class="tick"><path d="M30 17.653h-6"/><text x="-9" dy=".32em" text-anchor="end" transform="translate(30 17.653)">22</text></g><path d="M24 5h6v205h-6" class="domain"/></g><g class="caption"><g class="legend"><path fill="#1F77B4" d="M302 5h18v18h-18z"/><text dy=".35em" y="9" x="221" text-anchor="end" transform="translate(75 5)">x</text></g><g class="legend"><path fill="#FF7F0E" d="M302 25h18v18h-18z"/><text dy=".35em" y="9" x="221" text-anchor="end" transform="translate(75 25)">M</text></g><g class="legend"><path fill="#2CA02C" d="M302 45h18v18h-18z"/><text dy=".35em" y="9" x="221" text-anchor="end" transform="translate(75 45)">90%</text></g><g class="legend"><path fill="#D62728" d="M302 65h18v18h-18z"/><text dy=".35em" y="9" x="221" text-anchor="end" transform="translate(75 65)">95%</text></g></g><path class="bar" fill="#1F77B4" d="M34 186.1h18V210H34z"/><path class="bar" fill="#FF7F0E" d="M54 197.358h18V210H54z"/><path class="bar" fill="#2CA02C" d="M74 170.78h18V210H74z"/><path class="bar" fill="#D62728" d="M94 164.288h18V210H94z"/><path class="bar" fill="#1F77B4" d="M114 160.18h18V210h-18z"/><path class="bar" fill="#FF7F0E" d="M134 185.345h18V210h-18z"/><path class="bar" fill="#2CA02C" d="M154 139.185h18V210h-18z"/><path class="bar" fill="#D62728" d="M174 101.742h18V210h-18z"/><path class="bar" fill="#1F77B4" d="M194 143.75h18V210h-18z"/><path class="bar" fill="#FF7F0E" d="M214 171.447h18V210h-18z"/><path class="bar" fill="#2CA02C" d="M234 108.785h18V210h-18z"/><path class="bar" fill="#D62728" d="M254 5h18v205h-18z"/></svg>