<svg xmlns="http://www.w3.org/2000/svg" height="240" width="320"><g font-size="12" font-family="Arial"><g class="x axis"><text dy=".71em" y="6" transform="translate(30 222)">worker</text><text dy=".71em" y="6" transform="translate(152.5 222)">iframe</text><g font-size="8"><g class="tick"><path d="M47.5 210v6"/><text y="9" dy=".71em" text-anchor="middle" transform="translate(47.5 210)">x</text></g><g class="tick"><path d="M77.5 210v6"/><text y="9" dy=".71em" text-anchor="middle" transform="translate(77.5 210)">M</text></g><g class="tick"><path d="M107.5 210v6"/><text y="9" dy=".71em" text-anchor="middle" transform="translate(107.5 210)">90%</text></g><g class="tick"><path d="M137.5 210v6"/><text y="9" dy=".71em" text-anchor="middle" transform="translate(137.5 210)">95%</text></g><g class="tick"><path d="M167.5 210v6"/><text y="9" dy=".71em" text-anchor="middle" transform="translate(167.5 210)">x</text></g><g class="tick"><path d="M197.5 210v6"/><text y="9" dy=".71em" text-anchor="middle" transform="translate(197.5 210)">M</text></g><g class="tick"><path d="M227.5 210v6"/><text y="9" dy=".71em" text-anchor="middle" transform="translate(227.5 210)">90%</text></g><g class="tick"><path d="M257.5 210v6"/><text y="9" dy=".71em" text-anchor="middle" transform="translate(257.5 210)">95%</text></g><path d="M30 216v-6h245v6" class="domain"/></g></g><g class="y axis"><text dy=".71em" y="6" transform="translate(30 5) rotate(-90)" text-anchor="end">Time (ms)</text><g class="tick"><path d="M30 210h-6"/><text x="-9" dy=".32em" text-anchor="end" transform="translate(30 210)">0</text></g><g class="tick"><path d="M30 181.106h-6"/><text x="-9" dy=".32em" text-anchor="end" transform="translate(30 181.106)">50</text></g><g class="tick"><path d="M30 152.21h-6"/><text x="-9" dy=".32em" text-anchor="end" transform="translate(30 152.211)">100</text></g><g class="tick"><path d="M30 123.317h-6"/><text x="-9" dy=".32em" text-anchor="end" transform="translate(30 123.317)">150</text></g><g class="tick"><path d="M30 94.422h-6"/><text x="-9" dy=".32em" text-anchor="end" transform="translate(30 94.422)">200</text></g><g class="tick"><path d="M30 65.528h-6"/><text x="-9" dy=".32em" text-anchor="end" transform="translate(30 65.528)">250</text></g><g class="tick"><path d="M30 36.633h-6"/><text x="-9" dy=".32em" text-anchor="end" transform="translate(30 36.633)">300</text></g><g class="tick"><path d="M30 7.74h-6"/><text x="-9" dy=".32em" text-anchor="end" transform="translate(30 7.739)">350</text></g><path d="M24 5h6v205h-6" class="domain"/></g><path class="bar" fill="#1F77B4" d="M34 188.597h27V210H34z"/><path class="bar" fill="#FF7F0E" d="M64 189.676h27V210H64z"/><path class="bar" fill="#2CA02C" d="M94 185.64h27V210H94z"/><path class="bar" fill="#D62728" d="M124 183.866h27V210h-27z"/><path class="bar" fill="#1F77B4" d="M154 65.76h27V210h-27z"/><path class="bar" fill="#FF7F0E" d="M184 68.633h27V210h-27z"/><path class="bar" fill="#2CA02C" d="M214 23.71h27V210h-27z"/><path class="bar" fill="#D62728" d="M244 5h27v205h-27z"/><g class="caption"><g class="legend"><path fill="#1F77B4" d="M302 5h18v18h-18z"/><text dy=".35em" y="9" x="221" text-anchor="end" transform="translate(75 5)">x</text></g><g class="legend"><path fill="#FF7F0E" d="M302 25h18v18h-18z"/><text dy=".35em" y="9" x="221" text-anchor="end" transform="translate(75 25)">M</text></g><g class="legend"><path fill="#2CA02C" d="M302 45h18v18h-18z"/><text dy=".35em" y="9" x="221" text-anchor="end" transform="translate(75 45)">90%</text></g><g class="legend"><path fill="#D62728" d="M302 65h18v18h-18z"/><text dy=".35em" y="9" x="221" text-anchor="end" transform="translate(75 65)">95%</text></g></g></g></svg>