<svg xmlns="http://www.w3.org/2000/svg" height="240" width="320"><g transform="translate(30 5)" font-size="12" font-family="Arial"><g class="x axis"><text y="-6" x="285" text-anchor="end" transform="translate(0 205)">Measure</text><g class="tick"><path d="M0 205v6"/><text y="9" dy=".71em" text-anchor="middle" transform="translate(0 205)">0</text></g><g class="tick"><path d="M28.5 205v6"/><text y="9" dy=".71em" text-anchor="middle" transform="translate(28.5 205)">10</text></g><g class="tick"><path d="M57 205v6"/><text y="9" dy=".71em" text-anchor="middle" transform="translate(57 205)">20</text></g><g class="tick"><path d="M85.5 205v6"/><text y="9" dy=".71em" text-anchor="middle" transform="translate(85.5 205)">30</text></g><g class="tick"><path d="M114 205v6"/><text y="9" dy=".71em" text-anchor="middle" transform="translate(114 205)">40</text></g><g class="tick"><path d="M142.5 205v6"/><text y="9" dy=".71em" text-anchor="middle" transform="translate(142.5 205)">50</text></g><g class="tick"><path d="M171 205v6"/><text y="9" dy=".71em" text-anchor="middle" transform="translate(171 205)">60</text></g><g class="tick"><path d="M199.5 205v6"/><text y="9" dy=".71em" text-anchor="middle" transform="translate(199.5 205)">70</text></g><g class="tick"><path d="M228 205v6"/><text y="9" dy=".71em" text-anchor="middle" transform="translate(228 205)">80</text></g><g class="tick"><path d="M256.5 205v6"/><text y="9" dy=".71em" text-anchor="middle" transform="translate(256.5 205)">90</text></g><g class="tick"><path d="M285 205v6"/><text y="9" dy=".71em" text-anchor="middle" transform="translate(285 205)">100</text></g><path d="M0 211v-6h285v6" class="domain"/></g><g class="y axis"><text dy=".71em" y="6" transform="rotate(-90)" text-anchor="end">Time (ms)</text><g class="tick"><path d="M0 205h-6"/><text x="-9" dy=".32em" text-anchor="end" transform="translate(0 205)">0</text></g><g class="tick"><path d="M0 181.636h-6"/><text x="-9" dy=".32em" text-anchor="end" transform="translate(0 181.636)">50</text></g><g class="tick"><path d="M0 158.273h-6"/><text x="-9" dy=".32em" text-anchor="end" transform="translate(0 158.273)">100</text></g><g class="tick"><path d="M0 134.91h-6"/><text x="-9" dy=".32em" text-anchor="end" transform="translate(0 134.909)">150</text></g><g class="tick"><path d="M0 111.545h-6"/><text x="-9" dy=".32em" text-anchor="end" transform="translate(0 111.545)">200</text></g><g class="tick"><path d="M0 88.18h-6"/><text x="-9" dy=".32em" text-anchor="end" transform="translate(0 88.181)">250</text></g><g class="tick"><path d="M0 64.818h-6"/><text x="-9" dy=".32em" text-anchor="end" transform="translate(0 64.818)">300</text></g><g class="tick"><path d="M0 41.454h-6"/><text x="-9" dy=".32em" text-anchor="end" transform="translate(0 41.454)">350</text></g><g class="tick"><path d="M0 18.09h-6"/><text x="-9" dy=".32em" text-anchor="end" transform="translate(0 18.09)">400</text></g><path d="M-6 0h6v205h-6" class="domain"/></g><circle cy="186.816" r="2" class="dot" fill="#1F77B4"/><circle cy="184.366" cx="2.85" r="2" class="dot" fill="#1F77B4"/><circle cy="187.448" cx="5.7" r="2" class="dot" fill="#1F77B4"/><circle cy="186.422" cx="8.55" r="2" class="dot" fill="#1F77B4"/><circle cy="188.209" cx="11.4" r="2" class="dot" fill="#1F77B4"/><circle cy="187.526" cx="14.25" r="2" class="dot" fill="#1F77B4"/><circle cy="183.912" cx="17.1" r="2" class="dot" fill="#1F77B4"/><circle cy="176.297" cx="19.95" r="2" class="dot" fill="#1F77B4"/><circle cy="176.301" cx="22.8" r="2" class="dot" fill="#1F77B4"/><circle cy="175.737" cx="25.65" r="2" class="dot" fill="#1F77B4"/><circle cy="180.599" cx="28.5" r="2" class="dot" fill="#1F77B4"/><circle cy="189.03" cx="31.35" r="2" class="dot" fill="#1F77B4"/><circle cy="188.986" cx="34.2" r="2" class="dot" fill="#1F77B4"/><circle cy="187.11" cx="37.05" r="2" class="dot" fill="#1F77B4"/><circle cy="188.397" cx="39.9" r="2" class="dot" fill="#1F77B4"/><circle cy="188.483" cx="42.75" r="2" class="dot" fill="#1F77B4"/><circle cy="188.466" cx="45.6" r="2" class="dot" fill="#1F77B4"/><circle cy="188.871" cx="48.45" r="2" class="dot" fill="#1F77B4"/><circle cy="188.56" cx="51.3" r="2" class="dot" fill="#1F77B4"/><circle cy="186.142" cx="54.15" r="2" class="dot" fill="#1F77B4"/><circle cy="187.261" cx="57" r="2" class="dot" fill="#1F77B4"/><circle cy="189.507" cx="59.85" r="2" class="dot" fill="#1F77B4"/><circle cy="188.709" cx="62.7" r="2" class="dot" fill="#1F77B4"/><circle cy="184.683" cx="65.55" r="2" class="dot" fill="#1F77B4"/><circle cy="187.02" cx="68.4" r="2" class="dot" fill="#1F77B4"/><circle cy="189.146" cx="71.25" r="2" class="dot" fill="#1F77B4"/><circle cy="187.999" cx="74.1" r="2" class="dot" fill="#1F77B4"/><circle cy="189.855" cx="76.95" r="2" class="dot" fill="#1F77B4"/><circle cy="189.27" cx="79.8" r="2" class="dot" fill="#1F77B4"/><circle cy="187.812" cx="82.65" r="2" class="dot" fill="#1F77B4"/><circle cy="185.455" cx="85.5" r="2" class="dot" fill="#1F77B4"/><circle cy="189.696" cx="88.35" r="2" class="dot" fill="#1F77B4"/><circle cy="187.357" cx="91.2" r="2" class="dot" fill="#1F77B4"/><circle cy="188.908" cx="94.05" r="2" class="dot" fill="#1F77B4"/><circle cy="189.031" cx="96.9" r="2" class="dot" fill="#1F77B4"/><circle cy="189.471" cx="99.75" r="2" class="dot" fill="#1F77B4"/><circle cy="186.98" cx="102.6" r="2" class="dot" fill="#1F77B4"/><circle cy="186.556" cx="105.45" r="2" class="dot" fill="#1F77B4"/><circle cy="188.027" cx="108.3" r="2" class="dot" fill="#1F77B4"/><circle cy="189.455" cx="111.15" r="2" class="dot" fill="#1F77B4"/><circle cy="190.067" cx="114" r="2" class="dot" fill="#1F77B4"/><circle cy="188.781" cx="116.85" r="2" class="dot" fill="#1F77B4"/><circle cy="188.979" cx="119.7" r="2" class="dot" fill="#1F77B4"/><circle cy="189.065" cx="122.55" r="2" class="dot" fill="#1F77B4"/><circle cy="189.299" cx="125.4" r="2" class="dot" fill="#1F77B4"/><circle cy="189.419" cx="128.25" r="2" class="dot" fill="#1F77B4"/><circle cy="186.323" cx="131.1" r="2" class="dot" fill="#1F77B4"/><circle cy="187.779" cx="133.95" r="2" class="dot" fill="#1F77B4"/><circle cy="186.391" cx="136.8" r="2" class="dot" fill="#1F77B4"/><circle cy="184.954" cx="139.65" r="2" class="dot" fill="#1F77B4"/><circle cy="189.674" cx="142.5" r="2" class="dot" fill="#1F77B4"/><circle cy="189.598" cx="145.35" r="2" class="dot" fill="#1F77B4"/><circle cy="186.585" cx="148.2" r="2" class="dot" fill="#1F77B4"/><circle cy="187.422" cx="151.05" r="2" class="dot" fill="#1F77B4"/><circle cy="185.97" cx="153.9" r="2" class="dot" fill="#1F77B4"/><circle cy="188.664" cx="156.75" r="2" class="dot" fill="#1F77B4"/><circle cy="187.513" cx="159.6" r="2" class="dot" fill="#1F77B4"/><circle cy="187.017" cx="162.45" r="2" class="dot" fill="#1F77B4"/><circle cy="189.032" cx="165.3" r="2" class="dot" fill="#1F77B4"/><circle cy="187.746" cx="168.15" r="2" class="dot" fill="#1F77B4"/><circle cy="188.47" cx="171" r="2" class="dot" fill="#1F77B4"/><circle cy="189.112" cx="173.85" r="2" class="dot" fill="#1F77B4"/><circle cy="183.825" cx="176.7" r="2" class="dot" fill="#1F77B4"/><circle cy="189.262" cx="179.55" r="2" class="dot" fill="#1F77B4"/><circle cy="188.836" cx="182.4" r="2" class="dot" fill="#1F77B4"/><circle cy="188.995" cx="185.25" r="2" class="dot" fill="#1F77B4"/><circle cy="188.812" cx="188.1" r="2" class="dot" fill="#1F77B4"/><circle cy="189.146" cx="190.95" r="2" class="dot" fill="#1F77B4"/><circle cy="188.312" cx="193.8" r="2" class="dot" fill="#1F77B4"/><circle cy="187.451" cx="196.65" r="2" class="dot" fill="#1F77B4"/><circle cy="185.656" cx="199.5" r="2" class="dot" fill="#1F77B4"/><circle cy="189.757" cx="202.35" r="2" class="dot" fill="#1F77B4"/><circle cy="188.695" cx="205.2" r="2" class="dot" fill="#1F77B4"/><circle cy="189.635" cx="208.05" r="2" class="dot" fill="#1F77B4"/><circle cy="189.53" cx="210.9" r="2" class="dot" fill="#1F77B4"/><circle cy="189.516" cx="213.75" r="2" class="dot" fill="#1F77B4"/><circle cy="188.601" cx="216.6" r="2" class="dot" fill="#1F77B4"/><circle cy="189.719" cx="219.45" r="2" class="dot" fill="#1F77B4"/><circle cy="188.644" cx="222.3" r="2" class="dot" fill="#1F77B4"/><circle cy="189.229" cx="225.15" r="2" class="dot" fill="#1F77B4"/><circle cy="189.028" cx="228" r="2" class="dot" fill="#1F77B4"/><circle cy="188.571" cx="230.85" r="2" class="dot" fill="#1F77B4"/><circle cy="185.153" cx="233.7" r="2" class="dot" fill="#1F77B4"/><circle cy="189.647" cx="236.55" r="2" class="dot" fill="#1F77B4"/><circle cy="188.561" cx="239.4" r="2" class="dot" fill="#1F77B4"/><circle cy="189.277" cx="242.25" r="2" class="dot" fill="#1F77B4"/><circle cy="189.459" cx="245.1" r="2" class="dot" fill="#1F77B4"/><circle cy="189.035" cx="247.95" r="2" class="dot" fill="#1F77B4"/><circle cy="189.066" cx="250.8" r="2" class="dot" fill="#1F77B4"/><circle cy="188.24" cx="253.65" r="2" class="dot" fill="#1F77B4"/><circle cy="189.401" cx="256.5" r="2" class="dot" fill="#1F77B4"/><circle cy="185.794" cx="259.35" r="2" class="dot" fill="#1F77B4"/><circle cy="189.15" cx="262.2" r="2" class="dot" fill="#1F77B4"/><circle cy="187.68" cx="265.05" r="2" class="dot" fill="#1F77B4"/><circle cy="187.985" cx="267.9" r="2" class="dot" fill="#1F77B4"/><circle cy="188.703" cx="270.75" r="2" class="dot" fill="#1F77B4"/><circle cy="187.614" cx="273.6" r="2" class="dot" fill="#1F77B4"/><circle cy="189.605" cx="276.45" r="2" class="dot" fill="#1F77B4"/><circle cy="189.775" cx="279.3" r="2" class="dot" fill="#1F77B4"/><circle cy="186.305" cx="282.15" r="2" class="dot" fill="#1F77B4"/><circle cy="86.038" r="2" class="dot" fill="#FF7F0E"/><circle cy="63.306" cx="2.85" r="2" class="dot" fill="#FF7F0E"/><circle cy="38.611" cx="5.7" r="2" class="dot" fill="#FF7F0E"/><circle cy="99.795" cx="8.55" r="2" class="dot" fill="#FF7F0E"/><circle cy="44.654" cx="11.4" r="2" class="dot" fill="#FF7F0E"/><circle cy="127.896" cx="14.25" r="2" class="dot" fill="#FF7F0E"/><circle cy="72.082" cx="17.1" r="2" class="dot" fill="#FF7F0E"/><circle cy="90.391" cx="19.95" r="2" class="dot" fill="#FF7F0E"/><circle cy="117.645" cx="22.8" r="2" class="dot" fill="#FF7F0E"/><circle cy="39.868" cx="25.65" r="2" class="dot" fill="#FF7F0E"/><circle cy="65.898" cx="28.5" r="2" class="dot" fill="#FF7F0E"/><circle cy="63.094" cx="31.35" r="2" class="dot" fill="#FF7F0E"/><circle cy="80.413" cx="34.2" r="2" class="dot" fill="#FF7F0E"/><circle cy="100.699" cx="37.05" r="2" class="dot" fill="#FF7F0E"/><circle cy="93.6" cx="39.9" r="2" class="dot" fill="#FF7F0E"/><circle cy="88.498" cx="42.75" r="2" class="dot" fill="#FF7F0E"/><circle cy="97.361" cx="45.6" r="2" class="dot" fill="#FF7F0E"/><circle cy="101.537" cx="48.45" r="2" class="dot" fill="#FF7F0E"/><circle cy="118.692" cx="51.3" r="2" class="dot" fill="#FF7F0E"/><circle cy="89.92" cx="54.15" r="2" class="dot" fill="#FF7F0E"/><circle cy="86.926" cx="57" r="2" class="dot" fill="#FF7F0E"/><circle cy="112.765" cx="59.85" r="2" class="dot" fill="#FF7F0E"/><circle cy="90.038" cx="62.7" r="2" class="dot" fill="#FF7F0E"/><circle cy="77.56" cx="65.55" r="2" class="dot" fill="#FF7F0E"/><circle cy="94.376" cx="68.4" r="2" class="dot" fill="#FF7F0E"/><circle cy="105.503" cx="71.25" r="2" class="dot" fill="#FF7F0E"/><circle cy="88.286" cx="74.1" r="2" class="dot" fill="#FF7F0E"/><circle cy="60.995" cx="76.95" r="2" class="dot" fill="#FF7F0E"/><circle cx="79.8" r="2" class="dot" fill="#FF7F0E"/><circle cy="56.459" cx="82.65" r="2" class="dot" fill="#FF7F0E"/><circle cy="94.803" cx="85.5" r="2" class="dot" fill="#FF7F0E"/><circle cy="85.813" cx="88.35" r="2" class="dot" fill="#FF7F0E"/><circle cy="92.893" cx="91.2" r="2" class="dot" fill="#FF7F0E"/><circle cy="78.991" cx="94.05" r="2" class="dot" fill="#FF7F0E"/><circle cy="81.997" cx="96.9" r="2" class="dot" fill="#FF7F0E"/><circle cy="54.806" cx="99.75" r="2" class="dot" fill="#FF7F0E"/><circle cy="71.908" cx="102.6" r="2" class="dot" fill="#FF7F0E"/><circle cy="89.853" cx="105.45" r="2" class="dot" fill="#FF7F0E"/><circle cy="90.029" cx="108.3" r="2" class="dot" fill="#FF7F0E"/><circle cy="79.955" cx="111.15" r="2" class="dot" fill="#FF7F0E"/><circle cy="102.573" cx="114" r="2" class="dot" fill="#FF7F0E"/><circle cy="99.975" cx="116.85" r="2" class="dot" fill="#FF7F0E"/><circle cy="112.433" cx="119.7" r="2" class="dot" fill="#FF7F0E"/><circle cy="101.277" cx="122.55" r="2" class="dot" fill="#FF7F0E"/><circle cy="124.116" cx="125.4" r="2" class="dot" fill="#FF7F0E"/><circle cy="80.978" cx="128.25" r="2" class="dot" fill="#FF7F0E"/><circle cy="109.99" cx="131.1" r="2" class="dot" fill="#FF7F0E"/><circle cy="90.891" cx="133.95" r="2" class="dot" fill="#FF7F0E"/><circle cy="118.39" cx="136.8" r="2" class="dot" fill="#FF7F0E"/><circle cy="87.585" cx="139.65" r="2" class="dot" fill="#FF7F0E"/><circle cy="104.725" cx="142.5" r="2" class="dot" fill="#FF7F0E"/><circle cy="100.465" cx="145.35" r="2" class="dot" fill="#FF7F0E"/><circle cy="101.139" cx="148.2" r="2" class="dot" fill="#FF7F0E"/><circle cy="100.136" cx="151.05" r="2" class="dot" fill="#FF7F0E"/><circle cy="102.93" cx="153.9" r="2" class="dot" fill="#FF7F0E"/><circle cy="128.01" cx="156.75" r="2" class="dot" fill="#FF7F0E"/><circle cy="42.583" cx="159.6" r="2" class="dot" fill="#FF7F0E"/><circle cy="23.433" cx="162.45" r="2" class="dot" fill="#FF7F0E"/><circle cy="120.369" cx="165.3" r="2" class="dot" fill="#FF7F0E"/><circle cy="78.434" cx="168.15" r="2" class="dot" fill="#FF7F0E"/><circle cy="116.825" cx="171" r="2" class="dot" fill="#FF7F0E"/><circle cy="90.494" cx="173.85" r="2" class="dot" fill="#FF7F0E"/><circle cy="88" cx="176.7" r="2" class="dot" fill="#FF7F0E"/><circle cy="94.99" cx="179.55" r="2" class="dot" fill="#FF7F0E"/><circle cy="129.212" cx="182.4" r="2" class="dot" fill="#FF7F0E"/><circle cy="81.648" cx="185.25" r="2" class="dot" fill="#FF7F0E"/><circle cy="110.492" cx="188.1" r="2" class="dot" fill="#FF7F0E"/><circle cy="71.255" cx="190.95" r="2" class="dot" fill="#FF7F0E"/><circle cy="88.938" cx="193.8" r="2" class="dot" fill="#FF7F0E"/><circle cy="120.958" cx="196.65" r="2" class="dot" fill="#FF7F0E"/><circle cy="87.419" cx="199.5" r="2" class="dot" fill="#FF7F0E"/><circle cy="88.504" cx="202.35" r="2" class="dot" fill="#FF7F0E"/><circle cy="125.824" cx="205.2" r="2" class="dot" fill="#FF7F0E"/><circle cy="76.519" cx="208.05" r="2" class="dot" fill="#FF7F0E"/><circle cy="96.175" cx="210.9" r="2" class="dot" fill="#FF7F0E"/><circle cy="128.473" cx="213.75" r="2" class="dot" fill="#FF7F0E"/><circle cy="93.282" cx="216.6" r="2" class="dot" fill="#FF7F0E"/><circle cy="87.353" cx="219.45" r="2" class="dot" fill="#FF7F0E"/><circle cy="88.358" cx="222.3" r="2" class="dot" fill="#FF7F0E"/><circle cy="105.265" cx="225.15" r="2" class="dot" fill="#FF7F0E"/><circle cy="94.147" cx="228" r="2" class="dot" fill="#FF7F0E"/><circle cy="121.415" cx="230.85" r="2" class="dot" fill="#FF7F0E"/><circle cy="55.173" cx="233.7" r="2" class="dot" fill="#FF7F0E"/><circle cy="16.168" cx="236.55" r="2" class="dot" fill="#FF7F0E"/><circle cy="51.195" cx="239.4" r="2" class="dot" fill="#FF7F0E"/><circle cy="107.587" cx="242.25" r="2" class="dot" fill="#FF7F0E"/><circle cy="71.032" cx="245.1" r="2" class="dot" fill="#FF7F0E"/><circle cy="101.682" cx="247.95" r="2" class="dot" fill="#FF7F0E"/><circle cy="96.836" cx="250.8" r="2" class="dot" fill="#FF7F0E"/><circle cy="55.373" cx="253.65" r="2" class="dot" fill="#FF7F0E"/><circle cy="132.015" cx="256.5" r="2" class="dot" fill="#FF7F0E"/><circle cy="76.453" cx="259.35" r="2" class="dot" fill="#FF7F0E"/><circle cy="100.588" cx="262.2" r="2" class="dot" fill="#FF7F0E"/><circle cy="1.601" cx="265.05" r="2" class="dot" fill="#FF7F0E"/><circle cy="53.932" cx="267.9" r="2" class="dot" fill="#FF7F0E"/><circle cy="98.491" cx="270.75" r="2" class="dot" fill="#FF7F0E"/><circle cy="93.807" cx="273.6" r="2" class="dot" fill="#FF7F0E"/><circle cy="126.235" cx="276.45" r="2" class="dot" fill="#FF7F0E"/><circle cy="91.38" cx="279.3" r="2" class="dot" fill="#FF7F0E"/><circle cy="117.367" cx="282.15" r="2" class="dot" fill="#FF7F0E"/><path class="regression" stroke-width="2" stroke="#1F77B4" d="M0 187.694h285"/><path class="regression" stroke-width="2" stroke="#FF7F0E" d="M0 88.368h285"/><g class="legend"><path fill="#1F77B4" d="M267 0h18v18h-18z"/><text dy=".35em" y="9" x="261" text-anchor="end">worker</text></g><g class="legend"><path fill="#FF7F0E" d="M267 20h18v18h-18z"/><text dy=".35em" y="9" x="261" text-anchor="end" transform="translate(0 20)">iframe</text></g></g></svg>