<svg xmlns="http://www.w3.org/2000/svg" height="240" width="320"><g transform="translate(30 5)" font-size="12" font-family="Arial"><g class="x axis"><text y="-6" x="285" text-anchor="end" transform="translate(0 205)">Measure</text><g class="tick"><path d="M0 205v6"/><text y="9" dy=".71em" text-anchor="middle" transform="translate(0 205)">0</text></g><g class="tick"><path d="M28.5 205v6"/><text y="9" dy=".71em" text-anchor="middle" transform="translate(28.5 205)">10</text></g><g class="tick"><path d="M57 205v6"/><text y="9" dy=".71em" text-anchor="middle" transform="translate(57 205)">20</text></g><g class="tick"><path d="M85.5 205v6"/><text y="9" dy=".71em" text-anchor="middle" transform="translate(85.5 205)">30</text></g><g class="tick"><path d="M114 205v6"/><text y="9" dy=".71em" text-anchor="middle" transform="translate(114 205)">40</text></g><g class="tick"><path d="M142.5 205v6"/><text y="9" dy=".71em" text-anchor="middle" transform="translate(142.5 205)">50</text></g><g class="tick"><path d="M171 205v6"/><text y="9" dy=".71em" text-anchor="middle" transform="translate(171 205)">60</text></g><g class="tick"><path d="M199.5 205v6"/><text y="9" dy=".71em" text-anchor="middle" transform="translate(199.5 205)">70</text></g><g class="tick"><path d="M228 205v6"/><text y="9" dy=".71em" text-anchor="middle" transform="translate(228 205)">80</text></g><g class="tick"><path d="M256.5 205v6"/><text y="9" dy=".71em" text-anchor="middle" transform="translate(256.5 205)">90</text></g><g class="tick"><path d="M285 205v6"/><text y="9" dy=".71em" text-anchor="middle" transform="translate(285 205)">100</text></g><path d="M0 211v-6h285v6" class="domain"/></g><g class="y axis"><text dy=".71em" y="6" transform="rotate(-90)" text-anchor="end">Time (ms)</text><g class="tick"><path d="M0 205h-6"/><text x="-9" dy=".32em" text-anchor="end" transform="translate(0 205)">0</text></g><g class="tick"><path d="M0 176.99h-6"/><text x="-9" dy=".32em" text-anchor="end" transform="translate(0 176.99)">20</text></g><g class="tick"><path d="M0 148.98h-6"/><text x="-9" dy=".32em" text-anchor="end" transform="translate(0 148.98)">40</text></g><g class="tick"><path d="M0 120.97h-6"/><text x="-9" dy=".32em" text-anchor="end" transform="translate(0 120.97)">60</text></g><g class="tick"><path d="M0 92.958h-6"/><text x="-9" dy=".32em" text-anchor="end" transform="translate(0 92.958)">80</text></g><g class="tick"><path d="M0 64.948h-6"/><text x="-9" dy=".32em" text-anchor="end" transform="translate(0 64.948)">100</text></g><g class="tick"><path d="M0 36.937h-6"/><text x="-9" dy=".32em" text-anchor="end" transform="translate(0 36.937)">120</text></g><g class="tick"><path d="M0 8.927h-6"/><text x="-9" dy=".32em" text-anchor="end" transform="translate(0 8.927)">140</text></g><path d="M-6 0h6v205h-6" class="domain"/></g><circle cy="152.319" r="2" class="dot" fill="#1F77B4"/><circle cy="155.741" cx="2.85" r="2" class="dot" fill="#1F77B4"/><circle cy="155.638" cx="5.7" r="2" class="dot" fill="#1F77B4"/><circle cy="162.716" cx="8.55" r="2" class="dot" fill="#1F77B4"/><circle cy="155.804" cx="11.4" r="2" class="dot" fill="#1F77B4"/><circle cy="158.07" cx="14.25" r="2" class="dot" fill="#1F77B4"/><circle cy="157.196" cx="17.1" r="2" class="dot" fill="#1F77B4"/><circle cy="163.17" cx="19.95" r="2" class="dot" fill="#1F77B4"/><circle cy="154.824" cx="22.8" r="2" class="dot" fill="#1F77B4"/><circle cy="154.745" cx="25.65" r="2" class="dot" fill="#1F77B4"/><circle cy="161.821" cx="28.5" r="2" class="dot" fill="#1F77B4"/><circle cy="156.988" cx="31.35" r="2" class="dot" fill="#1F77B4"/><circle cy="126.451" cx="34.2" r="2" class="dot" fill="#1F77B4"/><circle cy="137.557" cx="37.05" r="2" class="dot" fill="#1F77B4"/><circle cy="140.613" cx="39.9" r="2" class="dot" fill="#1F77B4"/><circle cy="150.004" cx="42.75" r="2" class="dot" fill="#1F77B4"/><circle cy="150.692" cx="45.6" r="2" class="dot" fill="#1F77B4"/><circle cy="162.591" cx="48.45" r="2" class="dot" fill="#1F77B4"/><circle cy="157.438" cx="51.3" r="2" class="dot" fill="#1F77B4"/><circle cy="162.703" cx="54.15" r="2" class="dot" fill="#1F77B4"/><circle cy="149.91" cx="57" r="2" class="dot" fill="#1F77B4"/><circle cy="156.896" cx="59.85" r="2" class="dot" fill="#1F77B4"/><circle cy="161.664" cx="62.7" r="2" class="dot" fill="#1F77B4"/><circle cy="164.668" cx="65.55" r="2" class="dot" fill="#1F77B4"/><circle cy="160.151" cx="68.4" r="2" class="dot" fill="#1F77B4"/><circle cy="156.534" cx="71.25" r="2" class="dot" fill="#1F77B4"/><circle cy="158.549" cx="74.1" r="2" class="dot" fill="#1F77B4"/><circle cy="154.789" cx="76.95" r="2" class="dot" fill="#1F77B4"/><circle cy="164.806" cx="79.8" r="2" class="dot" fill="#1F77B4"/><circle cy="161.02" cx="82.65" r="2" class="dot" fill="#1F77B4"/><circle cy="161.782" cx="85.5" r="2" class="dot" fill="#1F77B4"/><circle cy="152.554" cx="88.35" r="2" class="dot" fill="#1F77B4"/><circle cy="160.55" cx="91.2" r="2" class="dot" fill="#1F77B4"/><circle cy="158.219" cx="94.05" r="2" class="dot" fill="#1F77B4"/><circle cy="154.953" cx="96.9" r="2" class="dot" fill="#1F77B4"/><circle cy="162.06" cx="99.75" r="2" class="dot" fill="#1F77B4"/><circle cy="162.683" cx="102.6" r="2" class="dot" fill="#1F77B4"/><circle cy="164.287" cx="105.45" r="2" class="dot" fill="#1F77B4"/><circle cy="154.848" cx="108.3" r="2" class="dot" fill="#1F77B4"/><circle cy="155.18" cx="111.15" r="2" class="dot" fill="#1F77B4"/><circle cy="161.081" cx="114" r="2" class="dot" fill="#1F77B4"/><circle cy="150.794" cx="116.85" r="2" class="dot" fill="#1F77B4"/><circle cy="160.238" cx="119.7" r="2" class="dot" fill="#1F77B4"/><circle cy="161.788" cx="122.55" r="2" class="dot" fill="#1F77B4"/><circle cy="159.179" cx="125.4" r="2" class="dot" fill="#1F77B4"/><circle cy="162.595" cx="128.25" r="2" class="dot" fill="#1F77B4"/><circle cy="150.445" cx="131.1" r="2" class="dot" fill="#1F77B4"/><circle cy="162.631" cx="133.95" r="2" class="dot" fill="#1F77B4"/><circle cy="159.584" cx="136.8" r="2" class="dot" fill="#1F77B4"/><circle cy="153.66" cx="139.65" r="2" class="dot" fill="#1F77B4"/><circle cy="159.907" cx="142.5" r="2" class="dot" fill="#1F77B4"/><circle cy="160.987" cx="145.35" r="2" class="dot" fill="#1F77B4"/><circle cy="160.329" cx="148.2" r="2" class="dot" fill="#1F77B4"/><circle cy="158.886" cx="151.05" r="2" class="dot" fill="#1F77B4"/><circle cy="162.722" cx="153.9" r="2" class="dot" fill="#1F77B4"/><circle cy="155.459" cx="156.75" r="2" class="dot" fill="#1F77B4"/><circle cy="159.402" cx="159.6" r="2" class="dot" fill="#1F77B4"/><circle cy="159.025" cx="162.45" r="2" class="dot" fill="#1F77B4"/><circle cy="153.593" cx="165.3" r="2" class="dot" fill="#1F77B4"/><circle cy="157.957" cx="168.15" r="2" class="dot" fill="#1F77B4"/><circle cy="158.345" cx="171" r="2" class="dot" fill="#1F77B4"/><circle cy="161.753" cx="173.85" r="2" class="dot" fill="#1F77B4"/><circle cy="163.023" cx="176.7" r="2" class="dot" fill="#1F77B4"/><circle cy="153.522" cx="179.55" r="2" class="dot" fill="#1F77B4"/><circle cy="153.699" cx="182.4" r="2" class="dot" fill="#1F77B4"/><circle cy="155.194" cx="185.25" r="2" class="dot" fill="#1F77B4"/><circle cy="156.492" cx="188.1" r="2" class="dot" fill="#1F77B4"/><circle cy="156.501" cx="190.95" r="2" class="dot" fill="#1F77B4"/><circle cy="161.451" cx="193.8" r="2" class="dot" fill="#1F77B4"/><circle cy="162.162" cx="196.65" r="2" class="dot" fill="#1F77B4"/><circle cy="156.782" cx="199.5" r="2" class="dot" fill="#1F77B4"/><circle cy="161.591" cx="202.35" r="2" class="dot" fill="#1F77B4"/><circle cy="161.954" cx="205.2" r="2" class="dot" fill="#1F77B4"/><circle cy="156.242" cx="208.05" r="2" class="dot" fill="#1F77B4"/><circle cy="162.238" cx="210.9" r="2" class="dot" fill="#1F77B4"/><circle cy="163.829" cx="213.75" r="2" class="dot" fill="#1F77B4"/><circle cy="154.84" cx="216.6" r="2" class="dot" fill="#1F77B4"/><circle cy="161.336" cx="219.45" r="2" class="dot" fill="#1F77B4"/><circle cy="162.873" cx="222.3" r="2" class="dot" fill="#1F77B4"/><circle cy="154.548" cx="225.15" r="2" class="dot" fill="#1F77B4"/><circle cy="162.962" cx="228" r="2" class="dot" fill="#1F77B4"/><circle cy="161.969" cx="230.85" r="2" class="dot" fill="#1F77B4"/><circle cy="161.711" cx="233.7" r="2" class="dot" fill="#1F77B4"/><circle cy="163.499" cx="236.55" r="2" class="dot" fill="#1F77B4"/><circle cy="155.441" cx="239.4" r="2" class="dot" fill="#1F77B4"/><circle cy="159.83" cx="242.25" r="2" class="dot" fill="#1F77B4"/><circle cy="157.193" cx="245.1" r="2" class="dot" fill="#1F77B4"/><circle cy="160.168" cx="247.95" r="2" class="dot" fill="#1F77B4"/><circle cy="154.767" cx="250.8" r="2" class="dot" fill="#1F77B4"/><circle cy="158.49" cx="253.65" r="2" class="dot" fill="#1F77B4"/><circle cy="161.087" cx="256.5" r="2" class="dot" fill="#1F77B4"/><circle cy="159.811" cx="259.35" r="2" class="dot" fill="#1F77B4"/><circle cy="159.032" cx="262.2" r="2" class="dot" fill="#1F77B4"/><circle cy="159.685" cx="265.05" r="2" class="dot" fill="#1F77B4"/><circle cy="157.942" cx="267.9" r="2" class="dot" fill="#1F77B4"/><circle cy="159.448" cx="270.75" r="2" class="dot" fill="#1F77B4"/><circle cy="158.309" cx="273.6" r="2" class="dot" fill="#1F77B4"/><circle cy="159.007" cx="276.45" r="2" class="dot" fill="#1F77B4"/><circle cy="161.171" cx="279.3" r="2" class="dot" fill="#1F77B4"/><circle cy="163.56" cx="282.15" r="2" class="dot" fill="#1F77B4"/><circle cy="103.39" r="2" class="dot" fill="#FF7F0E"/><circle cy="65.504" cx="2.85" r="2" class="dot" fill="#FF7F0E"/><circle cy="62.202" cx="5.7" r="2" class="dot" fill="#FF7F0E"/><circle cy="74.973" cx="8.55" r="2" class="dot" fill="#FF7F0E"/><circle cy="104.992" cx="11.4" r="2" class="dot" fill="#FF7F0E"/><circle cy="98.492" cx="14.25" r="2" class="dot" fill="#FF7F0E"/><circle cy="110.346" cx="17.1" r="2" class="dot" fill="#FF7F0E"/><circle cy="87.087" cx="19.95" r="2" class="dot" fill="#FF7F0E"/><circle cy="71.221" cx="22.8" r="2" class="dot" fill="#FF7F0E"/><circle cy="67.368" cx="25.65" r="2" class="dot" fill="#FF7F0E"/><circle cy="106.213" cx="28.5" r="2" class="dot" fill="#FF7F0E"/><circle cy="108.428" cx="31.35" r="2" class="dot" fill="#FF7F0E"/><circle cy="102.119" cx="34.2" r="2" class="dot" fill="#FF7F0E"/><circle cy="108.009" cx="37.05" r="2" class="dot" fill="#FF7F0E"/><circle cy="104.949" cx="39.9" r="2" class="dot" fill="#FF7F0E"/><circle cy="103.052" cx="42.75" r="2" class="dot" fill="#FF7F0E"/><circle cy="58.456" cx="45.6" r="2" class="dot" fill="#FF7F0E"/><circle cy="107.773" cx="48.45" r="2" class="dot" fill="#FF7F0E"/><circle cy="51.751" cx="51.3" r="2" class="dot" fill="#FF7F0E"/><circle cy="107.998" cx="54.15" r="2" class="dot" fill="#FF7F0E"/><circle cy="97.304" cx="57" r="2" class="dot" fill="#FF7F0E"/><circle cy="43.189" cx="59.85" r="2" class="dot" fill="#FF7F0E"/><circle cx="62.7" r="2" class="dot" fill="#FF7F0E"/><circle cy="94.001" cx="65.55" r="2" class="dot" fill="#FF7F0E"/><circle cy="92.021" cx="68.4" r="2" class="dot" fill="#FF7F0E"/><circle cy="105.838" cx="71.25" r="2" class="dot" fill="#FF7F0E"/><circle cy="104.618" cx="74.1" r="2" class="dot" fill="#FF7F0E"/><circle cy="54.904" cx="76.95" r="2" class="dot" fill="#FF7F0E"/><circle cy="99.41" cx="79.8" r="2" class="dot" fill="#FF7F0E"/><circle cy="61.769" cx="82.65" r="2" class="dot" fill="#FF7F0E"/><circle cy="108.435" cx="85.5" r="2" class="dot" fill="#FF7F0E"/><circle cy="113.12" cx="88.35" r="2" class="dot" fill="#FF7F0E"/><circle cy="108.498" cx="91.2" r="2" class="dot" fill="#FF7F0E"/><circle cy="84.034" cx="94.05" r="2" class="dot" fill="#FF7F0E"/><circle cy="107.91" cx="96.9" r="2" class="dot" fill="#FF7F0E"/><circle cy="104.057" cx="99.75" r="2" class="dot" fill="#FF7F0E"/><circle cy="101.246" cx="102.6" r="2" class="dot" fill="#FF7F0E"/><circle cy="72.026" cx="105.45" r="2" class="dot" fill="#FF7F0E"/><circle cy="108.364" cx="108.3" r="2" class="dot" fill="#FF7F0E"/><circle cy="109.851" cx="111.15" r="2" class="dot" fill="#FF7F0E"/><circle cy="96.592" cx="114" r="2" class="dot" fill="#FF7F0E"/><circle cy="108.35" cx="116.85" r="2" class="dot" fill="#FF7F0E"/><circle cy="110.042" cx="119.7" r="2" class="dot" fill="#FF7F0E"/><circle cy="95.889" cx="122.55" r="2" class="dot" fill="#FF7F0E"/><circle cy="114.14" cx="125.4" r="2" class="dot" fill="#FF7F0E"/><circle cy="111.656" cx="128.25" r="2" class="dot" fill="#FF7F0E"/><circle cy="72.169" cx="131.1" r="2" class="dot" fill="#FF7F0E"/><circle cy="7.113" cx="133.95" r="2" class="dot" fill="#FF7F0E"/><circle cy="112.465" cx="136.8" r="2" class="dot" fill="#FF7F0E"/><circle cy="87.075" cx="139.65" r="2" class="dot" fill="#FF7F0E"/><circle cy="34.806" cx="142.5" r="2" class="dot" fill="#FF7F0E"/><circle cy="101.132" cx="145.35" r="2" class="dot" fill="#FF7F0E"/><circle cy="25.452" cx="148.2" r="2" class="dot" fill="#FF7F0E"/><circle cy="108.839" cx="151.05" r="2" class="dot" fill="#FF7F0E"/><circle cy="112.405" cx="153.9" r="2" class="dot" fill="#FF7F0E"/><circle cy="113.12" cx="156.75" r="2" class="dot" fill="#FF7F0E"/><circle cy="100.442" cx="159.6" r="2" class="dot" fill="#FF7F0E"/><circle cy="96.517" cx="162.45" r="2" class="dot" fill="#FF7F0E"/><circle cy="107.443" cx="165.3" r="2" class="dot" fill="#FF7F0E"/><circle cy="106.631" cx="168.15" r="2" class="dot" fill="#FF7F0E"/><circle cy="91.3" cx="171" r="2" class="dot" fill="#FF7F0E"/><circle cy="97.137" cx="173.85" r="2" class="dot" fill="#FF7F0E"/><circle cy="103.489" cx="176.7" r="2" class="dot" fill="#FF7F0E"/><circle cy="103.271" cx="179.55" r="2" class="dot" fill="#FF7F0E"/><circle cy="110.253" cx="182.4" r="2" class="dot" fill="#FF7F0E"/><circle cy="99.764" cx="185.25" r="2" class="dot" fill="#FF7F0E"/><circle cy="114.136" cx="188.1" r="2" class="dot" fill="#FF7F0E"/><circle cy="106.124" cx="190.95" r="2" class="dot" fill="#FF7F0E"/><circle cy="114.532" cx="193.8" r="2" class="dot" fill="#FF7F0E"/><circle cy="114.433" cx="196.65" r="2" class="dot" fill="#FF7F0E"/><circle cy="104.88" cx="199.5" r="2" class="dot" fill="#FF7F0E"/><circle cy="100.618" cx="202.35" r="2" class="dot" fill="#FF7F0E"/><circle cy="4.83" cx="205.2" r="2" class="dot" fill="#FF7F0E"/><circle cy="102.194" cx="208.05" r="2" class="dot" fill="#FF7F0E"/><circle cy="109.876" cx="210.9" r="2" class="dot" fill="#FF7F0E"/><circle cy="111.98" cx="213.75" r="2" class="dot" fill="#FF7F0E"/><circle cy="110.917" cx="216.6" r="2" class="dot" fill="#FF7F0E"/><circle cy="96.75" cx="219.45" r="2" class="dot" fill="#FF7F0E"/><circle cy="80.595" cx="222.3" r="2" class="dot" fill="#FF7F0E"/><circle cy="92.148" cx="225.15" r="2" class="dot" fill="#FF7F0E"/><circle cy="107.573" cx="228" r="2" class="dot" fill="#FF7F0E"/><circle cy="108.407" cx="230.85" r="2" class="dot" fill="#FF7F0E"/><circle cy="72.017" cx="233.7" r="2" class="dot" fill="#FF7F0E"/><circle cy="56.345" cx="236.55" r="2" class="dot" fill="#FF7F0E"/><circle cy="109.897" cx="239.4" r="2" class="dot" fill="#FF7F0E"/><circle cy="109.958" cx="242.25" r="2" class="dot" fill="#FF7F0E"/><circle cy="98.027" cx="245.1" r="2" class="dot" fill="#FF7F0E"/><circle cy="108.382" cx="247.95" r="2" class="dot" fill="#FF7F0E"/><circle cy="103.827" cx="250.8" r="2" class="dot" fill="#FF7F0E"/><circle cy="107.581" cx="253.65" r="2" class="dot" fill="#FF7F0E"/><circle cy="99.638" cx="256.5" r="2" class="dot" fill="#FF7F0E"/><circle cy="109.314" cx="259.35" r="2" class="dot" fill="#FF7F0E"/><circle cy="113.392" cx="262.2" r="2" class="dot" fill="#FF7F0E"/><circle cy="114.253" cx="265.05" r="2" class="dot" fill="#FF7F0E"/><circle cy="104.597" cx="267.9" r="2" class="dot" fill="#FF7F0E"/><circle cy="110.746" cx="270.75" r="2" class="dot" fill="#FF7F0E"/><circle cy="114.038" cx="273.6" r="2" class="dot" fill="#FF7F0E"/><circle cy="104.593" cx="276.45" r="2" class="dot" fill="#FF7F0E"/><circle cy="71.646" cx="279.3" r="2" class="dot" fill="#FF7F0E"/><circle cy="102.154" cx="282.15" r="2" class="dot" fill="#FF7F0E"/><path class="regression" stroke-width="2" stroke="#1F77B4" d="M0 157.97h285"/><path class="regression" stroke-width="2" stroke="#FF7F0E" d="M0 93.928h285"/><g class="legend"><path fill="#1F77B4" d="M267 0h18v18h-18z"/><text dy=".35em" y="9" x="261" text-anchor="end">worker</text></g><g class="legend"><path fill="#FF7F0E" d="M267 20h18v18h-18z"/><text dy=".35em" y="9" x="261" text-anchor="end" transform="translate(0 20)">iframe</text></g></g></svg>