<svg xmlns="http://www.w3.org/2000/svg" height="240" width="320"><g font-size="12" font-family="Arial"><g class="x axis"><text dy=".71em" y="6" transform="translate(30 222)" lengthAdjust="spacingAndGlyphs" textLength="122.5">worker</text><text dy=".71em" y="6" transform="translate(152.5 222)" fill="grey" lengthAdjust="spacingAndGlyphs" textLength="122.5">iframe</text><g font-size="8"><g class="tick"><path d="M47.5 210v6"/><text y="9" dy=".71em" text-anchor="middle" transform="translate(47.5 210)">x</text></g><g class="tick"><path d="M77.5 210v6"/><text y="9" dy=".71em" text-anchor="middle" transform="translate(77.5 210)">M</text></g><g class="tick"><path d="M107.5 210v6"/><text y="9" dy=".71em" text-anchor="middle" transform="translate(107.5 210)">90%</text></g><g class="tick"><path d="M137.5 210v6"/><text y="9" dy=".71em" text-anchor="middle" transform="translate(137.5 210)">95%</text></g><g class="tick"><path d="M167.5 210v6"/><text y="9" dy=".71em" text-anchor="middle" transform="translate(167.5 210)">x</text></g><g class="tick"><path d="M197.5 210v6"/><text y="9" dy=".71em" text-anchor="middle" transform="translate(197.5 210)">M</text></g><g class="tick"><path d="M227.5 210v6"/><text y="9" dy=".71em" text-anchor="middle" transform="translate(227.5 210)">90%</text></g><g class="tick"><path d="M257.5 210v6"/><text y="9" dy=".71em" text-anchor="middle" transform="translate(257.5 210)">95%</text></g><path d="M30 216v-6h245v6" class="domain"/></g></g><g class="y axis"><text dy=".71em" y="6" transform="matrix(0 -1 1 0 30 5)" text-anchor="end">Time (ms)</text><g class="tick"><path d="M30 210h-6"/><text x="-9" dy=".32em" text-anchor="end" transform="translate(30 210)">0</text></g><g class="tick"><path d="M30 192.705h-6"/><text x="-9" dy=".32em" text-anchor="end" transform="translate(30 192.705)">10</text></g><g class="tick"><path d="M30 175.41h-6"/><text x="-9" dy=".32em" text-anchor="end" transform="translate(30 175.41)">20</text></g><g class="tick"><path d="M30 158.114h-6"/><text x="-9" dy=".32em" text-anchor="end" transform="translate(30 158.114)">30</text></g><g class="tick"><path d="M30 140.82h-6"/><text x="-9" dy=".32em" text-anchor="end" transform="translate(30 140.82)">40</text></g><g class="tick"><path d="M30 123.523h-6"/><text x="-9" dy=".32em" text-anchor="end" transform="translate(30 123.523)">50</text></g><g class="tick"><path d="M30 106.228h-6"/><text x="-9" dy=".32em" text-anchor="end" transform="translate(30 106.228)">60</text></g><g class="tick"><path d="M30 88.933h-6"/><text x="-9" dy=".32em" text-anchor="end" transform="translate(30 88.933)">70</text></g><g class="tick"><path d="M30 71.637h-6"/><text x="-9" dy=".32em" text-anchor="end" transform="translate(30 71.637)">80</text></g><g class="tick"><path d="M30 54.342h-6"/><text x="-9" dy=".32em" text-anchor="end" transform="translate(30 54.342)">90</text></g><g class="tick"><path d="M30 37.046h-6"/><text x="-9" dy=".32em" text-anchor="end" transform="translate(30 37.046)">100</text></g><g class="tick"><path d="M30 19.75h-6"/><text x="-9" dy=".32em" text-anchor="end" transform="translate(30 19.75)">110</text></g><path d="M24 5h6v205h-6" class="domain"/></g><path class="bar" fill="#1F77B4" d="M34 151.92h27V210H34z"/><path class="bar" fill="#FF7F0E" d="M64 153.23h27V210H64z"/><path class="bar" fill="#2CA02C" d="M94 145.83h27V210H94z"/><path class="bar" fill="#D62728" d="M124 142.356h27V210h-27z"/><path class="bar" fill="#1F77B4" d="M154 72.835h27V210h-27z"/><path class="bar" fill="#FF7F0E" d="M184 84.85h27V210h-27z"/><path class="bar" fill="#2CA02C" d="M214 31.075h27V210h-27z"/><path class="bar" fill="#D62728" d="M244 5h27v205h-27z"/><g class="caption"><g class="legend"><path fill="#1F77B4" d="M302 5h18v18h-18z"/><text dy=".35em" y="9" x="221" text-anchor="end" transform="translate(75 5)">x</text></g><g class="legend"><path fill="#FF7F0E" d="M302 25h18v18h-18z"/><text dy=".35em" y="9" x="221" text-anchor="end" transform="translate(75 25)">M</text></g><g class="legend"><path fill="#2CA02C" d="M302 45h18v18h-18z"/><text dy=".35em" y="9" x="221" text-anchor="end" transform="translate(75 45)">90%</text></g><g class="legend"><path fill="#D62728" d="M302 65h18v18h-18z"/><text dy=".35em" y="9" x="221" text-anchor="end" transform="translate(75 65)">95%</text></g></g></g></svg>