<svg xmlns="http://www.w3.org/2000/svg" width="512" height="512"><path d="M503.5 256c0 136.69-110.81 247.5-247.5 247.5S8.5 392.69 8.5 256 119.31 8.5 256 8.5 503.5 119.31 503.5 256z" fill="#4682bf"/><path d="M256 132.398c-68.64 0-124.283 55.643-124.283 124.283S187.36 380.964 256 380.964c68.64 0 124.283-55.643 124.283-124.282C380.283 188.04 324.64 132.4 256 132.4zm9.56 228.96v-9.075c0-5.285-4.276-9.56-9.56-9.56-5.284 0-9.56 4.275-9.56 9.56v9.075c-50.36-4.575-90.56-44.758-95.117-95.117h9.075c5.284 0 9.56-4.275 9.56-9.56 0-5.284-4.276-9.56-9.56-9.56h-9.075c4.556-50.36 44.758-90.56 95.117-95.116v9.075c0 5.283 4.276 9.56 9.56 9.56 5.284 0 9.56-4.277 9.56-9.56v-9.077c50.36 4.557 90.542 44.758 95.117 95.117h-9.075c-5.284 0-9.56 4.276-9.56 9.56 0 5.285 4.276 9.56 9.56 9.56h9.075c-4.575 50.36-44.758 90.543-95.117 95.118zm-38.24-257.64v-19.12c0-5.286 4.275-9.56 9.56-9.56h38.24c5.285 0 9.56 4.274 9.56 9.56v19.12c0 5.284-4.275 9.56-9.56 9.56v11.09c-6.273-.895-12.622-1.53-19.12-1.53-6.498 0-12.847.635-19.12 1.53v-11.09c-5.285 0-9.56-4.276-9.56-9.56zm111.155 47.763c-9.86-7.73-20.782-14.134-32.583-18.895.187-.448.224-.934.467-1.382l9.56-16.544c2.65-4.595 8.495-6.163 13.07-3.512l16.544 9.56c4.574 2.652 6.143 8.478 3.51 13.07l-9.56 16.545c-.262.467-.69.747-1.01 1.158zm.318 57.4c2.652 4.574 1.084 10.42-3.492 13.07l-74.52 43.003c-1.475.86-3.137 1.288-4.78 1.288-1.643 0-3.305-.43-4.78-1.287l-74.503-43.003c-4.594-2.652-6.162-8.496-3.51-13.07 2.652-4.575 8.496-6.143 13.07-3.51L256 245.644l69.74-40.276c4.594-2.615 10.44-1.046 13.053 3.51z" fill="#fff"/></svg>