<svg xmlns="http://www.w3.org/2000/svg" height="240" width="320"><g font-size="12" font-family="Arial"><g class="x axis"><text dy=".71em" y="6" transform="translate(30 222)" lengthAdjust="spacingAndGlyphs" textLength="61.25">Web message</text><text dy=".71em" y="6" transform="translate(91.25 222)" fill="grey" lengthAdjust="spacingAndGlyphs" textLength="61.25">Shared message</text><text dy=".71em" y="6" transform="translate(152.5 222)" lengthAdjust="spacingAndGlyphs" textLength="61.25">BC channel</text><text dy=".71em" y="6" transform="translate(213.75 222)" fill="grey" lengthAdjust="spacingAndGlyphs" textLength="61.25">threads</text><g font-size="8"><g class="tick"><path d="M40 210v6"/><text y="9" dy=".71em" text-anchor="middle" transform="translate(40 210)">x</text></g><g class="tick"><path d="M55 210v6"/><text y="9" dy=".71em" text-anchor="middle" transform="translate(55 210)">M</text></g><g class="tick"><path d="M70 210v6"/><text y="9" dy=".71em" text-anchor="middle" transform="translate(70 210)">90%</text></g><g class="tick"><path d="M85 210v6"/><text y="9" dy=".71em" text-anchor="middle" transform="translate(85 210)">95%</text></g><g class="tick"><path d="M100 210v6"/><text y="9" dy=".71em" text-anchor="middle" transform="translate(100 210)">x</text></g><g class="tick"><path d="M115 210v6"/><text y="9" dy=".71em" text-anchor="middle" transform="translate(115 210)">M</text></g><g class="tick"><path d="M130 210v6"/><text y="9" dy=".71em" text-anchor="middle" transform="translate(130 210)">90%</text></g><g class="tick"><path d="M145 210v6"/><text y="9" dy=".71em" text-anchor="middle" transform="translate(145 210)">95%</text></g><g class="tick"><path d="M160 210v6"/><text y="9" dy=".71em" text-anchor="middle" transform="translate(160 210)">x</text></g><g class="tick"><path d="M175 210v6"/><text y="9" dy=".71em" text-anchor="middle" transform="translate(175 210)">M</text></g><g class="tick"><path d="M190 210v6"/><text y="9" dy=".71em" text-anchor="middle" transform="translate(190 210)">90%</text></g><g class="tick"><path d="M205 210v6"/><text y="9" dy=".71em" text-anchor="middle" transform="translate(205 210)">95%</text></g><g class="tick"><path d="M220 210v6"/><text y="9" dy=".71em" text-anchor="middle" transform="translate(220 210)">x</text></g><g class="tick"><path d="M235 210v6"/><text y="9" dy=".71em" text-anchor="middle" transform="translate(235 210)">M</text></g><g class="tick"><path d="M250 210v6"/><text y="9" dy=".71em" text-anchor="middle" transform="translate(250 210)">90%</text></g><g class="tick"><path d="M265 210v6"/><text y="9" dy=".71em" text-anchor="middle" transform="translate(265 210)">95%</text></g><path d="M30 216v-6h245v6" class="domain"/></g></g><g class="y axis"><text dy=".71em" y="6" transform="matrix(0 -1 1 0 30 5)" text-anchor="end">Latency (ms)</text><g class="tick"><path d="M30 210h-6"/><text x="-9" dy=".32em" text-anchor="end" transform="translate(30 210)">0</text></g><g class="tick"><path d="M30 191.9h-6"/><text x="-9" dy=".32em" text-anchor="end" transform="translate(30 191.9)">1</text></g><g class="tick"><path d="M30 173.802h-6"/><text x="-9" dy=".32em" text-anchor="end" transform="translate(30 173.802)">2</text></g><g class="tick"><path d="M30 155.703h-6"/><text x="-9" dy=".32em" text-anchor="end" transform="translate(30 155.703)">3</text></g><g class="tick"><path d="M30 137.604h-6"/><text x="-9" dy=".32em" text-anchor="end" transform="translate(30 137.604)">4</text></g><g class="tick"><path d="M30 119.505h-6"/><text x="-9" dy=".32em" text-anchor="end" transform="translate(30 119.505)">5</text></g><g class="tick"><path d="M30 101.406h-6"/><text x="-9" dy=".32em" text-anchor="end" transform="translate(30 101.406)">6</text></g><g class="tick"><path d="M30 83.308h-6"/><text x="-9" dy=".32em" text-anchor="end" transform="translate(30 83.308)">7</text></g><g class="tick"><path d="M30 65.21h-6"/><text x="-9" dy=".32em" text-anchor="end" transform="translate(30 65.21)">8</text></g><g class="tick"><path d="M30 47.11h-6"/><text x="-9" dy=".32em" text-anchor="end" transform="translate(30 47.11)">9</text></g><g class="tick"><path d="M30 29.01h-6"/><text x="-9" dy=".32em" text-anchor="end" transform="translate(30 29.01)">10</text></g><g class="tick"><path d="M30 10.912h-6"/><text x="-9" dy=".32em" text-anchor="end" transform="translate(30 10.912)">11</text></g><path d="M24 5h6v205h-6" class="domain"/></g><path class="bar" fill="#1F77B4" d="M33 195.233h14V210H33z"/><path class="bar" fill="#FF7F0E" d="M48 202.194h14V210H48z"/><path class="bar" fill="#2CA02C" d="M63 195.457h14V210H63z"/><path class="bar" fill="#D62728" d="M78 173.658h14V210H78z"/><path class="bar" fill="#1F77B4" d="M93 201.125h14V210H93z"/><path class="bar" fill="#FF7F0E" d="M108 202.92h14V210h-14z"/><path class="bar" fill="#2CA02C" d="M123 198.922h14V210h-14z"/><path class="bar" fill="#D62728" d="M138 197.603h14V210h-14z"/><path class="bar" fill="#1F77B4" d="M153 173.46h14V210h-14z"/><path class="bar" fill="#FF7F0E" d="M168 181.177h14V210h-14z"/><path class="bar" fill="#2CA02C" d="M183 156.567h14V210h-14z"/><path class="bar" fill="#D62728" d="M198 139.16h14V210h-14z"/><path class="bar" fill="#1F77B4" d="M213 126.938h14V210h-14z"/><path class="bar" fill="#FF7F0E" d="M228 151.914h14V210h-14z"/><path class="bar" fill="#2CA02C" d="M243 34.926h14V210h-14z"/><path class="bar" fill="#D62728" d="M258 5h14v205h-14z"/><g class="caption"><g class="legend"><path fill="#1F77B4" d="M302 5h18v18h-18z"/><text dy=".35em" y="9" x="221" text-anchor="end" transform="translate(75 5)">x</text></g><g class="legend"><path fill="#FF7F0E" d="M302 25h18v18h-18z"/><text dy=".35em" y="9" x="221" text-anchor="end" transform="translate(75 25)">M</text></g><g class="legend"><path fill="#2CA02C" d="M302 45h18v18h-18z"/><text dy=".35em" y="9" x="221" text-anchor="end" transform="translate(75 45)">90%</text></g><g class="legend"><path fill="#D62728" d="M302 65h18v18h-18z"/><text dy=".35em" y="9" x="221" text-anchor="end" transform="translate(75 65)">95%</text></g></g></g></svg>