<svg xmlns="http://www.w3.org/2000/svg" height="240" width="320"><g transform="translate(30 5)" font-size="12" font-family="Arial"><g class="x axis"><text y="-6" x="285" text-anchor="end" transform="translate(0 205)">Measure</text><g class="tick"><path d="M0 205v6"/><text y="9" dy=".71em" text-anchor="middle" transform="translate(0 205)">0</text></g><g class="tick"><path d="M28.5 205v6"/><text y="9" dy=".71em" text-anchor="middle" transform="translate(28.5 205)">10</text></g><g class="tick"><path d="M57 205v6"/><text y="9" dy=".71em" text-anchor="middle" transform="translate(57 205)">20</text></g><g class="tick"><path d="M85.5 205v6"/><text y="9" dy=".71em" text-anchor="middle" transform="translate(85.5 205)">30</text></g><g class="tick"><path d="M114 205v6"/><text y="9" dy=".71em" text-anchor="middle" transform="translate(114 205)">40</text></g><g class="tick"><path d="M142.5 205v6"/><text y="9" dy=".71em" text-anchor="middle" transform="translate(142.5 205)">50</text></g><g class="tick"><path d="M171 205v6"/><text y="9" dy=".71em" text-anchor="middle" transform="translate(171 205)">60</text></g><g class="tick"><path d="M199.5 205v6"/><text y="9" dy=".71em" text-anchor="middle" transform="translate(199.5 205)">70</text></g><g class="tick"><path d="M228 205v6"/><text y="9" dy=".71em" text-anchor="middle" transform="translate(228 205)">80</text></g><g class="tick"><path d="M256.5 205v6"/><text y="9" dy=".71em" text-anchor="middle" transform="translate(256.5 205)">90</text></g><g class="tick"><path d="M285 205v6"/><text y="9" dy=".71em" text-anchor="middle" transform="translate(285 205)">100</text></g><path d="M0 211v-6h285v6" class="domain"/></g><g class="y axis"><text dy=".71em" y="6" transform="rotate(-90)" text-anchor="end">Latency (ms)</text><g class="tick"><path d="M0 205h-6"/><text x="-9" dy=".32em" text-anchor="end" transform="translate(0 205)">0</text></g><g class="tick"><path d="M0 175.082h-6"/><text x="-9" dy=".32em" text-anchor="end" transform="translate(0 175.082)">2</text></g><g class="tick"><path d="M0 145.163h-6"/><text x="-9" dy=".32em" text-anchor="end" transform="translate(0 145.163)">4</text></g><g class="tick"><path d="M0 115.245h-6"/><text x="-9" dy=".32em" text-anchor="end" transform="translate(0 115.245)">6</text></g><g class="tick"><path d="M0 85.327h-6"/><text x="-9" dy=".32em" text-anchor="end" transform="translate(0 85.327)">8</text></g><g class="tick"><path d="M0 55.408h-6"/><text x="-9" dy=".32em" text-anchor="end" transform="translate(0 55.408)">10</text></g><g class="tick"><path d="M0 25.49h-6"/><text x="-9" dy=".32em" text-anchor="end" transform="translate(0 25.49)">12</text></g><path d="M-6 0h6v205h-6" class="domain"/></g><circle cy="24.401" r="2" class="dot" fill="#1F77B4"/><circle cy="187.564" cx="2.85" r="2" class="dot" fill="#1F77B4"/><circle cy="188.875" cx="5.7" r="2" class="dot" fill="#1F77B4"/><circle cy="195.845" cx="8.55" r="2" class="dot" fill="#1F77B4"/><circle cy="198.166" cx="11.4" r="2" class="dot" fill="#1F77B4"/><circle cy="197.404" cx="14.25" r="2" class="dot" fill="#1F77B4"/><circle cy="198.123" cx="17.1" r="2" class="dot" fill="#1F77B4"/><circle cy="198.688" cx="19.95" r="2" class="dot" fill="#1F77B4"/><circle cy="198.848" cx="22.8" r="2" class="dot" fill="#1F77B4"/><circle cy="186.165" cx="25.65" r="2" class="dot" fill="#1F77B4"/><circle cy="195.83" cx="28.5" r="2" class="dot" fill="#1F77B4"/><circle cy="197.978" cx="31.35" r="2" class="dot" fill="#1F77B4"/><circle cy="198.825" cx="34.2" r="2" class="dot" fill="#1F77B4"/><circle cy="198.986" cx="37.05" r="2" class="dot" fill="#1F77B4"/><circle cy="199.01" cx="39.9" r="2" class="dot" fill="#1F77B4"/><circle cy="198.799" cx="42.75" r="2" class="dot" fill="#1F77B4"/><circle cy="199.03" cx="45.6" r="2" class="dot" fill="#1F77B4"/><circle cy="199.051" cx="48.45" r="2" class="dot" fill="#1F77B4"/><circle cy="199.305" cx="51.3" r="2" class="dot" fill="#1F77B4"/><circle cy="199.266" cx="54.15" r="2" class="dot" fill="#1F77B4"/><circle cy="199.155" cx="57" r="2" class="dot" fill="#1F77B4"/><circle cy="199.337" cx="59.85" r="2" class="dot" fill="#1F77B4"/><circle cy="199.206" cx="62.7" r="2" class="dot" fill="#1F77B4"/><circle cy="199.323" cx="65.55" r="2" class="dot" fill="#1F77B4"/><circle cy="199.147" cx="68.4" r="2" class="dot" fill="#1F77B4"/><circle cy="199.118" cx="71.25" r="2" class="dot" fill="#1F77B4"/><circle cy="199.146" cx="74.1" r="2" class="dot" fill="#1F77B4"/><circle cy="191.763" cx="76.95" r="2" class="dot" fill="#1F77B4"/><circle cy="192.933" cx="79.8" r="2" class="dot" fill="#1F77B4"/><circle cy="194.087" cx="82.65" r="2" class="dot" fill="#1F77B4"/><circle cy="195.836" cx="85.5" r="2" class="dot" fill="#1F77B4"/><circle cy="195.991" cx="88.35" r="2" class="dot" fill="#1F77B4"/><circle cy="198.522" cx="91.2" r="2" class="dot" fill="#1F77B4"/><circle cy="199.026" cx="94.05" r="2" class="dot" fill="#1F77B4"/><circle cy="199.238" cx="96.9" r="2" class="dot" fill="#1F77B4"/><circle cy="198.684" cx="99.75" r="2" class="dot" fill="#1F77B4"/><circle cy="198.293" cx="102.6" r="2" class="dot" fill="#1F77B4"/><circle cy="198.458" cx="105.45" r="2" class="dot" fill="#1F77B4"/><circle cy="198.855" cx="108.3" r="2" class="dot" fill="#1F77B4"/><circle cy="199.218" cx="111.15" r="2" class="dot" fill="#1F77B4"/><circle cy="199.271" cx="114" r="2" class="dot" fill="#1F77B4"/><circle cy="198.935" cx="116.85" r="2" class="dot" fill="#1F77B4"/><circle cy="199.257" cx="119.7" r="2" class="dot" fill="#1F77B4"/><circle cy="199.347" cx="122.55" r="2" class="dot" fill="#1F77B4"/><circle cy="198.54" cx="125.4" r="2" class="dot" fill="#1F77B4"/><circle cy="198.769" cx="128.25" r="2" class="dot" fill="#1F77B4"/><circle cy="198.674" cx="131.1" r="2" class="dot" fill="#1F77B4"/><circle cy="198.947" cx="133.95" r="2" class="dot" fill="#1F77B4"/><circle cy="199.237" cx="136.8" r="2" class="dot" fill="#1F77B4"/><circle cy="199.268" cx="139.65" r="2" class="dot" fill="#1F77B4"/><circle cy="199.31" cx="142.5" r="2" class="dot" fill="#1F77B4"/><circle cy="199.29" cx="145.35" r="2" class="dot" fill="#1F77B4"/><circle cy="197.118" cx="148.2" r="2" class="dot" fill="#1F77B4"/><circle cy="198.997" cx="151.05" r="2" class="dot" fill="#1F77B4"/><circle cy="195.376" cx="153.9" r="2" class="dot" fill="#1F77B4"/><circle cy="198.757" cx="156.75" r="2" class="dot" fill="#1F77B4"/><circle cy="199.109" cx="159.6" r="2" class="dot" fill="#1F77B4"/><circle cy="199.163" cx="162.45" r="2" class="dot" fill="#1F77B4"/><circle cy="199.236" cx="165.3" r="2" class="dot" fill="#1F77B4"/><circle cy="199.279" cx="168.15" r="2" class="dot" fill="#1F77B4"/><circle cy="199.225" cx="171" r="2" class="dot" fill="#1F77B4"/><circle cy="199.311" cx="173.85" r="2" class="dot" fill="#1F77B4"/><circle cy="191.598" cx="176.7" r="2" class="dot" fill="#1F77B4"/><circle cy="189.866" cx="179.55" r="2" class="dot" fill="#1F77B4"/><circle cy="196.213" cx="182.4" r="2" class="dot" fill="#1F77B4"/><circle cy="195.554" cx="185.25" r="2" class="dot" fill="#1F77B4"/><circle cy="198.081" cx="188.1" r="2" class="dot" fill="#1F77B4"/><circle cy="198.916" cx="190.95" r="2" class="dot" fill="#1F77B4"/><circle cy="199.1" cx="193.8" r="2" class="dot" fill="#1F77B4"/><circle cy="199.237" cx="196.65" r="2" class="dot" fill="#1F77B4"/><circle cy="198.061" cx="199.5" r="2" class="dot" fill="#1F77B4"/><circle cy="197.337" cx="202.35" r="2" class="dot" fill="#1F77B4"/><circle cy="198.914" cx="205.2" r="2" class="dot" fill="#1F77B4"/><circle cy="199.234" cx="208.05" r="2" class="dot" fill="#1F77B4"/><circle cy="199.302" cx="210.9" r="2" class="dot" fill="#1F77B4"/><circle cy="199.301" cx="213.75" r="2" class="dot" fill="#1F77B4"/><circle cy="198.883" cx="216.6" r="2" class="dot" fill="#1F77B4"/><circle cy="199.176" cx="219.45" r="2" class="dot" fill="#1F77B4"/><circle cy="198.994" cx="222.3" r="2" class="dot" fill="#1F77B4"/><circle cy="198.71" cx="225.15" r="2" class="dot" fill="#1F77B4"/><circle cy="198.783" cx="228" r="2" class="dot" fill="#1F77B4"/><circle cy="198.725" cx="230.85" r="2" class="dot" fill="#1F77B4"/><circle cy="199.182" cx="233.7" r="2" class="dot" fill="#1F77B4"/><circle cy="198.596" cx="236.55" r="2" class="dot" fill="#1F77B4"/><circle cy="198.839" cx="239.4" r="2" class="dot" fill="#1F77B4"/><circle cy="199.226" cx="242.25" r="2" class="dot" fill="#1F77B4"/><circle cy="199.245" cx="245.1" r="2" class="dot" fill="#1F77B4"/><circle cy="199.308" cx="247.95" r="2" class="dot" fill="#1F77B4"/><circle cy="199.298" cx="250.8" r="2" class="dot" fill="#1F77B4"/><circle cy="199.256" cx="253.65" r="2" class="dot" fill="#1F77B4"/><circle cy="199.325" cx="256.5" r="2" class="dot" fill="#1F77B4"/><circle cy="199.305" cx="259.35" r="2" class="dot" fill="#1F77B4"/><circle cy="199.338" cx="262.2" r="2" class="dot" fill="#1F77B4"/><circle cy="199.351" cx="265.05" r="2" class="dot" fill="#1F77B4"/><circle cy="199.362" cx="267.9" r="2" class="dot" fill="#1F77B4"/><circle cy="196.542" cx="270.75" r="2" class="dot" fill="#1F77B4"/><circle cy="197.641" cx="273.6" r="2" class="dot" fill="#1F77B4"/><circle cy="191.688" cx="276.45" r="2" class="dot" fill="#1F77B4"/><circle cy="190.328" cx="279.3" r="2" class="dot" fill="#1F77B4"/><circle cy="172.363" cx="282.15" r="2" class="dot" fill="#1F77B4"/><circle cy="182.834" r="2" class="dot" fill="#FF7F0E"/><circle cy="179.222" cx="2.85" r="2" class="dot" fill="#FF7F0E"/><circle cy="183.099" cx="5.7" r="2" class="dot" fill="#FF7F0E"/><circle cy="183.977" cx="8.55" r="2" class="dot" fill="#FF7F0E"/><circle cy="184.899" cx="11.4" r="2" class="dot" fill="#FF7F0E"/><circle cy="185.056" cx="14.25" r="2" class="dot" fill="#FF7F0E"/><circle cy="184.294" cx="17.1" r="2" class="dot" fill="#FF7F0E"/><circle cy="156.664" cx="19.95" r="2" class="dot" fill="#FF7F0E"/><circle cy="176.792" cx="22.8" r="2" class="dot" fill="#FF7F0E"/><circle cy="163.533" cx="25.65" r="2" class="dot" fill="#FF7F0E"/><circle cy="176.95" cx="28.5" r="2" class="dot" fill="#FF7F0E"/><circle cy="183.885" cx="31.35" r="2" class="dot" fill="#FF7F0E"/><circle cy="184.647" cx="34.2" r="2" class="dot" fill="#FF7F0E"/><circle cy="185.653" cx="37.05" r="2" class="dot" fill="#FF7F0E"/><circle cy="185.715" cx="39.9" r="2" class="dot" fill="#FF7F0E"/><circle cy="126.917" cx="42.75" r="2" class="dot" fill="#FF7F0E"/><circle cy="179.4" cx="45.6" r="2" class="dot" fill="#FF7F0E"/><circle cy="183.639" cx="48.45" r="2" class="dot" fill="#FF7F0E"/><circle cy="184.283" cx="51.3" r="2" class="dot" fill="#FF7F0E"/><circle cy="184.065" cx="54.15" r="2" class="dot" fill="#FF7F0E"/><circle cy="185.513" cx="57" r="2" class="dot" fill="#FF7F0E"/><circle cy="185.734" cx="59.85" r="2" class="dot" fill="#FF7F0E"/><circle cy="186.007" cx="62.7" r="2" class="dot" fill="#FF7F0E"/><circle cy="127.797" cx="65.55" r="2" class="dot" fill="#FF7F0E"/><circle cy="172.781" cx="68.4" r="2" class="dot" fill="#FF7F0E"/><circle cy="183.383" cx="71.25" r="2" class="dot" fill="#FF7F0E"/><circle cy="184.518" cx="74.1" r="2" class="dot" fill="#FF7F0E"/><circle cy="178.576" cx="76.95" r="2" class="dot" fill="#FF7F0E"/><circle cy="183.046" cx="79.8" r="2" class="dot" fill="#FF7F0E"/><circle cy="185.871" cx="82.65" r="2" class="dot" fill="#FF7F0E"/><circle cy="186.768" cx="85.5" r="2" class="dot" fill="#FF7F0E"/><circle cy="186.928" cx="88.35" r="2" class="dot" fill="#FF7F0E"/><circle cy="180.05" cx="91.2" r="2" class="dot" fill="#FF7F0E"/><circle cy="169.083" cx="94.05" r="2" class="dot" fill="#FF7F0E"/><circle cy="178.012" cx="96.9" r="2" class="dot" fill="#FF7F0E"/><circle cy="181.879" cx="99.75" r="2" class="dot" fill="#FF7F0E"/><circle cy="184.466" cx="102.6" r="2" class="dot" fill="#FF7F0E"/><circle cy="183.008" cx="105.45" r="2" class="dot" fill="#FF7F0E"/><circle cy="182.32" cx="108.3" r="2" class="dot" fill="#FF7F0E"/><circle cy="185.447" cx="111.15" r="2" class="dot" fill="#FF7F0E"/><circle cy="185.856" cx="114" r="2" class="dot" fill="#FF7F0E"/><circle cy="186.253" cx="116.85" r="2" class="dot" fill="#FF7F0E"/><circle cy="186.837" cx="119.7" r="2" class="dot" fill="#FF7F0E"/><circle cy="167.476" cx="122.55" r="2" class="dot" fill="#FF7F0E"/><circle cy="176.486" cx="125.4" r="2" class="dot" fill="#FF7F0E"/><circle cy="180.617" cx="128.25" r="2" class="dot" fill="#FF7F0E"/><circle cy="181.548" cx="131.1" r="2" class="dot" fill="#FF7F0E"/><circle cy="182.187" cx="133.95" r="2" class="dot" fill="#FF7F0E"/><circle cy="182.557" cx="136.8" r="2" class="dot" fill="#FF7F0E"/><circle cy="184.625" cx="139.65" r="2" class="dot" fill="#FF7F0E"/><circle cy="186.064" cx="142.5" r="2" class="dot" fill="#FF7F0E"/><circle cy="186.741" cx="145.35" r="2" class="dot" fill="#FF7F0E"/><circle cy="185.604" cx="148.2" r="2" class="dot" fill="#FF7F0E"/><circle cy="183.283" cx="151.05" r="2" class="dot" fill="#FF7F0E"/><circle cy="141.052" cx="153.9" r="2" class="dot" fill="#FF7F0E"/><circle cy="179.713" cx="156.75" r="2" class="dot" fill="#FF7F0E"/><circle cy="184.979" cx="159.6" r="2" class="dot" fill="#FF7F0E"/><circle cy="184.235" cx="162.45" r="2" class="dot" fill="#FF7F0E"/><circle cy="179.911" cx="165.3" r="2" class="dot" fill="#FF7F0E"/><circle cy="185.668" cx="168.15" r="2" class="dot" fill="#FF7F0E"/><circle cy="186.306" cx="171" r="2" class="dot" fill="#FF7F0E"/><circle cy="186.674" cx="173.85" r="2" class="dot" fill="#FF7F0E"/><circle cy="186.544" cx="176.7" r="2" class="dot" fill="#FF7F0E"/><circle cy="124.065" cx="179.55" r="2" class="dot" fill="#FF7F0E"/><circle cy="180.11" cx="182.4" r="2" class="dot" fill="#FF7F0E"/><circle cy="185.637" cx="185.25" r="2" class="dot" fill="#FF7F0E"/><circle cy="182.987" cx="188.1" r="2" class="dot" fill="#FF7F0E"/><circle cy="181.225" cx="190.95" r="2" class="dot" fill="#FF7F0E"/><circle cy="185.075" cx="193.8" r="2" class="dot" fill="#FF7F0E"/><circle cy="186.046" cx="196.65" r="2" class="dot" fill="#FF7F0E"/><circle cy="186.583" cx="199.5" r="2" class="dot" fill="#FF7F0E"/><circle cy="186.884" cx="202.35" r="2" class="dot" fill="#FF7F0E"/><circle cy="165.368" cx="205.2" r="2" class="dot" fill="#FF7F0E"/><circle cy="176.505" cx="208.05" r="2" class="dot" fill="#FF7F0E"/><circle cy="181.262" cx="210.9" r="2" class="dot" fill="#FF7F0E"/><circle cy="180.648" cx="213.75" r="2" class="dot" fill="#FF7F0E"/><circle cy="183.741" cx="216.6" r="2" class="dot" fill="#FF7F0E"/><circle cy="181.465" cx="219.45" r="2" class="dot" fill="#FF7F0E"/><circle cy="184.687" cx="222.3" r="2" class="dot" fill="#FF7F0E"/><circle cy="186.416" cx="225.15" r="2" class="dot" fill="#FF7F0E"/><circle cy="187.01" cx="228" r="2" class="dot" fill="#FF7F0E"/><circle cy="185.506" cx="230.85" r="2" class="dot" fill="#FF7F0E"/><circle cy="135.562" cx="233.7" r="2" class="dot" fill="#FF7F0E"/><circle cy="176.24" cx="236.55" r="2" class="dot" fill="#FF7F0E"/><circle cy="183.13" cx="239.4" r="2" class="dot" fill="#FF7F0E"/><circle cy="184.203" cx="242.25" r="2" class="dot" fill="#FF7F0E"/><circle cy="182.105" cx="245.1" r="2" class="dot" fill="#FF7F0E"/><circle cy="152.918" cx="247.95" r="2" class="dot" fill="#FF7F0E"/><circle cy="179.932" cx="250.8" r="2" class="dot" fill="#FF7F0E"/><circle cy="150.834" cx="253.65" r="2" class="dot" fill="#FF7F0E"/><circle cy="171.252" cx="256.5" r="2" class="dot" fill="#FF7F0E"/><circle cy="181.44" cx="259.35" r="2" class="dot" fill="#FF7F0E"/><circle cy="183.556" cx="262.2" r="2" class="dot" fill="#FF7F0E"/><circle cy="181.835" cx="265.05" r="2" class="dot" fill="#FF7F0E"/><circle cy="181.368" cx="267.9" r="2" class="dot" fill="#FF7F0E"/><circle cy="183.245" cx="270.75" r="2" class="dot" fill="#FF7F0E"/><circle cy="184.352" cx="273.6" r="2" class="dot" fill="#FF7F0E"/><circle cy="184.705" cx="276.45" r="2" class="dot" fill="#FF7F0E"/><circle cy="185.145" cx="279.3" r="2" class="dot" fill="#FF7F0E"/><circle cy="125.794" cx="282.15" r="2" class="dot" fill="#FF7F0E"/><circle cy="120.49" r="2" class="dot" fill="#2CA02C"/><circle cy="97.546" cx="2.85" r="2" class="dot" fill="#2CA02C"/><circle cy="143.973" cx="5.7" r="2" class="dot" fill="#2CA02C"/><circle cy="120.112" cx="8.55" r="2" class="dot" fill="#2CA02C"/><circle cy="125.025" cx="11.4" r="2" class="dot" fill="#2CA02C"/><circle cy="143.004" cx="14.25" r="2" class="dot" fill="#2CA02C"/><circle cy="152.021" cx="17.1" r="2" class="dot" fill="#2CA02C"/><circle cy="126.767" cx="19.95" r="2" class="dot" fill="#2CA02C"/><circle cy="140.073" cx="22.8" r="2" class="dot" fill="#2CA02C"/><circle cy="36.606" cx="25.65" r="2" class="dot" fill="#2CA02C"/><circle cy="133.197" cx="28.5" r="2" class="dot" fill="#2CA02C"/><circle cy="143.811" cx="31.35" r="2" class="dot" fill="#2CA02C"/><circle cy="146.861" cx="34.2" r="2" class="dot" fill="#2CA02C"/><circle cy="72.509" cx="37.05" r="2" class="dot" fill="#2CA02C"/><circle cy="144.901" cx="39.9" r="2" class="dot" fill="#2CA02C"/><circle cy="151.358" cx="42.75" r="2" class="dot" fill="#2CA02C"/><circle cy="119.766" cx="45.6" r="2" class="dot" fill="#2CA02C"/><circle cy="143.5" cx="48.45" r="2" class="dot" fill="#2CA02C"/><circle cy="150.943" cx="51.3" r="2" class="dot" fill="#2CA02C"/><circle cy="107.43" cx="54.15" r="2" class="dot" fill="#2CA02C"/><circle cy="145.631" cx="57" r="2" class="dot" fill="#2CA02C"/><circle cy="144.118" cx="59.85" r="2" class="dot" fill="#2CA02C"/><circle cy="154.154" cx="62.7" r="2" class="dot" fill="#2CA02C"/><circle cy="133.868" cx="65.55" r="2" class="dot" fill="#2CA02C"/><circle cy="136.88" cx="68.4" r="2" class="dot" fill="#2CA02C"/><circle cy="142.487" cx="71.25" r="2" class="dot" fill="#2CA02C"/><circle cy="145.961" cx="74.1" r="2" class="dot" fill="#2CA02C"/><circle cy="84.844" cx="76.95" r="2" class="dot" fill="#2CA02C"/><circle cy="152.422" cx="79.8" r="2" class="dot" fill="#2CA02C"/><circle cy="153.833" cx="82.65" r="2" class="dot" fill="#2CA02C"/><circle cy="90.686" cx="85.5" r="2" class="dot" fill="#2CA02C"/><circle cy="137.376" cx="88.35" r="2" class="dot" fill="#2CA02C"/><circle cy="149.05" cx="91.2" r="2" class="dot" fill="#2CA02C"/><circle cy="140.986" cx="94.05" r="2" class="dot" fill="#2CA02C"/><circle cy="123.06" cx="96.9" r="2" class="dot" fill="#2CA02C"/><circle cy="149.835" cx="99.75" r="2" class="dot" fill="#2CA02C"/><circle cy="153.505" cx="102.6" r="2" class="dot" fill="#2CA02C"/><circle cy=".037" cx="105.45" r="2" class="dot" fill="#2CA02C"/><circle cy="148.995" cx="108.3" r="2" class="dot" fill="#2CA02C"/><circle cy="31.869" cx="111.15" r="2" class="dot" fill="#2CA02C"/><circle cy="122.151" cx="114" r="2" class="dot" fill="#2CA02C"/><circle cx="116.85" r="2" class="dot" fill="#2CA02C"/><circle cy="139.896" cx="119.7" r="2" class="dot" fill="#2CA02C"/><circle cy="31.393" cx="122.55" r="2" class="dot" fill="#2CA02C"/><circle cy="147.79" cx="125.4" r="2" class="dot" fill="#2CA02C"/><circle cy="4.83" cx="128.25" r="2" class="dot" fill="#2CA02C"/><circle cy="150.391" cx="131.1" r="2" class="dot" fill="#2CA02C"/><circle cy="29.65" cx="133.95" r="2" class="dot" fill="#2CA02C"/><circle cy="149.291" cx="136.8" r="2" class="dot" fill="#2CA02C"/><circle cy="42.944" cx="139.65" r="2" class="dot" fill="#2CA02C"/><circle cy="145.011" cx="142.5" r="2" class="dot" fill="#2CA02C"/><circle cy="147.921" cx="145.35" r="2" class="dot" fill="#2CA02C"/><circle cy="46.161" cx="148.2" r="2" class="dot" fill="#2CA02C"/><circle cy="158.269" cx="151.05" r="2" class="dot" fill="#2CA02C"/><circle cy="57.957" cx="153.9" r="2" class="dot" fill="#2CA02C"/><circle cy="151.813" cx="156.75" r="2" class="dot" fill="#2CA02C"/><circle cy="156.744" cx="159.6" r="2" class="dot" fill="#2CA02C"/><circle cy="56.231" cx="162.45" r="2" class="dot" fill="#2CA02C"/><circle cy="151.744" cx="165.3" r="2" class="dot" fill="#2CA02C"/><circle cy="158.947" cx="168.15" r="2" class="dot" fill="#2CA02C"/><circle cy="57.644" cx="171" r="2" class="dot" fill="#2CA02C"/><circle cy="150.324" cx="173.85" r="2" class="dot" fill="#2CA02C"/><circle cy="158.28" cx="176.7" r="2" class="dot" fill="#2CA02C"/><circle cy="61.291" cx="179.55" r="2" class="dot" fill="#2CA02C"/><circle cy="152.193" cx="182.4" r="2" class="dot" fill="#2CA02C"/><circle cy="156.98" cx="185.25" r="2" class="dot" fill="#2CA02C"/><circle cy="31.415" cx="188.1" r="2" class="dot" fill="#2CA02C"/><circle cy="148.832" cx="190.95" r="2" class="dot" fill="#2CA02C"/><circle cy="156.855" cx="193.8" r="2" class="dot" fill="#2CA02C"/><circle cy="98.115" cx="196.65" r="2" class="dot" fill="#2CA02C"/><circle cy="155.016" cx="199.5" r="2" class="dot" fill="#2CA02C"/><circle cy="156.769" cx="202.35" r="2" class="dot" fill="#2CA02C"/><circle cy="123.143" cx="205.2" r="2" class="dot" fill="#2CA02C"/><circle cy="141.666" cx="208.05" r="2" class="dot" fill="#2CA02C"/><circle cy="156.97" cx="210.9" r="2" class="dot" fill="#2CA02C"/><circle cy="157.963" cx="213.75" r="2" class="dot" fill="#2CA02C"/><circle cy="159.949" cx="216.6" r="2" class="dot" fill="#2CA02C"/><circle cy="102.149" cx="219.45" r="2" class="dot" fill="#2CA02C"/><circle cy="158.037" cx="222.3" r="2" class="dot" fill="#2CA02C"/><circle cy="160.193" cx="225.15" r="2" class="dot" fill="#2CA02C"/><circle cy="158.496" cx="228" r="2" class="dot" fill="#2CA02C"/><circle cy="96.152" cx="230.85" r="2" class="dot" fill="#2CA02C"/><circle cy="156.356" cx="233.7" r="2" class="dot" fill="#2CA02C"/><circle cy="152.145" cx="236.55" r="2" class="dot" fill="#2CA02C"/><circle cy="95.612" cx="239.4" r="2" class="dot" fill="#2CA02C"/><circle cy="143.884" cx="242.25" r="2" class="dot" fill="#2CA02C"/><circle cy="158.587" cx="245.1" r="2" class="dot" fill="#2CA02C"/><circle cy="155.78" cx="247.95" r="2" class="dot" fill="#2CA02C"/><circle cy="148.406" cx="250.8" r="2" class="dot" fill="#2CA02C"/><circle cy="137.682" cx="253.65" r="2" class="dot" fill="#2CA02C"/><circle cy="158.782" cx="256.5" r="2" class="dot" fill="#2CA02C"/><circle cy="160.5" cx="259.35" r="2" class="dot" fill="#2CA02C"/><circle cy="160.909" cx="262.2" r="2" class="dot" fill="#2CA02C"/><circle cy="128.958" cx="265.05" r="2" class="dot" fill="#2CA02C"/><circle cy="149.53" cx="267.9" r="2" class="dot" fill="#2CA02C"/><circle cy="151.254" cx="270.75" r="2" class="dot" fill="#2CA02C"/><circle cy="155.386" cx="273.6" r="2" class="dot" fill="#2CA02C"/><circle cy="126.452" cx="276.45" r="2" class="dot" fill="#2CA02C"/><circle cy="139.61" cx="279.3" r="2" class="dot" fill="#2CA02C"/><circle cy="153.074" cx="282.15" r="2" class="dot" fill="#2CA02C"/><path class="regression" stroke-width="2" stroke="#1F77B4" d="M0 195.82h285"/><path class="regression" stroke-width="2" stroke="#FF7F0E" d="M0 178.368h285"/><path class="regression" stroke-width="2" stroke="#2CA02C" d="M0 126.2h285"/><g class="legend"><path fill="#1F77B4" d="M267 0h18v18h-18z"/><text dy=".35em" y="9" x="261" text-anchor="end">postMessage</text></g><g class="legend"><path fill="#FF7F0E" d="M267 20h18v18h-18z"/><text dy=".35em" y="9" x="261" text-anchor="end" transform="translate(0 20)">BC channel</text></g><g class="legend"><path fill="#2CA02C" d="M267 40h18v18h-18z"/><text dy=".35em" y="9" x="261" text-anchor="end" transform="translate(0 40)">threads</text></g></g></svg>