<svg xmlns="http://www.w3.org/2000/svg" height="240" width="320"><g transform="translate(30 5)" font-size="12" font-family="Arial"><g class="x axis"><text y="-6" x="285" text-anchor="end" transform="translate(0 205)">Measure</text><g class="tick"><path d="M0 205v6"/><text y="9" dy=".71em" text-anchor="middle" transform="translate(0 205)">0</text></g><g class="tick"><path d="M28.5 205v6"/><text y="9" dy=".71em" text-anchor="middle" transform="translate(28.5 205)">10</text></g><g class="tick"><path d="M57 205v6"/><text y="9" dy=".71em" text-anchor="middle" transform="translate(57 205)">20</text></g><g class="tick"><path d="M85.5 205v6"/><text y="9" dy=".71em" text-anchor="middle" transform="translate(85.5 205)">30</text></g><g class="tick"><path d="M114 205v6"/><text y="9" dy=".71em" text-anchor="middle" transform="translate(114 205)">40</text></g><g class="tick"><path d="M142.5 205v6"/><text y="9" dy=".71em" text-anchor="middle" transform="translate(142.5 205)">50</text></g><g class="tick"><path d="M171 205v6"/><text y="9" dy=".71em" text-anchor="middle" transform="translate(171 205)">60</text></g><g class="tick"><path d="M199.5 205v6"/><text y="9" dy=".71em" text-anchor="middle" transform="translate(199.5 205)">70</text></g><g class="tick"><path d="M228 205v6"/><text y="9" dy=".71em" text-anchor="middle" transform="translate(228 205)">80</text></g><g class="tick"><path d="M256.5 205v6"/><text y="9" dy=".71em" text-anchor="middle" transform="translate(256.5 205)">90</text></g><g class="tick"><path d="M285 205v6"/><text y="9" dy=".71em" text-anchor="middle" transform="translate(285 205)">100</text></g><path d="M0 211v-6h285v6" class="domain"/></g><g class="y axis"><text dy=".71em" y="6" transform="rotate(-90)" text-anchor="end">Latency (ms)</text><g class="tick"><path d="M0 205h-6"/><text x="-9" dy=".32em" text-anchor="end" transform="translate(0 205)">0</text></g><g class="tick"><path d="M0 181.924h-6"/><text x="-9" dy=".32em" text-anchor="end" transform="translate(0 181.924)">2</text></g><g class="tick"><path d="M0 158.847h-6"/><text x="-9" dy=".32em" text-anchor="end" transform="translate(0 158.847)">4</text></g><g class="tick"><path d="M0 135.77h-6"/><text x="-9" dy=".32em" text-anchor="end" transform="translate(0 135.77)">6</text></g><g class="tick"><path d="M0 112.695h-6"/><text x="-9" dy=".32em" text-anchor="end" transform="translate(0 112.695)">8</text></g><g class="tick"><path d="M0 89.618h-6"/><text x="-9" dy=".32em" text-anchor="end" transform="translate(0 89.618)">10</text></g><g class="tick"><path d="M0 66.542h-6"/><text x="-9" dy=".32em" text-anchor="end" transform="translate(0 66.542)">12</text></g><g class="tick"><path d="M0 43.466h-6"/><text x="-9" dy=".32em" text-anchor="end" transform="translate(0 43.466)">14</text></g><g class="tick"><path d="M0 20.39h-6"/><text x="-9" dy=".32em" text-anchor="end" transform="translate(0 20.39)">16</text></g><path d="M-6 0h6v205h-6" class="domain"/></g><circle cy="22.933" r="2" class="dot" fill="#1F77B4"/><circle cy="123.047" cx="2.85" r="2" class="dot" fill="#1F77B4"/><circle cy="200.098" cx="5.7" r="2" class="dot" fill="#1F77B4"/><circle cy="200.821" cx="8.55" r="2" class="dot" fill="#1F77B4"/><circle cy="201.369" cx="11.4" r="2" class="dot" fill="#1F77B4"/><circle cy="201.216" cx="14.25" r="2" class="dot" fill="#1F77B4"/><circle cy="201.906" cx="17.1" r="2" class="dot" fill="#1F77B4"/><circle cy="202.051" cx="19.95" r="2" class="dot" fill="#1F77B4"/><circle cy="201.877" cx="22.8" r="2" class="dot" fill="#1F77B4"/><circle cy="170.67" cx="25.65" r="2" class="dot" fill="#1F77B4"/><circle cy="196.221" cx="28.5" r="2" class="dot" fill="#1F77B4"/><circle cy="200.014" cx="31.35" r="2" class="dot" fill="#1F77B4"/><circle cy="200.581" cx="34.2" r="2" class="dot" fill="#1F77B4"/><circle cy="200.748" cx="37.05" r="2" class="dot" fill="#1F77B4"/><circle cy="200.805" cx="39.9" r="2" class="dot" fill="#1F77B4"/><circle cy="200.817" cx="42.75" r="2" class="dot" fill="#1F77B4"/><circle cy="200.415" cx="45.6" r="2" class="dot" fill="#1F77B4"/><circle cy="200.823" cx="48.45" r="2" class="dot" fill="#1F77B4"/><circle cy="200.409" cx="51.3" r="2" class="dot" fill="#1F77B4"/><circle cy="199.325" cx="54.15" r="2" class="dot" fill="#1F77B4"/><circle cy="200.347" cx="57" r="2" class="dot" fill="#1F77B4"/><circle cy="200.59" cx="59.85" r="2" class="dot" fill="#1F77B4"/><circle cy="200.736" cx="62.7" r="2" class="dot" fill="#1F77B4"/><circle cy="200.763" cx="65.55" r="2" class="dot" fill="#1F77B4"/><circle cy="200.712" cx="68.4" r="2" class="dot" fill="#1F77B4"/><circle cy="200.804" cx="71.25" r="2" class="dot" fill="#1F77B4"/><circle cy="200.827" cx="74.1" r="2" class="dot" fill="#1F77B4"/><circle cy="200.843" cx="76.95" r="2" class="dot" fill="#1F77B4"/><circle cy="200.825" cx="79.8" r="2" class="dot" fill="#1F77B4"/><circle cy="200.862" cx="82.65" r="2" class="dot" fill="#1F77B4"/><circle cy="200.782" cx="85.5" r="2" class="dot" fill="#1F77B4"/><circle cy="200.786" cx="88.35" r="2" class="dot" fill="#1F77B4"/><circle cy="200.856" cx="91.2" r="2" class="dot" fill="#1F77B4"/><circle cy="200.869" cx="94.05" r="2" class="dot" fill="#1F77B4"/><circle cy="200.838" cx="96.9" r="2" class="dot" fill="#1F77B4"/><circle cy="200.803" cx="99.75" r="2" class="dot" fill="#1F77B4"/><circle cy="200.835" cx="102.6" r="2" class="dot" fill="#1F77B4"/><circle cy="200.847" cx="105.45" r="2" class="dot" fill="#1F77B4"/><circle cy="200.84" cx="108.3" r="2" class="dot" fill="#1F77B4"/><circle cy="199.317" cx="111.15" r="2" class="dot" fill="#1F77B4"/><circle cy="200.363" cx="114" r="2" class="dot" fill="#1F77B4"/><circle cy="194.494" cx="116.85" r="2" class="dot" fill="#1F77B4"/><circle cy="194.134" cx="119.7" r="2" class="dot" fill="#1F77B4"/><circle cy="199.06" cx="122.55" r="2" class="dot" fill="#1F77B4"/><circle cy="97.55" cx="125.4" r="2" class="dot" fill="#1F77B4"/><circle cy="201.047" cx="128.25" r="2" class="dot" fill="#1F77B4"/><circle cy="202.466" cx="131.1" r="2" class="dot" fill="#1F77B4"/><circle cy="202.272" cx="133.95" r="2" class="dot" fill="#1F77B4"/><circle cy="202.514" cx="136.8" r="2" class="dot" fill="#1F77B4"/><circle cy="202.63" cx="139.65" r="2" class="dot" fill="#1F77B4"/><circle cy="201.853" cx="142.5" r="2" class="dot" fill="#1F77B4"/><circle cy="202.115" cx="145.35" r="2" class="dot" fill="#1F77B4"/><circle cy="202.312" cx="148.2" r="2" class="dot" fill="#1F77B4"/><circle cy="202.545" cx="151.05" r="2" class="dot" fill="#1F77B4"/><circle cy="202.617" cx="153.9" r="2" class="dot" fill="#1F77B4"/><circle cy="201.906" cx="156.75" r="2" class="dot" fill="#1F77B4"/><circle cy="164.791" cx="159.6" r="2" class="dot" fill="#1F77B4"/><circle cy="196.414" cx="162.45" r="2" class="dot" fill="#1F77B4"/><circle cy="193.202" cx="165.3" r="2" class="dot" fill="#1F77B4"/><circle cy="197.06" cx="168.15" r="2" class="dot" fill="#1F77B4"/><circle cy="198.313" cx="171" r="2" class="dot" fill="#1F77B4"/><circle cy="197.393" cx="173.85" r="2" class="dot" fill="#1F77B4"/><circle cy="198.397" cx="176.7" r="2" class="dot" fill="#1F77B4"/><circle cy="198.406" cx="179.55" r="2" class="dot" fill="#1F77B4"/><circle cy="198.48" cx="182.4" r="2" class="dot" fill="#1F77B4"/><circle cy="198.245" cx="185.25" r="2" class="dot" fill="#1F77B4"/><circle cy="198.44" cx="188.1" r="2" class="dot" fill="#1F77B4"/><circle cy="198.432" cx="190.95" r="2" class="dot" fill="#1F77B4"/><circle cy="199.415" cx="193.8" r="2" class="dot" fill="#1F77B4"/><circle cy="199.323" cx="196.65" r="2" class="dot" fill="#1F77B4"/><circle cy="198.288" cx="199.5" r="2" class="dot" fill="#1F77B4"/><circle cy="199.432" cx="202.35" r="2" class="dot" fill="#1F77B4"/><circle cy="199.822" cx="205.2" r="2" class="dot" fill="#1F77B4"/><circle cy="199.93" cx="208.05" r="2" class="dot" fill="#1F77B4"/><circle cy="200.057" cx="210.9" r="2" class="dot" fill="#1F77B4"/><circle cy="200.057" cx="213.75" r="2" class="dot" fill="#1F77B4"/><circle cy="200.066" cx="216.6" r="2" class="dot" fill="#1F77B4"/><circle cy="200.025" cx="219.45" r="2" class="dot" fill="#1F77B4"/><circle cy="200.037" cx="222.3" r="2" class="dot" fill="#1F77B4"/><circle cy="199.441" cx="225.15" r="2" class="dot" fill="#1F77B4"/><circle cy="199.626" cx="228" r="2" class="dot" fill="#1F77B4"/><circle cy="199.887" cx="230.85" r="2" class="dot" fill="#1F77B4"/><circle cy="200.022" cx="233.7" r="2" class="dot" fill="#1F77B4"/><circle cy="199.944" cx="236.55" r="2" class="dot" fill="#1F77B4"/><circle cy="198.729" cx="239.4" r="2" class="dot" fill="#1F77B4"/><circle cy="195.236" cx="242.25" r="2" class="dot" fill="#1F77B4"/><circle cy="197.426" cx="245.1" r="2" class="dot" fill="#1F77B4"/><circle cy="192.994" cx="247.95" r="2" class="dot" fill="#1F77B4"/><circle cy="198.635" cx="250.8" r="2" class="dot" fill="#1F77B4"/><circle cy="199.627" cx="253.65" r="2" class="dot" fill="#1F77B4"/><circle cy="199.529" cx="256.5" r="2" class="dot" fill="#1F77B4"/><circle cy="198.802" cx="259.35" r="2" class="dot" fill="#1F77B4"/><circle cy="199.588" cx="262.2" r="2" class="dot" fill="#1F77B4"/><circle cy="199.934" cx="265.05" r="2" class="dot" fill="#1F77B4"/><circle cy="200.005" cx="267.9" r="2" class="dot" fill="#1F77B4"/><circle cy="199.971" cx="270.75" r="2" class="dot" fill="#1F77B4"/><circle cy="199.79" cx="273.6" r="2" class="dot" fill="#1F77B4"/><circle cy="199.96" cx="276.45" r="2" class="dot" fill="#1F77B4"/><circle cy="198.936" cx="279.3" r="2" class="dot" fill="#1F77B4"/><circle cy="196.362" cx="282.15" r="2" class="dot" fill="#1F77B4"/><circle cy="201.602" r="2" class="dot" fill="#FF7F0E"/><circle cy="201.793" cx="2.85" r="2" class="dot" fill="#FF7F0E"/><circle cy="201.707" cx="5.7" r="2" class="dot" fill="#FF7F0E"/><circle cy="201.88" cx="8.55" r="2" class="dot" fill="#FF7F0E"/><circle cy="201.415" cx="11.4" r="2" class="dot" fill="#FF7F0E"/><circle cy="201.796" cx="14.25" r="2" class="dot" fill="#FF7F0E"/><circle cy="201.838" cx="17.1" r="2" class="dot" fill="#FF7F0E"/><circle cy="201.439" cx="19.95" r="2" class="dot" fill="#FF7F0E"/><circle cy="201.574" cx="22.8" r="2" class="dot" fill="#FF7F0E"/><circle cy="187.23" cx="25.65" r="2" class="dot" fill="#FF7F0E"/><circle cy="200.856" cx="28.5" r="2" class="dot" fill="#FF7F0E"/><circle cy="201.832" cx="31.35" r="2" class="dot" fill="#FF7F0E"/><circle cy="201.98" cx="34.2" r="2" class="dot" fill="#FF7F0E"/><circle cy="201.247" cx="37.05" r="2" class="dot" fill="#FF7F0E"/><circle cy="159.931" cx="39.9" r="2" class="dot" fill="#FF7F0E"/><circle cy="200.874" cx="42.75" r="2" class="dot" fill="#FF7F0E"/><circle cy="201.676" cx="45.6" r="2" class="dot" fill="#FF7F0E"/><circle cy="198.102" cx="48.45" r="2" class="dot" fill="#FF7F0E"/><circle cy="198.47" cx="51.3" r="2" class="dot" fill="#FF7F0E"/><circle cy="199.436" cx="54.15" r="2" class="dot" fill="#FF7F0E"/><circle cy="199.832" cx="57" r="2" class="dot" fill="#FF7F0E"/><circle cy="199.951" cx="59.85" r="2" class="dot" fill="#FF7F0E"/><circle cy="199.652" cx="62.7" r="2" class="dot" fill="#FF7F0E"/><circle cy="199.724" cx="65.55" r="2" class="dot" fill="#FF7F0E"/><circle cy="199.954" cx="68.4" r="2" class="dot" fill="#FF7F0E"/><circle cy="199.283" cx="71.25" r="2" class="dot" fill="#FF7F0E"/><circle cy="199.697" cx="74.1" r="2" class="dot" fill="#FF7F0E"/><circle cy="199.549" cx="76.95" r="2" class="dot" fill="#FF7F0E"/><circle cy="199.828" cx="79.8" r="2" class="dot" fill="#FF7F0E"/><circle cy="199.751" cx="82.65" r="2" class="dot" fill="#FF7F0E"/><circle cy="199.08" cx="85.5" r="2" class="dot" fill="#FF7F0E"/><circle cy="199.483" cx="88.35" r="2" class="dot" fill="#FF7F0E"/><circle cy="199.816" cx="91.2" r="2" class="dot" fill="#FF7F0E"/><circle cy="199.906" cx="94.05" r="2" class="dot" fill="#FF7F0E"/><circle cy="199.959" cx="96.9" r="2" class="dot" fill="#FF7F0E"/><circle cy="199.979" cx="99.75" r="2" class="dot" fill="#FF7F0E"/><circle cy="199.944" cx="102.6" r="2" class="dot" fill="#FF7F0E"/><circle cy="199.931" cx="105.45" r="2" class="dot" fill="#FF7F0E"/><circle cy="199.949" cx="108.3" r="2" class="dot" fill="#FF7F0E"/><circle cy="199.463" cx="111.15" r="2" class="dot" fill="#FF7F0E"/><circle cy="199.852" cx="114" r="2" class="dot" fill="#FF7F0E"/><circle cy="199.899" cx="116.85" r="2" class="dot" fill="#FF7F0E"/><circle cy="198.535" cx="119.7" r="2" class="dot" fill="#FF7F0E"/><circle cy="197.776" cx="122.55" r="2" class="dot" fill="#FF7F0E"/><circle cy="197.376" cx="125.4" r="2" class="dot" fill="#FF7F0E"/><circle cy="193.796" cx="128.25" r="2" class="dot" fill="#FF7F0E"/><circle cy="170.075" cx="131.1" r="2" class="dot" fill="#FF7F0E"/><circle cy="197.855" cx="133.95" r="2" class="dot" fill="#FF7F0E"/><circle cy="200.703" cx="136.8" r="2" class="dot" fill="#FF7F0E"/><circle cy="200.63" cx="139.65" r="2" class="dot" fill="#FF7F0E"/><circle cy="200.206" cx="142.5" r="2" class="dot" fill="#FF7F0E"/><circle cy="200.787" cx="145.35" r="2" class="dot" fill="#FF7F0E"/><circle cy="200.822" cx="148.2" r="2" class="dot" fill="#FF7F0E"/><circle cy="200.276" cx="151.05" r="2" class="dot" fill="#FF7F0E"/><circle cy="200.542" cx="153.9" r="2" class="dot" fill="#FF7F0E"/><circle cy="200.376" cx="156.75" r="2" class="dot" fill="#FF7F0E"/><circle cy="200.638" cx="159.6" r="2" class="dot" fill="#FF7F0E"/><circle cy="200.73" cx="162.45" r="2" class="dot" fill="#FF7F0E"/><circle cy="200.787" cx="165.3" r="2" class="dot" fill="#FF7F0E"/><circle cy="200.781" cx="168.15" r="2" class="dot" fill="#FF7F0E"/><circle cy="200.801" cx="171" r="2" class="dot" fill="#FF7F0E"/><circle cy="200.792" cx="173.85" r="2" class="dot" fill="#FF7F0E"/><circle cy="200.751" cx="176.7" r="2" class="dot" fill="#FF7F0E"/><circle cy="200.799" cx="179.55" r="2" class="dot" fill="#FF7F0E"/><circle cy="200.811" cx="182.4" r="2" class="dot" fill="#FF7F0E"/><circle cy="200.871" cx="185.25" r="2" class="dot" fill="#FF7F0E"/><circle cy="200.849" cx="188.1" r="2" class="dot" fill="#FF7F0E"/><circle cy="200.817" cx="190.95" r="2" class="dot" fill="#FF7F0E"/><circle cy="200.179" cx="193.8" r="2" class="dot" fill="#FF7F0E"/><circle cy="200.509" cx="196.65" r="2" class="dot" fill="#FF7F0E"/><circle cy="200.713" cx="199.5" r="2" class="dot" fill="#FF7F0E"/><circle cy="200.834" cx="202.35" r="2" class="dot" fill="#FF7F0E"/><circle cy="200.798" cx="205.2" r="2" class="dot" fill="#FF7F0E"/><circle cy="197.387" cx="208.05" r="2" class="dot" fill="#FF7F0E"/><circle cy="196.818" cx="210.9" r="2" class="dot" fill="#FF7F0E"/><circle cy="197.998" cx="213.75" r="2" class="dot" fill="#FF7F0E"/><circle cy="199.461" cx="216.6" r="2" class="dot" fill="#FF7F0E"/><circle cy="197.878" cx="219.45" r="2" class="dot" fill="#FF7F0E"/><circle cy="199.892" cx="222.3" r="2" class="dot" fill="#FF7F0E"/><circle cy="200.595" cx="225.15" r="2" class="dot" fill="#FF7F0E"/><circle cy="200.696" cx="228" r="2" class="dot" fill="#FF7F0E"/><circle cy="200.804" cx="230.85" r="2" class="dot" fill="#FF7F0E"/><circle cy="200.65" cx="233.7" r="2" class="dot" fill="#FF7F0E"/><circle cy="200.114" cx="236.55" r="2" class="dot" fill="#FF7F0E"/><circle cy="200.562" cx="239.4" r="2" class="dot" fill="#FF7F0E"/><circle cy="200.231" cx="242.25" r="2" class="dot" fill="#FF7F0E"/><circle cy="200.413" cx="245.1" r="2" class="dot" fill="#FF7F0E"/><circle cy="200.745" cx="247.95" r="2" class="dot" fill="#FF7F0E"/><circle cy="200.71" cx="250.8" r="2" class="dot" fill="#FF7F0E"/><circle cy="200.524" cx="253.65" r="2" class="dot" fill="#FF7F0E"/><circle cy="199.531" cx="256.5" r="2" class="dot" fill="#FF7F0E"/><circle cy="200.353" cx="259.35" r="2" class="dot" fill="#FF7F0E"/><circle cy="200.463" cx="262.2" r="2" class="dot" fill="#FF7F0E"/><circle cy="200.436" cx="265.05" r="2" class="dot" fill="#FF7F0E"/><circle cy="200.561" cx="267.9" r="2" class="dot" fill="#FF7F0E"/><circle cy="200.657" cx="270.75" r="2" class="dot" fill="#FF7F0E"/><circle cy="200.84" cx="273.6" r="2" class="dot" fill="#FF7F0E"/><circle cy="200.792" cx="276.45" r="2" class="dot" fill="#FF7F0E"/><circle cy="200.815" cx="279.3" r="2" class="dot" fill="#FF7F0E"/><circle cy="200.907" cx="282.15" r="2" class="dot" fill="#FF7F0E"/><circle cy="189.389" r="2" class="dot" fill="#2CA02C"/><circle cy="165.96" cx="2.85" r="2" class="dot" fill="#2CA02C"/><circle cy="179.9" cx="5.7" r="2" class="dot" fill="#2CA02C"/><circle cy="185.283" cx="8.55" r="2" class="dot" fill="#2CA02C"/><circle cy="188.456" cx="11.4" r="2" class="dot" fill="#2CA02C"/><circle cy="188.296" cx="14.25" r="2" class="dot" fill="#2CA02C"/><circle cy="189.228" cx="17.1" r="2" class="dot" fill="#2CA02C"/><circle cy="188.758" cx="19.95" r="2" class="dot" fill="#2CA02C"/><circle cy="184.174" cx="22.8" r="2" class="dot" fill="#2CA02C"/><circle cy="171.451" cx="25.65" r="2" class="dot" fill="#2CA02C"/><circle cy="172.913" cx="28.5" r="2" class="dot" fill="#2CA02C"/><circle cy="184.152" cx="31.35" r="2" class="dot" fill="#2CA02C"/><circle cy="187.564" cx="34.2" r="2" class="dot" fill="#2CA02C"/><circle cy="189.394" cx="37.05" r="2" class="dot" fill="#2CA02C"/><circle cy="188.717" cx="39.9" r="2" class="dot" fill="#2CA02C"/><circle cy="190.128" cx="42.75" r="2" class="dot" fill="#2CA02C"/><circle cy="190.958" cx="45.6" r="2" class="dot" fill="#2CA02C"/><circle cy="191.059" cx="48.45" r="2" class="dot" fill="#2CA02C"/><circle cy="191.205" cx="51.3" r="2" class="dot" fill="#2CA02C"/><circle cy="190.123" cx="54.15" r="2" class="dot" fill="#2CA02C"/><circle cy="154.366" cx="57" r="2" class="dot" fill="#2CA02C"/><circle cy="187.204" cx="59.85" r="2" class="dot" fill="#2CA02C"/><circle cy="189.574" cx="62.7" r="2" class="dot" fill="#2CA02C"/><circle cy="187.974" cx="65.55" r="2" class="dot" fill="#2CA02C"/><circle cy="188.101" cx="68.4" r="2" class="dot" fill="#2CA02C"/><circle cy="188.97" cx="71.25" r="2" class="dot" fill="#2CA02C"/><circle cy="189.372" cx="74.1" r="2" class="dot" fill="#2CA02C"/><circle cy="189.028" cx="76.95" r="2" class="dot" fill="#2CA02C"/><circle cy="190.229" cx="79.8" r="2" class="dot" fill="#2CA02C"/><circle cy="191.148" cx="82.65" r="2" class="dot" fill="#2CA02C"/><circle cy="177.283" cx="85.5" r="2" class="dot" fill="#2CA02C"/><circle cy="184.138" cx="88.35" r="2" class="dot" fill="#2CA02C"/><circle cy="185.412" cx="91.2" r="2" class="dot" fill="#2CA02C"/><circle cy="186.856" cx="94.05" r="2" class="dot" fill="#2CA02C"/><circle cy="187.198" cx="96.9" r="2" class="dot" fill="#2CA02C"/><circle cy="188.758" cx="99.75" r="2" class="dot" fill="#2CA02C"/><circle cy="189.758" cx="102.6" r="2" class="dot" fill="#2CA02C"/><circle cy="190.449" cx="105.45" r="2" class="dot" fill="#2CA02C"/><circle cy="190.653" cx="108.3" r="2" class="dot" fill="#2CA02C"/><circle cy="191.219" cx="111.15" r="2" class="dot" fill="#2CA02C"/><circle cy="191.103" cx="114" r="2" class="dot" fill="#2CA02C"/><circle cy="181.674" cx="116.85" r="2" class="dot" fill="#2CA02C"/><circle cy="185.943" cx="119.7" r="2" class="dot" fill="#2CA02C"/><circle cy="187.455" cx="122.55" r="2" class="dot" fill="#2CA02C"/><circle cy="187.699" cx="125.4" r="2" class="dot" fill="#2CA02C"/><circle cy="188.756" cx="128.25" r="2" class="dot" fill="#2CA02C"/><circle cy="157.811" cx="131.1" r="2" class="dot" fill="#2CA02C"/><circle cy="188.317" cx="133.95" r="2" class="dot" fill="#2CA02C"/><circle cy="187.774" cx="136.8" r="2" class="dot" fill="#2CA02C"/><circle cy="182.536" cx="139.65" r="2" class="dot" fill="#2CA02C"/><circle cy="174.487" cx="142.5" r="2" class="dot" fill="#2CA02C"/><circle cy="187.059" cx="145.35" r="2" class="dot" fill="#2CA02C"/><circle cy="187.291" cx="148.2" r="2" class="dot" fill="#2CA02C"/><circle cy="187.147" cx="151.05" r="2" class="dot" fill="#2CA02C"/><circle cy="187.02" cx="153.9" r="2" class="dot" fill="#2CA02C"/><circle cy="188.269" cx="156.75" r="2" class="dot" fill="#2CA02C"/><circle cy="188.392" cx="159.6" r="2" class="dot" fill="#2CA02C"/><circle cy="189.218" cx="162.45" r="2" class="dot" fill="#2CA02C"/><circle cy="189.033" cx="165.3" r="2" class="dot" fill="#2CA02C"/><circle cy="186.973" cx="168.15" r="2" class="dot" fill="#2CA02C"/><circle cy="170.959" cx="171" r="2" class="dot" fill="#2CA02C"/><circle cy="187.425" cx="173.85" r="2" class="dot" fill="#2CA02C"/><circle cy="185.12" cx="176.7" r="2" class="dot" fill="#2CA02C"/><circle cy="189.033" cx="179.55" r="2" class="dot" fill="#2CA02C"/><circle cy="187.677" cx="182.4" r="2" class="dot" fill="#2CA02C"/><circle cy="186.719" cx="185.25" r="2" class="dot" fill="#2CA02C"/><circle cy="186.157" cx="188.1" r="2" class="dot" fill="#2CA02C"/><circle cy="186.531" cx="190.95" r="2" class="dot" fill="#2CA02C"/><circle cy="188.75" cx="193.8" r="2" class="dot" fill="#2CA02C"/><circle cy="179.77" cx="196.65" r="2" class="dot" fill="#2CA02C"/><circle cy="181.959" cx="199.5" r="2" class="dot" fill="#2CA02C"/><circle cy="186.897" cx="202.35" r="2" class="dot" fill="#2CA02C"/><circle cy="183.452" cx="205.2" r="2" class="dot" fill="#2CA02C"/><circle cy="172.882" cx="208.05" r="2" class="dot" fill="#2CA02C"/><circle cy="177.163" cx="210.9" r="2" class="dot" fill="#2CA02C"/><circle cy="168.862" cx="213.75" r="2" class="dot" fill="#2CA02C"/><circle cy="170.583" cx="216.6" r="2" class="dot" fill="#2CA02C"/><circle cy="175.98" cx="219.45" r="2" class="dot" fill="#2CA02C"/><circle cy="153.054" cx="222.3" r="2" class="dot" fill="#2CA02C"/><circle cy="161.867" cx="225.15" r="2" class="dot" fill="#2CA02C"/><circle cy="156.892" cx="228" r="2" class="dot" fill="#2CA02C"/><circle cy="170.932" cx="230.85" r="2" class="dot" fill="#2CA02C"/><circle cy="176.073" cx="233.7" r="2" class="dot" fill="#2CA02C"/><circle cy="175.289" cx="236.55" r="2" class="dot" fill="#2CA02C"/><circle cy="174.528" cx="239.4" r="2" class="dot" fill="#2CA02C"/><circle cy="179.07" cx="242.25" r="2" class="dot" fill="#2CA02C"/><circle cy="177.804" cx="245.1" r="2" class="dot" fill="#2CA02C"/><circle cy="172.178" cx="247.95" r="2" class="dot" fill="#2CA02C"/><circle cy="174.931" cx="250.8" r="2" class="dot" fill="#2CA02C"/><circle cy="170.941" cx="253.65" r="2" class="dot" fill="#2CA02C"/><circle cy="176.144" cx="256.5" r="2" class="dot" fill="#2CA02C"/><circle cy="176.329" cx="259.35" r="2" class="dot" fill="#2CA02C"/><circle cy="178.129" cx="262.2" r="2" class="dot" fill="#2CA02C"/><circle cy="127.304" cx="265.05" r="2" class="dot" fill="#2CA02C"/><circle cy="173.454" cx="267.9" r="2" class="dot" fill="#2CA02C"/><circle cy="179.325" cx="270.75" r="2" class="dot" fill="#2CA02C"/><circle cy="180.261" cx="273.6" r="2" class="dot" fill="#2CA02C"/><circle cy="181.008" cx="276.45" r="2" class="dot" fill="#2CA02C"/><circle cy="178.02" cx="279.3" r="2" class="dot" fill="#2CA02C"/><circle cy="172.347" cx="282.15" r="2" class="dot" fill="#2CA02C"/><circle cy="150.414" r="2" class="dot" fill="#D62728"/><circle cy="127.804" cx="2.85" r="2" class="dot" fill="#D62728"/><circle cy="152.411" cx="5.7" r="2" class="dot" fill="#D62728"/><circle cy="157.418" cx="8.55" r="2" class="dot" fill="#D62728"/><circle cy="88.85" cx="11.4" r="2" class="dot" fill="#D62728"/><circle cy="169.266" cx="14.25" r="2" class="dot" fill="#D62728"/><circle cy="171.038" cx="17.1" r="2" class="dot" fill="#D62728"/><circle cy="161.362" cx="19.95" r="2" class="dot" fill="#D62728"/><circle cy="150.609" cx="22.8" r="2" class="dot" fill="#D62728"/><circle cx="25.65" r="2" class="dot" fill="#D62728"/><circle cy="165.637" cx="28.5" r="2" class="dot" fill="#D62728"/><circle cy="172.261" cx="31.35" r="2" class="dot" fill="#D62728"/><circle cy="131.694" cx="34.2" r="2" class="dot" fill="#D62728"/><circle cy="164.578" cx="37.05" r="2" class="dot" fill="#D62728"/><circle cy="168.649" cx="39.9" r="2" class="dot" fill="#D62728"/><circle cy="171.399" cx="42.75" r="2" class="dot" fill="#D62728"/><circle cy="170.396" cx="45.6" r="2" class="dot" fill="#D62728"/><circle cy="146.934" cx="48.45" r="2" class="dot" fill="#D62728"/><circle cy="165.893" cx="51.3" r="2" class="dot" fill="#D62728"/><circle cy="150.434" cx="54.15" r="2" class="dot" fill="#D62728"/><circle cy="164.44" cx="57" r="2" class="dot" fill="#D62728"/><circle cy="154.091" cx="59.85" r="2" class="dot" fill="#D62728"/><circle cy="169.861" cx="62.7" r="2" class="dot" fill="#D62728"/><circle cy="174.394" cx="65.55" r="2" class="dot" fill="#D62728"/><circle cy="156.557" cx="68.4" r="2" class="dot" fill="#D62728"/><circle cy="75.2" cx="71.25" r="2" class="dot" fill="#D62728"/><circle cy="170.048" cx="74.1" r="2" class="dot" fill="#D62728"/><circle cy="173.962" cx="76.95" r="2" class="dot" fill="#D62728"/><circle cy="73.423" cx="79.8" r="2" class="dot" fill="#D62728"/><circle cy="149.292" cx="82.65" r="2" class="dot" fill="#D62728"/><circle cy="87.222" cx="85.5" r="2" class="dot" fill="#D62728"/><circle cy="167.402" cx="88.35" r="2" class="dot" fill="#D62728"/><circle cy="171.609" cx="91.2" r="2" class="dot" fill="#D62728"/><circle cy="94.25" cx="94.05" r="2" class="dot" fill="#D62728"/><circle cy="166.648" cx="96.9" r="2" class="dot" fill="#D62728"/><circle cy="171.354" cx="99.75" r="2" class="dot" fill="#D62728"/><circle cy="170.099" cx="102.6" r="2" class="dot" fill="#D62728"/><circle cy="95.679" cx="105.45" r="2" class="dot" fill="#D62728"/><circle cy="170.761" cx="108.3" r="2" class="dot" fill="#D62728"/><circle cy="174.145" cx="111.15" r="2" class="dot" fill="#D62728"/><circle cy="67.002" cx="114" r="2" class="dot" fill="#D62728"/><circle cy="141.974" cx="116.85" r="2" class="dot" fill="#D62728"/><circle cy="70.09" cx="119.7" r="2" class="dot" fill="#D62728"/><circle cy="171.858" cx="122.55" r="2" class="dot" fill="#D62728"/><circle cy="169.295" cx="125.4" r="2" class="dot" fill="#D62728"/><circle cy="96.232" cx="128.25" r="2" class="dot" fill="#D62728"/><circle cy="170.433" cx="131.1" r="2" class="dot" fill="#D62728"/><circle cy="173.48" cx="133.95" r="2" class="dot" fill="#D62728"/><circle cy="92.529" cx="136.8" r="2" class="dot" fill="#D62728"/><circle cy="167.978" cx="139.65" r="2" class="dot" fill="#D62728"/><circle cy="172.64" cx="142.5" r="2" class="dot" fill="#D62728"/><circle cy="96.251" cx="145.35" r="2" class="dot" fill="#D62728"/><circle cy="169.278" cx="148.2" r="2" class="dot" fill="#D62728"/><circle cy="174.447" cx="151.05" r="2" class="dot" fill="#D62728"/><circle cy="175.945" cx="153.9" r="2" class="dot" fill="#D62728"/><circle cy="90.313" cx="156.75" r="2" class="dot" fill="#D62728"/><circle cy="171.698" cx="159.6" r="2" class="dot" fill="#D62728"/><circle cy="173.943" cx="162.45" r="2" class="dot" fill="#D62728"/><circle cy="95.241" cx="165.3" r="2" class="dot" fill="#D62728"/><circle cy="169.353" cx="168.15" r="2" class="dot" fill="#D62728"/><circle cy="174.391" cx="171" r="2" class="dot" fill="#D62728"/><circle cy="171.266" cx="173.85" r="2" class="dot" fill="#D62728"/><circle cy="66.879" cx="176.7" r="2" class="dot" fill="#D62728"/><circle cy="171.629" cx="179.55" r="2" class="dot" fill="#D62728"/><circle cy="160.408" cx="182.4" r="2" class="dot" fill="#D62728"/><circle cy="157.968" cx="185.25" r="2" class="dot" fill="#D62728"/><circle cy="172.838" cx="188.1" r="2" class="dot" fill="#D62728"/><circle cy="173.998" cx="190.95" r="2" class="dot" fill="#D62728"/><circle cy="171.881" cx="193.8" r="2" class="dot" fill="#D62728"/><circle cy="166.163" cx="196.65" r="2" class="dot" fill="#D62728"/><circle cy="153.454" cx="199.5" r="2" class="dot" fill="#D62728"/><circle cy="171.741" cx="202.35" r="2" class="dot" fill="#D62728"/><circle cy="173.28" cx="205.2" r="2" class="dot" fill="#D62728"/><circle cy="161.769" cx="208.05" r="2" class="dot" fill="#D62728"/><circle cy="129.063" cx="210.9" r="2" class="dot" fill="#D62728"/><circle cy="170.665" cx="213.75" r="2" class="dot" fill="#D62728"/><circle cy="174.325" cx="216.6" r="2" class="dot" fill="#D62728"/><circle cy="175.265" cx="219.45" r="2" class="dot" fill="#D62728"/><circle cy="175.435" cx="222.3" r="2" class="dot" fill="#D62728"/><circle cy="152.694" cx="225.15" r="2" class="dot" fill="#D62728"/><circle cy="167.962" cx="228" r="2" class="dot" fill="#D62728"/><circle cy="174.172" cx="230.85" r="2" class="dot" fill="#D62728"/><circle cy="172.282" cx="233.7" r="2" class="dot" fill="#D62728"/><circle cy="150.738" cx="236.55" r="2" class="dot" fill="#D62728"/><circle cy="151.235" cx="239.4" r="2" class="dot" fill="#D62728"/><circle cy="159.918" cx="242.25" r="2" class="dot" fill="#D62728"/><circle cy="173.473" cx="245.1" r="2" class="dot" fill="#D62728"/><circle cy="173.33" cx="247.95" r="2" class="dot" fill="#D62728"/><circle cy="148.694" cx="250.8" r="2" class="dot" fill="#D62728"/><circle cy="166.47" cx="253.65" r="2" class="dot" fill="#D62728"/><circle cy="169.114" cx="256.5" r="2" class="dot" fill="#D62728"/><circle cy="174.142" cx="259.35" r="2" class="dot" fill="#D62728"/><circle cy="174.558" cx="262.2" r="2" class="dot" fill="#D62728"/><circle cy="155.939" cx="265.05" r="2" class="dot" fill="#D62728"/><circle cy="163.653" cx="267.9" r="2" class="dot" fill="#D62728"/><circle cy="171.693" cx="270.75" r="2" class="dot" fill="#D62728"/><circle cy="173.595" cx="273.6" r="2" class="dot" fill="#D62728"/><circle cy="175.394" cx="276.45" r="2" class="dot" fill="#D62728"/><circle cy="137.485" cx="279.3" r="2" class="dot" fill="#D62728"/><circle cy="168.329" cx="282.15" r="2" class="dot" fill="#D62728"/><path class="regression" stroke-width="2" stroke="#1F77B4" d="M0 195.586h285"/><path class="regression" stroke-width="2" stroke="#FF7F0E" d="M0 199.342h285"/><path class="regression" stroke-width="2" stroke="#2CA02C" d="M0 181.706h285"/><path class="regression" stroke-width="2" stroke="#D62728" d="M0 152.048h285"/><g class="legend"><path fill="#1F77B4" d="M267 0h18v18h-18z"/><text dy=".35em" y="9" x="261" text-anchor="end">Web message</text></g><g class="legend"><path fill="#FF7F0E" d="M267 20h18v18h-18z"/><text dy=".35em" y="9" x="261" text-anchor="end" transform="translate(0 20)">Shared message</text></g><g class="legend"><path fill="#2CA02C" d="M267 40h18v18h-18z"/><text dy=".35em" y="9" x="261" text-anchor="end" transform="translate(0 40)">BC channel</text></g><g class="legend"><path fill="#D62728" d="M267 60h18v18h-18z"/><text dy=".35em" y="9" x="261" text-anchor="end" transform="translate(0 60)">threads</text></g></g></svg>