<svg xmlns="http://www.w3.org/2000/svg" height="240" width="320"><g font-size="12" font-family="Arial"><g class="x axis"><text dy=".71em" y="6" transform="translate(30 222)">postMessage</text><text dy=".71em" y="6" transform="translate(111.667 222)">BC channel</text><text dy=".71em" y="6" transform="translate(193.333 222)">threads</text><g font-size="8"><g class="tick"><path d="M43 210v6"/><text y="9" dy=".71em" text-anchor="middle" transform="translate(43 210)">x</text></g><g class="tick"><path d="M63 210v6"/><text y="9" dy=".71em" text-anchor="middle" transform="translate(63 210)">M</text></g><g class="tick"><path d="M83 210v6"/><text y="9" dy=".71em" text-anchor="middle" transform="translate(83 210)">90%</text></g><g class="tick"><path d="M103 210v6"/><text y="9" dy=".71em" text-anchor="middle" transform="translate(103 210)">95%</text></g><g class="tick"><path d="M123 210v6"/><text y="9" dy=".71em" text-anchor="middle" transform="translate(123 210)">x</text></g><g class="tick"><path d="M143 210v6"/><text y="9" dy=".71em" text-anchor="middle" transform="translate(143 210)">M</text></g><g class="tick"><path d="M163 210v6"/><text y="9" dy=".71em" text-anchor="middle" transform="translate(163 210)">90%</text></g><g class="tick"><path d="M183 210v6"/><text y="9" dy=".71em" text-anchor="middle" transform="translate(183 210)">95%</text></g><g class="tick"><path d="M203 210v6"/><text y="9" dy=".71em" text-anchor="middle" transform="translate(203 210)">x</text></g><g class="tick"><path d="M223 210v6"/><text y="9" dy=".71em" text-anchor="middle" transform="translate(223 210)">M</text></g><g class="tick"><path d="M243 210v6"/><text y="9" dy=".71em" text-anchor="middle" transform="translate(243 210)">90%</text></g><g class="tick"><path d="M263 210v6"/><text y="9" dy=".71em" text-anchor="middle" transform="translate(263 210)">95%</text></g><path d="M30 216v-6h245v6" class="domain"/></g></g><g class="y axis"><text dy=".71em" y="6" transform="translate(30 5) rotate(-90)" text-anchor="end">Latency (ms)</text><g class="tick"><path d="M30 210h-6"/><text x="-9" dy=".32em" text-anchor="end" transform="translate(30 210)">0</text></g><g class="tick"><path d="M30 192.617h-6"/><text x="-9" dy=".32em" text-anchor="end" transform="translate(30 192.617)">1</text></g><g class="tick"><path d="M30 175.233h-6"/><text x="-9" dy=".32em" text-anchor="end" transform="translate(30 175.233)">2</text></g><g class="tick"><path d="M30 157.85h-6"/><text x="-9" dy=".32em" text-anchor="end" transform="translate(30 157.85)">3</text></g><g class="tick"><path d="M30 140.467h-6"/><text x="-9" dy=".32em" text-anchor="end" transform="translate(30 140.467)">4</text></g><g class="tick"><path d="M30 123.083h-6"/><text x="-9" dy=".32em" text-anchor="end" transform="translate(30 123.083)">5</text></g><g class="tick"><path d="M30 105.7h-6"/><text x="-9" dy=".32em" text-anchor="end" transform="translate(30 105.7)">6</text></g><g class="tick"><path d="M30 88.317h-6"/><text x="-9" dy=".32em" text-anchor="end" transform="translate(30 88.317)">7</text></g><g class="tick"><path d="M30 70.933h-6"/><text x="-9" dy=".32em" text-anchor="end" transform="translate(30 70.933)">8</text></g><g class="tick"><path d="M30 53.55h-6"/><text x="-9" dy=".32em" text-anchor="end" transform="translate(30 53.55)">9</text></g><g class="tick"><path d="M30 36.166h-6"/><text x="-9" dy=".32em" text-anchor="end" transform="translate(30 36.166)">10</text></g><g class="tick"><path d="M30 18.783h-6"/><text x="-9" dy=".32em" text-anchor="end" transform="translate(30 18.783)">11</text></g><path d="M24 5h6v205h-6" class="domain"/></g><g class="caption"><g class="legend"><path fill="#1F77B4" d="M302 5h18v18h-18z"/><text dy=".35em" y="9" x="221" text-anchor="end" transform="translate(75 5)">x</text></g><g class="legend"><path fill="#FF7F0E" d="M302 25h18v18h-18z"/><text dy=".35em" y="9" x="221" text-anchor="end" transform="translate(75 25)">M</text></g><g class="legend"><path fill="#2CA02C" d="M302 45h18v18h-18z"/><text dy=".35em" y="9" x="221" text-anchor="end" transform="translate(75 45)">90%</text></g><g class="legend"><path fill="#D62728" d="M302 65h18v18h-18z"/><text dy=".35em" y="9" x="221" text-anchor="end" transform="translate(75 65)">95%</text></g></g><path class="bar" fill="#1F77B4" d="M34 200.74h18V210H34z"/><path class="bar" fill="#FF7F0E" d="M54 203.458h18V210H54z"/><path class="bar" fill="#2CA02C" d="M74 200.18h18V210H74z"/><path class="bar" fill="#D62728" d="M94 185.593h18V210H94z"/><path class="bar" fill="#1F77B4" d="M114 185.243h18V210h-18z"/><path class="bar" fill="#FF7F0E" d="M134 189.49h18V210h-18z"/><path class="bar" fill="#2CA02C" d="M154 175.666h18V210h-18z"/><path class="bar" fill="#D62728" d="M174 169.098h18V210h-18z"/><path class="bar" fill="#1F77B4" d="M194 121.762h18V210h-18z"/><path class="bar" fill="#FF7F0E" d="M214 150.8h18V210h-18z"/><path class="bar" fill="#2CA02C" d="M234 17.972h18V210h-18z"/><path class="bar" fill="#D62728" d="M254 5h18v205h-18z"/></g></svg>