<svg xmlns="http://www.w3.org/2000/svg" height="240" width="320"><g transform="translate(30 5)" font-size="12" font-family="Arial"><g class="x axis"><text y="-6" x="285" text-anchor="end" transform="translate(0 205)">Measure</text><g class="tick"><path d="M0 205v6"/><text y="9" dy=".71em" text-anchor="middle" transform="translate(0 205)">0</text></g><g class="tick"><path d="M28.5 205v6"/><text y="9" dy=".71em" text-anchor="middle" transform="translate(28.5 205)">10</text></g><g class="tick"><path d="M57 205v6"/><text y="9" dy=".71em" text-anchor="middle" transform="translate(57 205)">20</text></g><g class="tick"><path d="M85.5 205v6"/><text y="9" dy=".71em" text-anchor="middle" transform="translate(85.5 205)">30</text></g><g class="tick"><path d="M114 205v6"/><text y="9" dy=".71em" text-anchor="middle" transform="translate(114 205)">40</text></g><g class="tick"><path d="M142.5 205v6"/><text y="9" dy=".71em" text-anchor="middle" transform="translate(142.5 205)">50</text></g><g class="tick"><path d="M171 205v6"/><text y="9" dy=".71em" text-anchor="middle" transform="translate(171 205)">60</text></g><g class="tick"><path d="M199.5 205v6"/><text y="9" dy=".71em" text-anchor="middle" transform="translate(199.5 205)">70</text></g><g class="tick"><path d="M228 205v6"/><text y="9" dy=".71em" text-anchor="middle" transform="translate(228 205)">80</text></g><g class="tick"><path d="M256.5 205v6"/><text y="9" dy=".71em" text-anchor="middle" transform="translate(256.5 205)">90</text></g><g class="tick"><path d="M285 205v6"/><text y="9" dy=".71em" text-anchor="middle" transform="translate(285 205)">100</text></g><path d="M0 211v-6h285v6" class="domain"/></g><g class="y axis"><text dy=".71em" y="6" transform="rotate(-90)" text-anchor="end">Latency (ms)</text><g class="tick"><path d="M0 205h-6"/><text x="-9" dy=".32em" text-anchor="end" transform="translate(0 205)">0</text></g><g class="tick"><path d="M0 183.026h-6"/><text x="-9" dy=".32em" text-anchor="end" transform="translate(0 183.026)">2</text></g><g class="tick"><path d="M0 161.052h-6"/><text x="-9" dy=".32em" text-anchor="end" transform="translate(0 161.052)">4</text></g><g class="tick"><path d="M0 139.078h-6"/><text x="-9" dy=".32em" text-anchor="end" transform="translate(0 139.078)">6</text></g><g class="tick"><path d="M0 117.104h-6"/><text x="-9" dy=".32em" text-anchor="end" transform="translate(0 117.104)">8</text></g><g class="tick"><path d="M0 95.13h-6"/><text x="-9" dy=".32em" text-anchor="end" transform="translate(0 95.13)">10</text></g><g class="tick"><path d="M0 73.155h-6"/><text x="-9" dy=".32em" text-anchor="end" transform="translate(0 73.155)">12</text></g><g class="tick"><path d="M0 51.18h-6"/><text x="-9" dy=".32em" text-anchor="end" transform="translate(0 51.181)">14</text></g><g class="tick"><path d="M0 29.207h-6"/><text x="-9" dy=".32em" text-anchor="end" transform="translate(0 29.207)">16</text></g><g class="tick"><path d="M0 7.233h-6"/><text x="-9" dy=".32em" text-anchor="end" transform="translate(0 7.233)">18</text></g><path d="M-6 0h6v205h-6" class="domain"/></g><circle cy="71.289" r="2" class="dot" fill="#1F77B4"/><circle cy="183.745" cx="2.85" r="2" class="dot" fill="#1F77B4"/><circle cy="199.291" cx="5.7" r="2" class="dot" fill="#1F77B4"/><circle cy="200.442" cx="8.55" r="2" class="dot" fill="#1F77B4"/><circle cy="201.115" cx="11.4" r="2" class="dot" fill="#1F77B4"/><circle cy="201.033" cx="14.25" r="2" class="dot" fill="#1F77B4"/><circle cy="201.058" cx="17.1" r="2" class="dot" fill="#1F77B4"/><circle cy="200.975" cx="19.95" r="2" class="dot" fill="#1F77B4"/><circle cy="201.225" cx="22.8" r="2" class="dot" fill="#1F77B4"/><circle cy="193.925" cx="25.65" r="2" class="dot" fill="#1F77B4"/><circle cy="199.956" cx="28.5" r="2" class="dot" fill="#1F77B4"/><circle cy="200.852" cx="31.35" r="2" class="dot" fill="#1F77B4"/><circle cy="201.184" cx="34.2" r="2" class="dot" fill="#1F77B4"/><circle cy="133.99" cx="37.05" r="2" class="dot" fill="#1F77B4"/><circle cy="180.655" cx="39.9" r="2" class="dot" fill="#1F77B4"/><circle cy="200.487" cx="42.75" r="2" class="dot" fill="#1F77B4"/><circle cy="200.912" cx="45.6" r="2" class="dot" fill="#1F77B4"/><circle cy="201.389" cx="48.45" r="2" class="dot" fill="#1F77B4"/><circle cy="200.431" cx="51.3" r="2" class="dot" fill="#1F77B4"/><circle cy="201.303" cx="54.15" r="2" class="dot" fill="#1F77B4"/><circle cy="200.982" cx="57" r="2" class="dot" fill="#1F77B4"/><circle cy="185.702" cx="59.85" r="2" class="dot" fill="#1F77B4"/><circle cy="196.815" cx="62.7" r="2" class="dot" fill="#1F77B4"/><circle cy="198.328" cx="65.55" r="2" class="dot" fill="#1F77B4"/><circle cy="200.98" cx="68.4" r="2" class="dot" fill="#1F77B4"/><circle cy="200.966" cx="71.25" r="2" class="dot" fill="#1F77B4"/><circle cy="200.286" cx="74.1" r="2" class="dot" fill="#1F77B4"/><circle cy="201.264" cx="76.95" r="2" class="dot" fill="#1F77B4"/><circle cy="201.207" cx="79.8" r="2" class="dot" fill="#1F77B4"/><circle cy="201.357" cx="82.65" r="2" class="dot" fill="#1F77B4"/><circle cy="201.354" cx="85.5" r="2" class="dot" fill="#1F77B4"/><circle cy="201.353" cx="88.35" r="2" class="dot" fill="#1F77B4"/><circle cy="201.314" cx="91.2" r="2" class="dot" fill="#1F77B4"/><circle cy="201.415" cx="94.05" r="2" class="dot" fill="#1F77B4"/><circle cy="201.35" cx="96.9" r="2" class="dot" fill="#1F77B4"/><circle cy="184.457" cx="99.75" r="2" class="dot" fill="#1F77B4"/><circle cy="200.106" cx="102.6" r="2" class="dot" fill="#1F77B4"/><circle cy="201.002" cx="105.45" r="2" class="dot" fill="#1F77B4"/><circle cy="200.152" cx="108.3" r="2" class="dot" fill="#1F77B4"/><circle cy="201.378" cx="111.15" r="2" class="dot" fill="#1F77B4"/><circle cy="201.203" cx="114" r="2" class="dot" fill="#1F77B4"/><circle cy="201.067" cx="116.85" r="2" class="dot" fill="#1F77B4"/><circle cy="200.978" cx="119.7" r="2" class="dot" fill="#1F77B4"/><circle cy="201.213" cx="122.55" r="2" class="dot" fill="#1F77B4"/><circle cy="200.666" cx="125.4" r="2" class="dot" fill="#1F77B4"/><circle cy="201.174" cx="128.25" r="2" class="dot" fill="#1F77B4"/><circle cy="201.323" cx="131.1" r="2" class="dot" fill="#1F77B4"/><circle cy="200.99" cx="133.95" r="2" class="dot" fill="#1F77B4"/><circle cy="201.179" cx="136.8" r="2" class="dot" fill="#1F77B4"/><circle cy="201.367" cx="139.65" r="2" class="dot" fill="#1F77B4"/><circle cy="201.284" cx="142.5" r="2" class="dot" fill="#1F77B4"/><circle cy="201.201" cx="145.35" r="2" class="dot" fill="#1F77B4"/><circle cy="201.536" cx="148.2" r="2" class="dot" fill="#1F77B4"/><circle cy="201.323" cx="151.05" r="2" class="dot" fill="#1F77B4"/><circle cy="201.363" cx="153.9" r="2" class="dot" fill="#1F77B4"/><circle cy="201.01" cx="156.75" r="2" class="dot" fill="#1F77B4"/><circle cy="201.056" cx="159.6" r="2" class="dot" fill="#1F77B4"/><circle cy="201.38" cx="162.45" r="2" class="dot" fill="#1F77B4"/><circle cy="201.082" cx="165.3" r="2" class="dot" fill="#1F77B4"/><circle cy="200.958" cx="168.15" r="2" class="dot" fill="#1F77B4"/><circle cy="201.323" cx="171" r="2" class="dot" fill="#1F77B4"/><circle cy="201.164" cx="173.85" r="2" class="dot" fill="#1F77B4"/><circle cy="200.826" cx="176.7" r="2" class="dot" fill="#1F77B4"/><circle cy="201.021" cx="179.55" r="2" class="dot" fill="#1F77B4"/><circle cy="201.114" cx="182.4" r="2" class="dot" fill="#1F77B4"/><circle cy="201.131" cx="185.25" r="2" class="dot" fill="#1F77B4"/><circle cy="201.399" cx="188.1" r="2" class="dot" fill="#1F77B4"/><circle cy="201.322" cx="190.95" r="2" class="dot" fill="#1F77B4"/><circle cy="201.08" cx="193.8" r="2" class="dot" fill="#1F77B4"/><circle cy="201.324" cx="196.65" r="2" class="dot" fill="#1F77B4"/><circle cy="200.821" cx="199.5" r="2" class="dot" fill="#1F77B4"/><circle cy="200.415" cx="202.35" r="2" class="dot" fill="#1F77B4"/><circle cy="201.074" cx="205.2" r="2" class="dot" fill="#1F77B4"/><circle cy="201.368" cx="208.05" r="2" class="dot" fill="#1F77B4"/><circle cy="201.061" cx="210.9" r="2" class="dot" fill="#1F77B4"/><circle cy="187.263" cx="213.75" r="2" class="dot" fill="#1F77B4"/><circle cy="200.685" cx="216.6" r="2" class="dot" fill="#1F77B4"/><circle cy="200.657" cx="219.45" r="2" class="dot" fill="#1F77B4"/><circle cy="201.007" cx="222.3" r="2" class="dot" fill="#1F77B4"/><circle cy="200.868" cx="225.15" r="2" class="dot" fill="#1F77B4"/><circle cy="201.151" cx="228" r="2" class="dot" fill="#1F77B4"/><circle cy="200.993" cx="230.85" r="2" class="dot" fill="#1F77B4"/><circle cy="201.054" cx="233.7" r="2" class="dot" fill="#1F77B4"/><circle cy="201.066" cx="236.55" r="2" class="dot" fill="#1F77B4"/><circle cy="200.661" cx="239.4" r="2" class="dot" fill="#1F77B4"/><circle cy="200.912" cx="242.25" r="2" class="dot" fill="#1F77B4"/><circle cy="200.934" cx="245.1" r="2" class="dot" fill="#1F77B4"/><circle cy="201.269" cx="247.95" r="2" class="dot" fill="#1F77B4"/><circle cy="200.89" cx="250.8" r="2" class="dot" fill="#1F77B4"/><circle cy="201.041" cx="253.65" r="2" class="dot" fill="#1F77B4"/><circle cy="201.165" cx="256.5" r="2" class="dot" fill="#1F77B4"/><circle cy="201.24" cx="259.35" r="2" class="dot" fill="#1F77B4"/><circle cy="201.212" cx="262.2" r="2" class="dot" fill="#1F77B4"/><circle cy="201.47" cx="265.05" r="2" class="dot" fill="#1F77B4"/><circle cy="201.222" cx="267.9" r="2" class="dot" fill="#1F77B4"/><circle cy="201.064" cx="270.75" r="2" class="dot" fill="#1F77B4"/><circle cy="201.03" cx="273.6" r="2" class="dot" fill="#1F77B4"/><circle cy="201.219" cx="276.45" r="2" class="dot" fill="#1F77B4"/><circle cy="201.362" cx="279.3" r="2" class="dot" fill="#1F77B4"/><circle cy="201.002" cx="282.15" r="2" class="dot" fill="#1F77B4"/><circle cy="188.658" r="2" class="dot" fill="#FF7F0E"/><circle cy="188.407" cx="2.85" r="2" class="dot" fill="#FF7F0E"/><circle cy="179.368" cx="5.7" r="2" class="dot" fill="#FF7F0E"/><circle cy="187.011" cx="8.55" r="2" class="dot" fill="#FF7F0E"/><circle cy="188.869" cx="11.4" r="2" class="dot" fill="#FF7F0E"/><circle cy="189.323" cx="14.25" r="2" class="dot" fill="#FF7F0E"/><circle cy="189.447" cx="17.1" r="2" class="dot" fill="#FF7F0E"/><circle cy="188.57" cx="19.95" r="2" class="dot" fill="#FF7F0E"/><circle cy="189.591" cx="22.8" r="2" class="dot" fill="#FF7F0E"/><circle cy="181.085" cx="25.65" r="2" class="dot" fill="#FF7F0E"/><circle cy="187.978" cx="28.5" r="2" class="dot" fill="#FF7F0E"/><circle cy="189.53" cx="31.35" r="2" class="dot" fill="#FF7F0E"/><circle cy="181.868" cx="34.2" r="2" class="dot" fill="#FF7F0E"/><circle cy="185.948" cx="37.05" r="2" class="dot" fill="#FF7F0E"/><circle cy="189.299" cx="39.9" r="2" class="dot" fill="#FF7F0E"/><circle cy="190.438" cx="42.75" r="2" class="dot" fill="#FF7F0E"/><circle cy="190.459" cx="45.6" r="2" class="dot" fill="#FF7F0E"/><circle cy="190.614" cx="48.45" r="2" class="dot" fill="#FF7F0E"/><circle cy="190.684" cx="51.3" r="2" class="dot" fill="#FF7F0E"/><circle cy="181.891" cx="54.15" r="2" class="dot" fill="#FF7F0E"/><circle cy="189.264" cx="57" r="2" class="dot" fill="#FF7F0E"/><circle cy="190.232" cx="59.85" r="2" class="dot" fill="#FF7F0E"/><circle cy="188.348" cx="62.7" r="2" class="dot" fill="#FF7F0E"/><circle cy="178.874" cx="65.55" r="2" class="dot" fill="#FF7F0E"/><circle cy="189.458" cx="68.4" r="2" class="dot" fill="#FF7F0E"/><circle cy="189.053" cx="71.25" r="2" class="dot" fill="#FF7F0E"/><circle cy="190.242" cx="74.1" r="2" class="dot" fill="#FF7F0E"/><circle cy="190.708" cx="76.95" r="2" class="dot" fill="#FF7F0E"/><circle cy="190.762" cx="79.8" r="2" class="dot" fill="#FF7F0E"/><circle cy="190.654" cx="82.65" r="2" class="dot" fill="#FF7F0E"/><circle cy="190.618" cx="85.5" r="2" class="dot" fill="#FF7F0E"/><circle cy="190.413" cx="88.35" r="2" class="dot" fill="#FF7F0E"/><circle cy="190.046" cx="91.2" r="2" class="dot" fill="#FF7F0E"/><circle cy="190.457" cx="94.05" r="2" class="dot" fill="#FF7F0E"/><circle cy="183.893" cx="96.9" r="2" class="dot" fill="#FF7F0E"/><circle cy="189.179" cx="99.75" r="2" class="dot" fill="#FF7F0E"/><circle cy="190.232" cx="102.6" r="2" class="dot" fill="#FF7F0E"/><circle cy="190.1" cx="105.45" r="2" class="dot" fill="#FF7F0E"/><circle cy="190.6" cx="108.3" r="2" class="dot" fill="#FF7F0E"/><circle cy="189.809" cx="111.15" r="2" class="dot" fill="#FF7F0E"/><circle cy="190.672" cx="114" r="2" class="dot" fill="#FF7F0E"/><circle cy="190.776" cx="116.85" r="2" class="dot" fill="#FF7F0E"/><circle cy="190.495" cx="119.7" r="2" class="dot" fill="#FF7F0E"/><circle cy="190.512" cx="122.55" r="2" class="dot" fill="#FF7F0E"/><circle cy="190.515" cx="125.4" r="2" class="dot" fill="#FF7F0E"/><circle cy="189.826" cx="128.25" r="2" class="dot" fill="#FF7F0E"/><circle cy="178.033" cx="131.1" r="2" class="dot" fill="#FF7F0E"/><circle cy="189.733" cx="133.95" r="2" class="dot" fill="#FF7F0E"/><circle cy="190.233" cx="136.8" r="2" class="dot" fill="#FF7F0E"/><circle cy="190.602" cx="139.65" r="2" class="dot" fill="#FF7F0E"/><circle cy="190.525" cx="142.5" r="2" class="dot" fill="#FF7F0E"/><circle cy="190.461" cx="145.35" r="2" class="dot" fill="#FF7F0E"/><circle cy="190.205" cx="148.2" r="2" class="dot" fill="#FF7F0E"/><circle cy="190.033" cx="151.05" r="2" class="dot" fill="#FF7F0E"/><circle cy="190.682" cx="153.9" r="2" class="dot" fill="#FF7F0E"/><circle cy="190.879" cx="156.75" r="2" class="dot" fill="#FF7F0E"/><circle cy="190.954" cx="159.6" r="2" class="dot" fill="#FF7F0E"/><circle cy="181.909" cx="162.45" r="2" class="dot" fill="#FF7F0E"/><circle cy="188.78" cx="165.3" r="2" class="dot" fill="#FF7F0E"/><circle cy="190.258" cx="168.15" r="2" class="dot" fill="#FF7F0E"/><circle cy="181.983" cx="171" r="2" class="dot" fill="#FF7F0E"/><circle cy="167.768" cx="173.85" r="2" class="dot" fill="#FF7F0E"/><circle cy="189.68" cx="176.7" r="2" class="dot" fill="#FF7F0E"/><circle cy="189.822" cx="179.55" r="2" class="dot" fill="#FF7F0E"/><circle cy="190.205" cx="182.4" r="2" class="dot" fill="#FF7F0E"/><circle cy="189.673" cx="185.25" r="2" class="dot" fill="#FF7F0E"/><circle cy="180.196" cx="188.1" r="2" class="dot" fill="#FF7F0E"/><circle cy="188.139" cx="190.95" r="2" class="dot" fill="#FF7F0E"/><circle cy="189.791" cx="193.8" r="2" class="dot" fill="#FF7F0E"/><circle cy="190.353" cx="196.65" r="2" class="dot" fill="#FF7F0E"/><circle cy="190.447" cx="199.5" r="2" class="dot" fill="#FF7F0E"/><circle cy="189.432" cx="202.35" r="2" class="dot" fill="#FF7F0E"/><circle cy="190.661" cx="205.2" r="2" class="dot" fill="#FF7F0E"/><circle cy="189.847" cx="208.05" r="2" class="dot" fill="#FF7F0E"/><circle cy="191.022" cx="210.9" r="2" class="dot" fill="#FF7F0E"/><circle cy="188.962" cx="213.75" r="2" class="dot" fill="#FF7F0E"/><circle cy="190.846" cx="216.6" r="2" class="dot" fill="#FF7F0E"/><circle cy="191.375" cx="219.45" r="2" class="dot" fill="#FF7F0E"/><circle cy="178.348" cx="222.3" r="2" class="dot" fill="#FF7F0E"/><circle cy="188.867" cx="225.15" r="2" class="dot" fill="#FF7F0E"/><circle cy="190.169" cx="228" r="2" class="dot" fill="#FF7F0E"/><circle cy="190.587" cx="230.85" r="2" class="dot" fill="#FF7F0E"/><circle cy="191.182" cx="233.7" r="2" class="dot" fill="#FF7F0E"/><circle cy="191.349" cx="236.55" r="2" class="dot" fill="#FF7F0E"/><circle cy="191.427" cx="239.4" r="2" class="dot" fill="#FF7F0E"/><circle cy="191.011" cx="242.25" r="2" class="dot" fill="#FF7F0E"/><circle cy="191.474" cx="245.1" r="2" class="dot" fill="#FF7F0E"/><circle cy="191.452" cx="247.95" r="2" class="dot" fill="#FF7F0E"/><circle cy="191.284" cx="250.8" r="2" class="dot" fill="#FF7F0E"/><circle cy="189.563" cx="253.65" r="2" class="dot" fill="#FF7F0E"/><circle cy="180.384" cx="256.5" r="2" class="dot" fill="#FF7F0E"/><circle cy="190.522" cx="259.35" r="2" class="dot" fill="#FF7F0E"/><circle cy="190.32" cx="262.2" r="2" class="dot" fill="#FF7F0E"/><circle cy="191.008" cx="265.05" r="2" class="dot" fill="#FF7F0E"/><circle cy="191.072" cx="267.9" r="2" class="dot" fill="#FF7F0E"/><circle cy="191.443" cx="270.75" r="2" class="dot" fill="#FF7F0E"/><circle cy="191.466" cx="273.6" r="2" class="dot" fill="#FF7F0E"/><circle cy="191.735" cx="276.45" r="2" class="dot" fill="#FF7F0E"/><circle cy="191.365" cx="279.3" r="2" class="dot" fill="#FF7F0E"/><circle cy="191.584" cx="282.15" r="2" class="dot" fill="#FF7F0E"/><circle cy="166.95" r="2" class="dot" fill="#2CA02C"/><circle cy="165.558" cx="2.85" r="2" class="dot" fill="#2CA02C"/><circle cy="168.378" cx="5.7" r="2" class="dot" fill="#2CA02C"/><circle cy="169.381" cx="8.55" r="2" class="dot" fill="#2CA02C"/><circle cy="150.958" cx="11.4" r="2" class="dot" fill="#2CA02C"/><circle cy="168.429" cx="14.25" r="2" class="dot" fill="#2CA02C"/><circle cy="169.247" cx="17.1" r="2" class="dot" fill="#2CA02C"/><circle cy="167.664" cx="19.95" r="2" class="dot" fill="#2CA02C"/><circle cy="158.865" cx="22.8" r="2" class="dot" fill="#2CA02C"/><circle cy="161.229" cx="25.65" r="2" class="dot" fill="#2CA02C"/><circle cy="164.834" cx="28.5" r="2" class="dot" fill="#2CA02C"/><circle cy="166.195" cx="31.35" r="2" class="dot" fill="#2CA02C"/><circle cy="164.644" cx="34.2" r="2" class="dot" fill="#2CA02C"/><circle cy="105.006" cx="37.05" r="2" class="dot" fill="#2CA02C"/><circle cy="142.79" cx="39.9" r="2" class="dot" fill="#2CA02C"/><circle cy="89.526" cx="42.75" r="2" class="dot" fill="#2CA02C"/><circle cy="160.908" cx="45.6" r="2" class="dot" fill="#2CA02C"/><circle cy="160.051" cx="48.45" r="2" class="dot" fill="#2CA02C"/><circle cy="90.402" cx="51.3" r="2" class="dot" fill="#2CA02C"/><circle cy="165.512" cx="54.15" r="2" class="dot" fill="#2CA02C"/><circle cy="114.565" cx="57" r="2" class="dot" fill="#2CA02C"/><circle cy="163.756" cx="59.85" r="2" class="dot" fill="#2CA02C"/><circle cy="166.172" cx="62.7" r="2" class="dot" fill="#2CA02C"/><circle cy="160.303" cx="65.55" r="2" class="dot" fill="#2CA02C"/><circle cy="138.119" cx="68.4" r="2" class="dot" fill="#2CA02C"/><circle cy="165.7" cx="71.25" r="2" class="dot" fill="#2CA02C"/><circle cy="165.634" cx="74.1" r="2" class="dot" fill="#2CA02C"/><circle cy="123.229" cx="76.95" r="2" class="dot" fill="#2CA02C"/><circle cy="161.851" cx="79.8" r="2" class="dot" fill="#2CA02C"/><circle cy="166.983" cx="82.65" r="2" class="dot" fill="#2CA02C"/><circle cy="117.066" cx="85.5" r="2" class="dot" fill="#2CA02C"/><circle cy="149.908" cx="88.35" r="2" class="dot" fill="#2CA02C"/><circle cy="164.298" cx="91.2" r="2" class="dot" fill="#2CA02C"/><circle cy="167.523" cx="94.05" r="2" class="dot" fill="#2CA02C"/><circle cy="122.079" cx="96.9" r="2" class="dot" fill="#2CA02C"/><circle cy="163.639" cx="99.75" r="2" class="dot" fill="#2CA02C"/><circle cy="117.14" cx="102.6" r="2" class="dot" fill="#2CA02C"/><circle cy="131.316" cx="105.45" r="2" class="dot" fill="#2CA02C"/><circle cy="165.795" cx="108.3" r="2" class="dot" fill="#2CA02C"/><circle cy="165.808" cx="111.15" r="2" class="dot" fill="#2CA02C"/><circle cy="38.917" cx="114" r="2" class="dot" fill="#2CA02C"/><circle cy="56.691" cx="116.85" r="2" class="dot" fill="#2CA02C"/><circle cy="161.399" cx="119.7" r="2" class="dot" fill="#2CA02C"/><circle cy="60.455" cx="122.55" r="2" class="dot" fill="#2CA02C"/><circle cy="160.116" cx="125.4" r="2" class="dot" fill="#2CA02C"/><circle cx="128.25" r="2" class="dot" fill="#2CA02C"/><circle cy="80.124" cx="131.1" r="2" class="dot" fill="#2CA02C"/><circle cy="165.317" cx="133.95" r="2" class="dot" fill="#2CA02C"/><circle cy="48.304" cx="136.8" r="2" class="dot" fill="#2CA02C"/><circle cy="70.603" cx="139.65" r="2" class="dot" fill="#2CA02C"/><circle cy="156.57" cx="142.5" r="2" class="dot" fill="#2CA02C"/><circle cy="41.409" cx="145.35" r="2" class="dot" fill="#2CA02C"/><circle cy="163.375" cx="148.2" r="2" class="dot" fill="#2CA02C"/><circle cy="54.836" cx="151.05" r="2" class="dot" fill="#2CA02C"/><circle cy="157.992" cx="153.9" r="2" class="dot" fill="#2CA02C"/><circle cy="71.225" cx="156.75" r="2" class="dot" fill="#2CA02C"/><circle cy="154.395" cx="159.6" r="2" class="dot" fill="#2CA02C"/><circle cy="79.504" cx="162.45" r="2" class="dot" fill="#2CA02C"/><circle cy="164.956" cx="165.3" r="2" class="dot" fill="#2CA02C"/><circle cy="53.55" cx="168.15" r="2" class="dot" fill="#2CA02C"/><circle cy="157.677" cx="171" r="2" class="dot" fill="#2CA02C"/><circle cy="45.525" cx="173.85" r="2" class="dot" fill="#2CA02C"/><circle cy="132.293" cx="176.7" r="2" class="dot" fill="#2CA02C"/><circle cy="168.995" cx="179.55" r="2" class="dot" fill="#2CA02C"/><circle cy="165.642" cx="182.4" r="2" class="dot" fill="#2CA02C"/><circle cy="170.065" cx="185.25" r="2" class="dot" fill="#2CA02C"/><circle cy="169.101" cx="188.1" r="2" class="dot" fill="#2CA02C"/><circle cy="170.317" cx="190.95" r="2" class="dot" fill="#2CA02C"/><circle cy="170.908" cx="193.8" r="2" class="dot" fill="#2CA02C"/><circle cy="171.659" cx="196.65" r="2" class="dot" fill="#2CA02C"/><circle cy="170.391" cx="199.5" r="2" class="dot" fill="#2CA02C"/><circle cy="169.203" cx="202.35" r="2" class="dot" fill="#2CA02C"/><circle cy="169.823" cx="205.2" r="2" class="dot" fill="#2CA02C"/><circle cy="170.772" cx="208.05" r="2" class="dot" fill="#2CA02C"/><circle cy="171.626" cx="210.9" r="2" class="dot" fill="#2CA02C"/><circle cy="172.237" cx="213.75" r="2" class="dot" fill="#2CA02C"/><circle cy="169.202" cx="216.6" r="2" class="dot" fill="#2CA02C"/><circle cy="167.971" cx="219.45" r="2" class="dot" fill="#2CA02C"/><circle cy="170.548" cx="222.3" r="2" class="dot" fill="#2CA02C"/><circle cy="170.954" cx="225.15" r="2" class="dot" fill="#2CA02C"/><circle cy="170.358" cx="228" r="2" class="dot" fill="#2CA02C"/><circle cy="170.106" cx="230.85" r="2" class="dot" fill="#2CA02C"/><circle cy="171.099" cx="233.7" r="2" class="dot" fill="#2CA02C"/><circle cy="171.381" cx="236.55" r="2" class="dot" fill="#2CA02C"/><circle cy="172.631" cx="239.4" r="2" class="dot" fill="#2CA02C"/><circle cy="172.314" cx="242.25" r="2" class="dot" fill="#2CA02C"/><circle cy="152.979" cx="245.1" r="2" class="dot" fill="#2CA02C"/><circle cy="160.605" cx="247.95" r="2" class="dot" fill="#2CA02C"/><circle cy="171.326" cx="250.8" r="2" class="dot" fill="#2CA02C"/><circle cy="171.686" cx="253.65" r="2" class="dot" fill="#2CA02C"/><circle cy="171.529" cx="256.5" r="2" class="dot" fill="#2CA02C"/><circle cy="170.517" cx="259.35" r="2" class="dot" fill="#2CA02C"/><circle cy="169.196" cx="262.2" r="2" class="dot" fill="#2CA02C"/><circle cy="171.928" cx="265.05" r="2" class="dot" fill="#2CA02C"/><circle cy="171.646" cx="267.9" r="2" class="dot" fill="#2CA02C"/><circle cy="106.221" cx="270.75" r="2" class="dot" fill="#2CA02C"/><circle cy="155.755" cx="273.6" r="2" class="dot" fill="#2CA02C"/><circle cy="169.618" cx="276.45" r="2" class="dot" fill="#2CA02C"/><circle cy="171.894" cx="279.3" r="2" class="dot" fill="#2CA02C"/><circle cy="170.997" cx="282.15" r="2" class="dot" fill="#2CA02C"/><g class="legend"><path fill="#1F77B4" d="M267 0h18v18h-18z"/><text dy=".35em" y="9" x="261" text-anchor="end">postMessage</text></g><g class="legend"><path fill="#FF7F0E" d="M267 20h18v18h-18z"/><text dy=".35em" y="9" x="261" text-anchor="end" transform="translate(0 20)">BC channel</text></g><g class="legend"><path fill="#2CA02C" d="M267 40h18v18h-18z"/><text dy=".35em" y="9" x="261" text-anchor="end" transform="translate(0 40)">threads</text></g></g></svg>