<svg xmlns="http://www.w3.org/2000/svg" height="240" width="320"><g transform="translate(30 5)" font-size="12" font-family="Arial"><g class="x axis"><text y="-6" x="285" text-anchor="end" transform="translate(0 205)">Measure</text><g class="tick"><path d="M0 205v6"/><text y="9" dy=".71em" text-anchor="middle" transform="translate(0 205)">0</text></g><g class="tick"><path d="M28.5 205v6"/><text y="9" dy=".71em" text-anchor="middle" transform="translate(28.5 205)">10</text></g><g class="tick"><path d="M57 205v6"/><text y="9" dy=".71em" text-anchor="middle" transform="translate(57 205)">20</text></g><g class="tick"><path d="M85.5 205v6"/><text y="9" dy=".71em" text-anchor="middle" transform="translate(85.5 205)">30</text></g><g class="tick"><path d="M114 205v6"/><text y="9" dy=".71em" text-anchor="middle" transform="translate(114 205)">40</text></g><g class="tick"><path d="M142.5 205v6"/><text y="9" dy=".71em" text-anchor="middle" transform="translate(142.5 205)">50</text></g><g class="tick"><path d="M171 205v6"/><text y="9" dy=".71em" text-anchor="middle" transform="translate(171 205)">60</text></g><g class="tick"><path d="M199.5 205v6"/><text y="9" dy=".71em" text-anchor="middle" transform="translate(199.5 205)">70</text></g><g class="tick"><path d="M228 205v6"/><text y="9" dy=".71em" text-anchor="middle" transform="translate(228 205)">80</text></g><g class="tick"><path d="M256.5 205v6"/><text y="9" dy=".71em" text-anchor="middle" transform="translate(256.5 205)">90</text></g><g class="tick"><path d="M285 205v6"/><text y="9" dy=".71em" text-anchor="middle" transform="translate(285 205)">100</text></g><path d="M0 211v-6h285v6" class="domain"/></g><g class="y axis"><text dy=".71em" y="6" transform="rotate(-90)" text-anchor="end">Latency (ms)</text><g class="tick"><path d="M0 205h-6"/><text x="-9" dy=".32em" text-anchor="end" transform="translate(0 205)">0</text></g><g class="tick"><path d="M0 181.897h-6"/><text x="-9" dy=".32em" text-anchor="end" transform="translate(0 181.897)">2</text></g><g class="tick"><path d="M0 158.795h-6"/><text x="-9" dy=".32em" text-anchor="end" transform="translate(0 158.795)">4</text></g><g class="tick"><path d="M0 135.692h-6"/><text x="-9" dy=".32em" text-anchor="end" transform="translate(0 135.692)">6</text></g><g class="tick"><path d="M0 112.59h-6"/><text x="-9" dy=".32em" text-anchor="end" transform="translate(0 112.589)">8</text></g><g class="tick"><path d="M0 89.487h-6"/><text x="-9" dy=".32em" text-anchor="end" transform="translate(0 89.487)">10</text></g><g class="tick"><path d="M0 66.384h-6"/><text x="-9" dy=".32em" text-anchor="end" transform="translate(0 66.384)">12</text></g><g class="tick"><path d="M0 43.28h-6"/><text x="-9" dy=".32em" text-anchor="end" transform="translate(0 43.281)">14</text></g><g class="tick"><path d="M0 20.18h-6"/><text x="-9" dy=".32em" text-anchor="end" transform="translate(0 20.179)">16</text></g><path d="M-6 0h6v205h-6" class="domain"/></g><path class="mean" stroke-width="2" stroke="#1F77B4" d="M0 197.398h285"/><path class="mean" stroke-width="2" stroke="#FF7F0E" d="M0 188.58h285"/><path class="mean" stroke-width="2" stroke="#2CA02C" d="M0 175.683h285"/><circle cy="122.031" r="2" class="dot" fill="#1F77B4"/><circle cy="188.839" cx="2.85" r="2" class="dot" fill="#1F77B4"/><circle cy="201.34" cx="5.7" r="2" class="dot" fill="#1F77B4"/><circle cy="201.261" cx="8.55" r="2" class="dot" fill="#1F77B4"/><circle cy="201.933" cx="11.4" r="2" class="dot" fill="#1F77B4"/><circle cy="202.208" cx="14.25" r="2" class="dot" fill="#1F77B4"/><circle cy="199.014" cx="17.1" r="2" class="dot" fill="#1F77B4"/><circle cy="199.772" cx="19.95" r="2" class="dot" fill="#1F77B4"/><circle cy="194.056" cx="22.8" r="2" class="dot" fill="#1F77B4"/><circle cy="160.364" cx="25.65" r="2" class="dot" fill="#1F77B4"/><circle cy="184.757" cx="28.5" r="2" class="dot" fill="#1F77B4"/><circle cy="198.925" cx="31.35" r="2" class="dot" fill="#1F77B4"/><circle cy="200.21" cx="34.2" r="2" class="dot" fill="#1F77B4"/><circle cy="199.334" cx="37.05" r="2" class="dot" fill="#1F77B4"/><circle cy="200.144" cx="39.9" r="2" class="dot" fill="#1F77B4"/><circle cy="200.45" cx="42.75" r="2" class="dot" fill="#1F77B4"/><circle cy="200.633" cx="45.6" r="2" class="dot" fill="#1F77B4"/><circle cy="200.566" cx="48.45" r="2" class="dot" fill="#1F77B4"/><circle cy="200.569" cx="51.3" r="2" class="dot" fill="#1F77B4"/><circle cy="200.625" cx="54.15" r="2" class="dot" fill="#1F77B4"/><circle cy="200.696" cx="57" r="2" class="dot" fill="#1F77B4"/><circle cy="200.622" cx="59.85" r="2" class="dot" fill="#1F77B4"/><circle cy="200.691" cx="62.7" r="2" class="dot" fill="#1F77B4"/><circle cy="200.683" cx="65.55" r="2" class="dot" fill="#1F77B4"/><circle cy="200.702" cx="68.4" r="2" class="dot" fill="#1F77B4"/><circle cy="200.669" cx="71.25" r="2" class="dot" fill="#1F77B4"/><circle cy="200.691" cx="74.1" r="2" class="dot" fill="#1F77B4"/><circle cy="200.709" cx="76.95" r="2" class="dot" fill="#1F77B4"/><circle cy="200.727" cx="79.8" r="2" class="dot" fill="#1F77B4"/><circle cy="200.691" cx="82.65" r="2" class="dot" fill="#1F77B4"/><circle cy="200.674" cx="85.5" r="2" class="dot" fill="#1F77B4"/><circle cy="200.681" cx="88.35" r="2" class="dot" fill="#1F77B4"/><circle cy="197.96" cx="91.2" r="2" class="dot" fill="#1F77B4"/><circle cy="188.009" cx="94.05" r="2" class="dot" fill="#1F77B4"/><circle cy="198.477" cx="96.9" r="2" class="dot" fill="#1F77B4"/><circle cy="199.486" cx="99.75" r="2" class="dot" fill="#1F77B4"/><circle cy="200.045" cx="102.6" r="2" class="dot" fill="#1F77B4"/><circle cy="200.455" cx="105.45" r="2" class="dot" fill="#1F77B4"/><circle cy="200.641" cx="108.3" r="2" class="dot" fill="#1F77B4"/><circle cy="200.673" cx="111.15" r="2" class="dot" fill="#1F77B4"/><circle cy="200.653" cx="114" r="2" class="dot" fill="#1F77B4"/><circle cy="200.703" cx="116.85" r="2" class="dot" fill="#1F77B4"/><circle cy="200.503" cx="119.7" r="2" class="dot" fill="#1F77B4"/><circle cy="200.612" cx="122.55" r="2" class="dot" fill="#1F77B4"/><circle cy="200.676" cx="125.4" r="2" class="dot" fill="#1F77B4"/><circle cy="200.663" cx="128.25" r="2" class="dot" fill="#1F77B4"/><circle cy="200.681" cx="131.1" r="2" class="dot" fill="#1F77B4"/><circle cy="200.614" cx="133.95" r="2" class="dot" fill="#1F77B4"/><circle cy="200.694" cx="136.8" r="2" class="dot" fill="#1F77B4"/><circle cy="200.654" cx="139.65" r="2" class="dot" fill="#1F77B4"/><circle cy="200.707" cx="142.5" r="2" class="dot" fill="#1F77B4"/><circle cy="200.703" cx="145.35" r="2" class="dot" fill="#1F77B4"/><circle cy="200.674" cx="148.2" r="2" class="dot" fill="#1F77B4"/><circle cy="200.674" cx="151.05" r="2" class="dot" fill="#1F77B4"/><circle cy="200.7" cx="153.9" r="2" class="dot" fill="#1F77B4"/><circle cy="200.674" cx="156.75" r="2" class="dot" fill="#1F77B4"/><circle cy="200.653" cx="159.6" r="2" class="dot" fill="#1F77B4"/><circle cy="200.696" cx="162.45" r="2" class="dot" fill="#1F77B4"/><circle cy="200.749" cx="165.3" r="2" class="dot" fill="#1F77B4"/><circle cy="200.071" cx="168.15" r="2" class="dot" fill="#1F77B4"/><circle cy="200.36" cx="171" r="2" class="dot" fill="#1F77B4"/><circle cy="200.618" cx="173.85" r="2" class="dot" fill="#1F77B4"/><circle cy="200.639" cx="176.7" r="2" class="dot" fill="#1F77B4"/><circle cy="200.688" cx="179.55" r="2" class="dot" fill="#1F77B4"/><circle cy="200.674" cx="182.4" r="2" class="dot" fill="#1F77B4"/><circle cy="200.65" cx="185.25" r="2" class="dot" fill="#1F77B4"/><circle cy="200.724" cx="188.1" r="2" class="dot" fill="#1F77B4"/><circle cy="200.675" cx="190.95" r="2" class="dot" fill="#1F77B4"/><circle cy="200.725" cx="193.8" r="2" class="dot" fill="#1F77B4"/><circle cy="200.733" cx="196.65" r="2" class="dot" fill="#1F77B4"/><circle cy="198.47" cx="199.5" r="2" class="dot" fill="#1F77B4"/><circle cy="188.723" cx="202.35" r="2" class="dot" fill="#1F77B4"/><circle cy="199.423" cx="205.2" r="2" class="dot" fill="#1F77B4"/><circle cy="200.302" cx="208.05" r="2" class="dot" fill="#1F77B4"/><circle cy="200.496" cx="210.9" r="2" class="dot" fill="#1F77B4"/><circle cy="200.582" cx="213.75" r="2" class="dot" fill="#1F77B4"/><circle cy="200.594" cx="216.6" r="2" class="dot" fill="#1F77B4"/><circle cy="200.667" cx="219.45" r="2" class="dot" fill="#1F77B4"/><circle cy="200.656" cx="222.3" r="2" class="dot" fill="#1F77B4"/><circle cy="200.632" cx="225.15" r="2" class="dot" fill="#1F77B4"/><circle cy="200.737" cx="228" r="2" class="dot" fill="#1F77B4"/><circle cy="199.588" cx="230.85" r="2" class="dot" fill="#1F77B4"/><circle cy="200.117" cx="233.7" r="2" class="dot" fill="#1F77B4"/><circle cy="197.219" cx="236.55" r="2" class="dot" fill="#1F77B4"/><circle cy="199.561" cx="239.4" r="2" class="dot" fill="#1F77B4"/><circle cy="200.16" cx="242.25" r="2" class="dot" fill="#1F77B4"/><circle cy="200.44" cx="245.1" r="2" class="dot" fill="#1F77B4"/><circle cy="200.484" cx="247.95" r="2" class="dot" fill="#1F77B4"/><circle cy="200.524" cx="250.8" r="2" class="dot" fill="#1F77B4"/><circle cy="200.582" cx="253.65" r="2" class="dot" fill="#1F77B4"/><circle cy="201.238" cx="256.5" r="2" class="dot" fill="#1F77B4"/><circle cy="202.504" cx="259.35" r="2" class="dot" fill="#1F77B4"/><circle cy="202.488" cx="262.2" r="2" class="dot" fill="#1F77B4"/><circle cy="202.613" cx="265.05" r="2" class="dot" fill="#1F77B4"/><circle cy="202.625" cx="267.9" r="2" class="dot" fill="#1F77B4"/><circle cy="202.606" cx="270.75" r="2" class="dot" fill="#1F77B4"/><circle cy="202.572" cx="273.6" r="2" class="dot" fill="#1F77B4"/><circle cy="202.593" cx="276.45" r="2" class="dot" fill="#1F77B4"/><circle cy="202.583" cx="279.3" r="2" class="dot" fill="#1F77B4"/><circle cy="202.601" cx="282.15" r="2" class="dot" fill="#1F77B4"/><circle cy="191.188" r="2" class="dot" fill="#FF7F0E"/><circle cy="176.177" cx="2.85" r="2" class="dot" fill="#FF7F0E"/><circle cy="189.45" cx="5.7" r="2" class="dot" fill="#FF7F0E"/><circle cy="191.204" cx="8.55" r="2" class="dot" fill="#FF7F0E"/><circle cy="191.685" cx="11.4" r="2" class="dot" fill="#FF7F0E"/><circle cy="191.961" cx="14.25" r="2" class="dot" fill="#FF7F0E"/><circle cy="192.069" cx="17.1" r="2" class="dot" fill="#FF7F0E"/><circle cy="192.023" cx="19.95" r="2" class="dot" fill="#FF7F0E"/><circle cy="190.855" cx="22.8" r="2" class="dot" fill="#FF7F0E"/><circle cy="178.166" cx="25.65" r="2" class="dot" fill="#FF7F0E"/><circle cy="190.337" cx="28.5" r="2" class="dot" fill="#FF7F0E"/><circle cy="191.612" cx="31.35" r="2" class="dot" fill="#FF7F0E"/><circle cy="192.108" cx="34.2" r="2" class="dot" fill="#FF7F0E"/><circle cy="180.986" cx="37.05" r="2" class="dot" fill="#FF7F0E"/><circle cy="189.53" cx="39.9" r="2" class="dot" fill="#FF7F0E"/><circle cy="191.925" cx="42.75" r="2" class="dot" fill="#FF7F0E"/><circle cy="192.236" cx="45.6" r="2" class="dot" fill="#FF7F0E"/><circle cy="192.737" cx="48.45" r="2" class="dot" fill="#FF7F0E"/><circle cy="192.943" cx="51.3" r="2" class="dot" fill="#FF7F0E"/><circle cy="192.698" cx="54.15" r="2" class="dot" fill="#FF7F0E"/><circle cy="192.884" cx="57" r="2" class="dot" fill="#FF7F0E"/><circle cy="192.763" cx="59.85" r="2" class="dot" fill="#FF7F0E"/><circle cy="193.012" cx="62.7" r="2" class="dot" fill="#FF7F0E"/><circle cy="186.822" cx="65.55" r="2" class="dot" fill="#FF7F0E"/><circle cy="191.895" cx="68.4" r="2" class="dot" fill="#FF7F0E"/><circle cy="193.285" cx="71.25" r="2" class="dot" fill="#FF7F0E"/><circle cy="180.985" cx="74.1" r="2" class="dot" fill="#FF7F0E"/><circle cy="190.465" cx="76.95" r="2" class="dot" fill="#FF7F0E"/><circle cy="192.06" cx="79.8" r="2" class="dot" fill="#FF7F0E"/><circle cy="192.46" cx="82.65" r="2" class="dot" fill="#FF7F0E"/><circle cy="191.413" cx="85.5" r="2" class="dot" fill="#FF7F0E"/><circle cy="192.426" cx="88.35" r="2" class="dot" fill="#FF7F0E"/><circle cy="191.197" cx="91.2" r="2" class="dot" fill="#FF7F0E"/><circle cy="192.741" cx="94.05" r="2" class="dot" fill="#FF7F0E"/><circle cy="192.811" cx="96.9" r="2" class="dot" fill="#FF7F0E"/><circle cy="192.83" cx="99.75" r="2" class="dot" fill="#FF7F0E"/><circle cy="192.579" cx="102.6" r="2" class="dot" fill="#FF7F0E"/><circle cy="192.792" cx="105.45" r="2" class="dot" fill="#FF7F0E"/><circle cy="192.889" cx="108.3" r="2" class="dot" fill="#FF7F0E"/><circle cy="192.383" cx="111.15" r="2" class="dot" fill="#FF7F0E"/><circle cy="131.938" cx="114" r="2" class="dot" fill="#FF7F0E"/><circle cy="189.882" cx="116.85" r="2" class="dot" fill="#FF7F0E"/><circle cy="192.058" cx="119.7" r="2" class="dot" fill="#FF7F0E"/><circle cy="189.753" cx="122.55" r="2" class="dot" fill="#FF7F0E"/><circle cy="161.349" cx="125.4" r="2" class="dot" fill="#FF7F0E"/><circle cy="191.411" cx="128.25" r="2" class="dot" fill="#FF7F0E"/><circle cy="192.225" cx="131.1" r="2" class="dot" fill="#FF7F0E"/><circle cy="102.314" cx="133.95" r="2" class="dot" fill="#FF7F0E"/><circle cy="187.251" cx="136.8" r="2" class="dot" fill="#FF7F0E"/><circle cy="190.508" cx="139.65" r="2" class="dot" fill="#FF7F0E"/><circle cy="191.274" cx="142.5" r="2" class="dot" fill="#FF7F0E"/><circle cy="191.328" cx="145.35" r="2" class="dot" fill="#FF7F0E"/><circle cy="192.296" cx="148.2" r="2" class="dot" fill="#FF7F0E"/><circle cy="192.497" cx="151.05" r="2" class="dot" fill="#FF7F0E"/><circle cy="188.544" cx="153.9" r="2" class="dot" fill="#FF7F0E"/><circle cy="178.341" cx="156.75" r="2" class="dot" fill="#FF7F0E"/><circle cy="191.602" cx="159.6" r="2" class="dot" fill="#FF7F0E"/><circle cy="192.318" cx="162.45" r="2" class="dot" fill="#FF7F0E"/><circle cy="191.853" cx="165.3" r="2" class="dot" fill="#FF7F0E"/><circle cy="192.431" cx="168.15" r="2" class="dot" fill="#FF7F0E"/><circle cy="191.014" cx="171" r="2" class="dot" fill="#FF7F0E"/><circle cy="191.291" cx="173.85" r="2" class="dot" fill="#FF7F0E"/><circle cy="191.461" cx="176.7" r="2" class="dot" fill="#FF7F0E"/><circle cy="191.703" cx="179.55" r="2" class="dot" fill="#FF7F0E"/><circle cy="191.638" cx="182.4" r="2" class="dot" fill="#FF7F0E"/><circle cy="191.557" cx="185.25" r="2" class="dot" fill="#FF7F0E"/><circle cy="191.547" cx="188.1" r="2" class="dot" fill="#FF7F0E"/><circle cy="187.948" cx="190.95" r="2" class="dot" fill="#FF7F0E"/><circle cy="177.643" cx="193.8" r="2" class="dot" fill="#FF7F0E"/><circle cy="190.439" cx="196.65" r="2" class="dot" fill="#FF7F0E"/><circle cy="191.063" cx="199.5" r="2" class="dot" fill="#FF7F0E"/><circle cy="191.357" cx="202.35" r="2" class="dot" fill="#FF7F0E"/><circle cy="191.4" cx="205.2" r="2" class="dot" fill="#FF7F0E"/><circle cy="191.46" cx="208.05" r="2" class="dot" fill="#FF7F0E"/><circle cy="190.239" cx="210.9" r="2" class="dot" fill="#FF7F0E"/><circle cy="191.384" cx="213.75" r="2" class="dot" fill="#FF7F0E"/><circle cy="191.501" cx="216.6" r="2" class="dot" fill="#FF7F0E"/><circle cy="191.446" cx="219.45" r="2" class="dot" fill="#FF7F0E"/><circle cy="191.713" cx="222.3" r="2" class="dot" fill="#FF7F0E"/><circle cy="191.652" cx="225.15" r="2" class="dot" fill="#FF7F0E"/><circle cy="183.383" cx="228" r="2" class="dot" fill="#FF7F0E"/><circle cy="188.699" cx="230.85" r="2" class="dot" fill="#FF7F0E"/><circle cy="190.726" cx="233.7" r="2" class="dot" fill="#FF7F0E"/><circle cy="191.17" cx="236.55" r="2" class="dot" fill="#FF7F0E"/><circle cy="191.324" cx="239.4" r="2" class="dot" fill="#FF7F0E"/><circle cy="190.868" cx="242.25" r="2" class="dot" fill="#FF7F0E"/><circle cy="191.472" cx="245.1" r="2" class="dot" fill="#FF7F0E"/><circle cy="191.581" cx="247.95" r="2" class="dot" fill="#FF7F0E"/><circle cy="190.905" cx="250.8" r="2" class="dot" fill="#FF7F0E"/><circle cy="190.508" cx="253.65" r="2" class="dot" fill="#FF7F0E"/><circle cy="187.818" cx="256.5" r="2" class="dot" fill="#FF7F0E"/><circle cy="190.738" cx="259.35" r="2" class="dot" fill="#FF7F0E"/><circle cy="189.453" cx="262.2" r="2" class="dot" fill="#FF7F0E"/><circle cy="177.998" cx="265.05" r="2" class="dot" fill="#FF7F0E"/><circle cy="190.446" cx="267.9" r="2" class="dot" fill="#FF7F0E"/><circle cy="191.339" cx="270.75" r="2" class="dot" fill="#FF7F0E"/><circle cy="189.839" cx="273.6" r="2" class="dot" fill="#FF7F0E"/><circle cy="191.234" cx="276.45" r="2" class="dot" fill="#FF7F0E"/><circle cy="190.898" cx="279.3" r="2" class="dot" fill="#FF7F0E"/><circle cy="191.273" cx="282.15" r="2" class="dot" fill="#FF7F0E"/><circle cy="162.002" r="2" class="dot" fill="#2CA02C"/><circle cy="149.452" cx="2.85" r="2" class="dot" fill="#2CA02C"/><circle cy="161.926" cx="5.7" r="2" class="dot" fill="#2CA02C"/><circle cy="149.829" cx="8.55" r="2" class="dot" fill="#2CA02C"/><circle cy="141.476" cx="11.4" r="2" class="dot" fill="#2CA02C"/><circle cy="166.036" cx="14.25" r="2" class="dot" fill="#2CA02C"/><circle cy="168.438" cx="17.1" r="2" class="dot" fill="#2CA02C"/><circle cy="151.451" cx="19.95" r="2" class="dot" fill="#2CA02C"/><circle cy="166.951" cx="22.8" r="2" class="dot" fill="#2CA02C"/><circle cx="25.65" r="2" class="dot" fill="#2CA02C"/><circle cy="159.555" cx="28.5" r="2" class="dot" fill="#2CA02C"/><circle cy="163.265" cx="31.35" r="2" class="dot" fill="#2CA02C"/><circle cy="104.195" cx="34.2" r="2" class="dot" fill="#2CA02C"/><circle cy="167.494" cx="37.05" r="2" class="dot" fill="#2CA02C"/><circle cy="169.396" cx="39.9" r="2" class="dot" fill="#2CA02C"/><circle cy="137.39" cx="42.75" r="2" class="dot" fill="#2CA02C"/><circle cy="157.553" cx="45.6" r="2" class="dot" fill="#2CA02C"/><circle cy="167.802" cx="48.45" r="2" class="dot" fill="#2CA02C"/><circle cy="168.712" cx="51.3" r="2" class="dot" fill="#2CA02C"/><circle cy="92.211" cx="54.15" r="2" class="dot" fill="#2CA02C"/><circle cy="166.719" cx="57" r="2" class="dot" fill="#2CA02C"/><circle cy="170.33" cx="59.85" r="2" class="dot" fill="#2CA02C"/><circle cy="133.725" cx="62.7" r="2" class="dot" fill="#2CA02C"/><circle cy="156.445" cx="65.55" r="2" class="dot" fill="#2CA02C"/><circle cy="167.699" cx="68.4" r="2" class="dot" fill="#2CA02C"/><circle cy="167.172" cx="71.25" r="2" class="dot" fill="#2CA02C"/><circle cy="140.105" cx="74.1" r="2" class="dot" fill="#2CA02C"/><circle cy="89.277" cx="76.95" r="2" class="dot" fill="#2CA02C"/><circle cy="141.901" cx="79.8" r="2" class="dot" fill="#2CA02C"/><circle cy="150.439" cx="82.65" r="2" class="dot" fill="#2CA02C"/><circle cy="166.36" cx="85.5" r="2" class="dot" fill="#2CA02C"/><circle cy="168.526" cx="88.35" r="2" class="dot" fill="#2CA02C"/><circle cy="152.639" cx="91.2" r="2" class="dot" fill="#2CA02C"/><circle cy="142.531" cx="94.05" r="2" class="dot" fill="#2CA02C"/><circle cy="167.593" cx="96.9" r="2" class="dot" fill="#2CA02C"/><circle cy="167.472" cx="99.75" r="2" class="dot" fill="#2CA02C"/><circle cy="154.79" cx="102.6" r="2" class="dot" fill="#2CA02C"/><circle cy="143.013" cx="105.45" r="2" class="dot" fill="#2CA02C"/><circle cy="167.686" cx="108.3" r="2" class="dot" fill="#2CA02C"/><circle cy="168.944" cx="111.15" r="2" class="dot" fill="#2CA02C"/><circle cy="160.895" cx="114" r="2" class="dot" fill="#2CA02C"/><circle cy="70.386" cx="116.85" r="2" class="dot" fill="#2CA02C"/><circle cy="167.821" cx="119.7" r="2" class="dot" fill="#2CA02C"/><circle cy="65.72" cx="122.55" r="2" class="dot" fill="#2CA02C"/><circle cy="166.507" cx="125.4" r="2" class="dot" fill="#2CA02C"/><circle cy="67.167" cx="128.25" r="2" class="dot" fill="#2CA02C"/><circle cy="163.765" cx="131.1" r="2" class="dot" fill="#2CA02C"/><circle cy="127.453" cx="133.95" r="2" class="dot" fill="#2CA02C"/><circle cy="79.872" cx="136.8" r="2" class="dot" fill="#2CA02C"/><circle cy="37.918" cx="139.65" r="2" class="dot" fill="#2CA02C"/><circle cy="162.948" cx="142.5" r="2" class="dot" fill="#2CA02C"/><circle cy="70.411" cx="145.35" r="2" class="dot" fill="#2CA02C"/><circle cy="166.537" cx="148.2" r="2" class="dot" fill="#2CA02C"/><circle cy="78.246" cx="151.05" r="2" class="dot" fill="#2CA02C"/><circle cy="132.851" cx="153.9" r="2" class="dot" fill="#2CA02C"/><circle cy="71.396" cx="156.75" r="2" class="dot" fill="#2CA02C"/><circle cy="159.796" cx="159.6" r="2" class="dot" fill="#2CA02C"/><circle cy="161.519" cx="162.45" r="2" class="dot" fill="#2CA02C"/><circle cy="81.385" cx="165.3" r="2" class="dot" fill="#2CA02C"/><circle cy="167.231" cx="168.15" r="2" class="dot" fill="#2CA02C"/><circle cy="76.547" cx="171" r="2" class="dot" fill="#2CA02C"/><circle cy="164.441" cx="173.85" r="2" class="dot" fill="#2CA02C"/><circle cy="168.363" cx="176.7" r="2" class="dot" fill="#2CA02C"/><circle cy="75.726" cx="179.55" r="2" class="dot" fill="#2CA02C"/><circle cy="168.483" cx="182.4" r="2" class="dot" fill="#2CA02C"/><circle cy="166.424" cx="185.25" r="2" class="dot" fill="#2CA02C"/><circle cy="85.736" cx="188.1" r="2" class="dot" fill="#2CA02C"/><circle cy="163.786" cx="190.95" r="2" class="dot" fill="#2CA02C"/><circle cy="51.113" cx="193.8" r="2" class="dot" fill="#2CA02C"/><circle cy="163.108" cx="196.65" r="2" class="dot" fill="#2CA02C"/><circle cy="139.638" cx="199.5" r="2" class="dot" fill="#2CA02C"/><circle cy="113.751" cx="202.35" r="2" class="dot" fill="#2CA02C"/><circle cy="162.914" cx="205.2" r="2" class="dot" fill="#2CA02C"/><circle cy="165.961" cx="208.05" r="2" class="dot" fill="#2CA02C"/><circle cy="171.033" cx="210.9" r="2" class="dot" fill="#2CA02C"/><circle cy="171.41" cx="213.75" r="2" class="dot" fill="#2CA02C"/><circle cy="168.909" cx="216.6" r="2" class="dot" fill="#2CA02C"/><circle cy="170.687" cx="219.45" r="2" class="dot" fill="#2CA02C"/><circle cy="168.015" cx="222.3" r="2" class="dot" fill="#2CA02C"/><circle cy="170.884" cx="225.15" r="2" class="dot" fill="#2CA02C"/><circle cy="171.806" cx="228" r="2" class="dot" fill="#2CA02C"/><circle cy="169.623" cx="230.85" r="2" class="dot" fill="#2CA02C"/><circle cy="171.457" cx="233.7" r="2" class="dot" fill="#2CA02C"/><circle cy="170.107" cx="236.55" r="2" class="dot" fill="#2CA02C"/><circle cy="166.511" cx="239.4" r="2" class="dot" fill="#2CA02C"/><circle cy="168.379" cx="242.25" r="2" class="dot" fill="#2CA02C"/><circle cy="170.91" cx="245.1" r="2" class="dot" fill="#2CA02C"/><circle cy="171.193" cx="247.95" r="2" class="dot" fill="#2CA02C"/><circle cy="170.486" cx="250.8" r="2" class="dot" fill="#2CA02C"/><circle cy="169.208" cx="253.65" r="2" class="dot" fill="#2CA02C"/><circle cy="171.356" cx="256.5" r="2" class="dot" fill="#2CA02C"/><circle cy="170.77" cx="259.35" r="2" class="dot" fill="#2CA02C"/><circle cy="168.349" cx="262.2" r="2" class="dot" fill="#2CA02C"/><circle cy="170.477" cx="265.05" r="2" class="dot" fill="#2CA02C"/><circle cy="165.36" cx="267.9" r="2" class="dot" fill="#2CA02C"/><circle cy="170.093" cx="270.75" r="2" class="dot" fill="#2CA02C"/><circle cy="171.386" cx="273.6" r="2" class="dot" fill="#2CA02C"/><circle cy="170.945" cx="276.45" r="2" class="dot" fill="#2CA02C"/><circle cy="171.642" cx="279.3" r="2" class="dot" fill="#2CA02C"/><circle cy="171.209" cx="282.15" r="2" class="dot" fill="#2CA02C"/><g class="legend"><path fill="#1F77B4" d="M267 0h18v18h-18z"/><text dy=".35em" y="9" x="261" text-anchor="end">postMessage</text></g><g class="legend"><path fill="#FF7F0E" d="M267 20h18v18h-18z"/><text dy=".35em" y="9" x="261" text-anchor="end" transform="translate(0 20)">BC channel</text></g><g class="legend"><path fill="#2CA02C" d="M267 40h18v18h-18z"/><text dy=".35em" y="9" x="261" text-anchor="end" transform="translate(0 40)">threads</text></g></g></svg>