<svg xmlns="http://www.w3.org/2000/svg" height="240" width="320"><g transform="translate(30 5)"><g class="x axis"><text x="285" text-anchor="end" transform="translate(0 205)">Measure</text><g class="tick"><path d="M0 205v6"/><text y="9" dy=".71em" text-anchor="middle" transform="translate(0 205)">0</text></g><g class="tick"><path d="M28.5 205v6"/><text y="9" dy=".71em" text-anchor="middle" transform="translate(28.5 205)">10</text></g><g class="tick"><path d="M57 205v6"/><text y="9" dy=".71em" text-anchor="middle" transform="translate(57 205)">20</text></g><g class="tick"><path d="M85.5 205v6"/><text y="9" dy=".71em" text-anchor="middle" transform="translate(85.5 205)">30</text></g><g class="tick"><path d="M114 205v6"/><text y="9" dy=".71em" text-anchor="middle" transform="translate(114 205)">40</text></g><g class="tick"><path d="M142.5 205v6"/><text y="9" dy=".71em" text-anchor="middle" transform="translate(142.5 205)">50</text></g><g class="tick"><path d="M171 205v6"/><text y="9" dy=".71em" text-anchor="middle" transform="translate(171 205)">60</text></g><g class="tick"><path d="M199.5 205v6"/><text y="9" dy=".71em" text-anchor="middle" transform="translate(199.5 205)">70</text></g><g class="tick"><path d="M228 205v6"/><text y="9" dy=".71em" text-anchor="middle" transform="translate(228 205)">80</text></g><g class="tick"><path d="M256.5 205v6"/><text y="9" dy=".71em" text-anchor="middle" transform="translate(256.5 205)">90</text></g><g class="tick"><path d="M285 205v6"/><text y="9" dy=".71em" text-anchor="middle" transform="translate(285 205)">100</text></g><path d="M0 211v-6h285v6" class="domain"/></g><g class="y axis"><text dy=".71em" y="6" transform="rotate(-90)" text-anchor="end">Latency in ms</text><g class="tick"><path d="M0 205h-6"/><text x="-9" dy=".32em" text-anchor="end" transform="translate(0 205)">0</text></g><g class="tick"><path d="M0 181.984h-6"/><text x="-9" dy=".32em" text-anchor="end" transform="translate(0 181.984)">10</text></g><g class="tick"><path d="M0 158.968h-6"/><text x="-9" dy=".32em" text-anchor="end" transform="translate(0 158.968)">20</text></g><g class="tick"><path d="M0 135.952h-6"/><text x="-9" dy=".32em" text-anchor="end" transform="translate(0 135.952)">30</text></g><g class="tick"><path d="M0 112.936h-6"/><text x="-9" dy=".32em" text-anchor="end" transform="translate(0 112.936)">40</text></g><g class="tick"><path d="M0 89.92h-6"/><text x="-9" dy=".32em" text-anchor="end" transform="translate(0 89.919)">50</text></g><g class="tick"><path d="M0 66.903h-6"/><text x="-9" dy=".32em" text-anchor="end" transform="translate(0 66.903)">60</text></g><g class="tick"><path d="M0 43.887h-6"/><text x="-9" dy=".32em" text-anchor="end" transform="translate(0 43.887)">70</text></g><g class="tick"><path d="M0 20.87h-6"/><text x="-9" dy=".32em" text-anchor="end" transform="translate(0 20.871)">80</text></g><path d="M-6 0h6v205h-6" class="domain"/></g><circle cy="6.512" r="2" class="dot" fill="#1F77B4"/><circle cy="193.321" cx="2.85" r="2" class="dot" fill="#1F77B4"/><circle cy="182.732" cx="5.7" r="2" class="dot" fill="#1F77B4"/><circle cy="184.373" cx="8.55" r="2" class="dot" fill="#1F77B4"/><circle cy="194.618" cx="11.4" r="2" class="dot" fill="#1F77B4"/><circle cy="201.544" cx="14.25" r="2" class="dot" fill="#1F77B4"/><circle cy="202.947" cx="17.1" r="2" class="dot" fill="#1F77B4"/><circle cy="201.451" cx="19.95" r="2" class="dot" fill="#1F77B4"/><circle cy="202.602" cx="22.8" r="2" class="dot" fill="#1F77B4"/><circle cy="193.686" cx="25.65" r="2" class="dot" fill="#1F77B4"/><circle cy="195.079" cx="28.5" r="2" class="dot" fill="#1F77B4"/><circle cy="197.74" cx="31.35" r="2" class="dot" fill="#1F77B4"/><circle cy="198.977" cx="34.2" r="2" class="dot" fill="#1F77B4"/><circle cy="200.208" cx="37.05" r="2" class="dot" fill="#1F77B4"/><circle cy="203.202" cx="39.9" r="2" class="dot" fill="#1F77B4"/><circle cy="198.801" cx="42.75" r="2" class="dot" fill="#1F77B4"/><circle cy="196.844" cx="45.6" r="2" class="dot" fill="#1F77B4"/><circle cy="201.849" cx="48.45" r="2" class="dot" fill="#1F77B4"/><circle cy="196.904" cx="51.3" r="2" class="dot" fill="#1F77B4"/><circle cy="201.167" cx="54.15" r="2" class="dot" fill="#1F77B4"/><circle cy="200.361" cx="57" r="2" class="dot" fill="#1F77B4"/><circle cy="192.421" cx="59.85" r="2" class="dot" fill="#1F77B4"/><circle cy="202.728" cx="62.7" r="2" class="dot" fill="#1F77B4"/><circle cy="203.509" cx="65.55" r="2" class="dot" fill="#1F77B4"/><circle cy="203.613" cx="68.4" r="2" class="dot" fill="#1F77B4"/><circle cy="202.085" cx="71.25" r="2" class="dot" fill="#1F77B4"/><circle cy="200.663" cx="74.1" r="2" class="dot" fill="#1F77B4"/><circle cy="195.286" cx="76.95" r="2" class="dot" fill="#1F77B4"/><circle cy="194.393" cx="79.8" r="2" class="dot" fill="#1F77B4"/><circle cy="200.798" cx="82.65" r="2" class="dot" fill="#1F77B4"/><circle cy="200.202" cx="85.5" r="2" class="dot" fill="#1F77B4"/><circle cy="202.597" cx="88.35" r="2" class="dot" fill="#1F77B4"/><circle cy="200.547" cx="91.2" r="2" class="dot" fill="#1F77B4"/><circle cy="194.733" cx="94.05" r="2" class="dot" fill="#1F77B4"/><circle cy="200.957" cx="96.9" r="2" class="dot" fill="#1F77B4"/><circle cy="202.701" cx="99.75" r="2" class="dot" fill="#1F77B4"/><circle cy="197.858" cx="102.6" r="2" class="dot" fill="#1F77B4"/><circle cy="193.31" cx="105.45" r="2" class="dot" fill="#1F77B4"/><circle cy="200.428" cx="108.3" r="2" class="dot" fill="#1F77B4"/><circle cy="199.912" cx="111.15" r="2" class="dot" fill="#1F77B4"/><circle cy="200.214" cx="114" r="2" class="dot" fill="#1F77B4"/><circle cy="200.103" cx="116.85" r="2" class="dot" fill="#1F77B4"/><circle cy="200.788" cx="119.7" r="2" class="dot" fill="#1F77B4"/><circle cy="203.616" cx="122.55" r="2" class="dot" fill="#1F77B4"/><circle cy="192.622" cx="125.4" r="2" class="dot" fill="#1F77B4"/><circle cy="202.607" cx="128.25" r="2" class="dot" fill="#1F77B4"/><circle cy="202.233" cx="131.1" r="2" class="dot" fill="#1F77B4"/><circle cy="199.582" cx="133.95" r="2" class="dot" fill="#1F77B4"/><circle cy="201.831" cx="136.8" r="2" class="dot" fill="#1F77B4"/><circle cy="201.735" cx="139.65" r="2" class="dot" fill="#1F77B4"/><circle cy="204.351" cx="142.5" r="2" class="dot" fill="#1F77B4"/><circle cy="201.136" cx="145.35" r="2" class="dot" fill="#1F77B4"/><circle cy="201.789" cx="148.2" r="2" class="dot" fill="#1F77B4"/><circle cy="201.14" cx="151.05" r="2" class="dot" fill="#1F77B4"/><circle cy="203.725" cx="153.9" r="2" class="dot" fill="#1F77B4"/><circle cy="200.796" cx="156.75" r="2" class="dot" fill="#1F77B4"/><circle cy="203.473" cx="159.6" r="2" class="dot" fill="#1F77B4"/><circle cy="201.143" cx="162.45" r="2" class="dot" fill="#1F77B4"/><circle cy="203.771" cx="165.3" r="2" class="dot" fill="#1F77B4"/><circle cy="201.421" cx="168.15" r="2" class="dot" fill="#1F77B4"/><circle cy="203.415" cx="171" r="2" class="dot" fill="#1F77B4"/><circle cy="201.028" cx="173.85" r="2" class="dot" fill="#1F77B4"/><circle cy="203.11" cx="176.7" r="2" class="dot" fill="#1F77B4"/><circle cy="200.276" cx="179.55" r="2" class="dot" fill="#1F77B4"/><circle cy="203.558" cx="182.4" r="2" class="dot" fill="#1F77B4"/><circle cy="201.977" cx="185.25" r="2" class="dot" fill="#1F77B4"/><circle cy="202.284" cx="188.1" r="2" class="dot" fill="#1F77B4"/><circle cy="203.437" cx="190.95" r="2" class="dot" fill="#1F77B4"/><circle cy="203.932" cx="193.8" r="2" class="dot" fill="#1F77B4"/><circle cy="200.041" cx="196.65" r="2" class="dot" fill="#1F77B4"/><circle cy="203.542" cx="199.5" r="2" class="dot" fill="#1F77B4"/><circle cy="203.921" cx="202.35" r="2" class="dot" fill="#1F77B4"/><circle cy="203.306" cx="205.2" r="2" class="dot" fill="#1F77B4"/><circle cy="203.759" cx="208.05" r="2" class="dot" fill="#1F77B4"/><circle cy="202.679" cx="210.9" r="2" class="dot" fill="#1F77B4"/><circle cy="200.369" cx="213.75" r="2" class="dot" fill="#1F77B4"/><circle cy="202.574" cx="216.6" r="2" class="dot" fill="#1F77B4"/><circle cy="204.383" cx="219.45" r="2" class="dot" fill="#1F77B4"/><circle cy="204.388" cx="222.3" r="2" class="dot" fill="#1F77B4"/><circle cy="204.439" cx="225.15" r="2" class="dot" fill="#1F77B4"/><circle cy="203.063" cx="228" r="2" class="dot" fill="#1F77B4"/><circle cy="202.594" cx="230.85" r="2" class="dot" fill="#1F77B4"/><circle cy="201.832" cx="233.7" r="2" class="dot" fill="#1F77B4"/><circle cy="199.623" cx="236.55" r="2" class="dot" fill="#1F77B4"/><circle cy="202.141" cx="239.4" r="2" class="dot" fill="#1F77B4"/><circle cy="201.61" cx="242.25" r="2" class="dot" fill="#1F77B4"/><circle cy="200.555" cx="245.1" r="2" class="dot" fill="#1F77B4"/><circle cy="203.064" cx="247.95" r="2" class="dot" fill="#1F77B4"/><circle cy="203.272" cx="250.8" r="2" class="dot" fill="#1F77B4"/><circle cy="203.285" cx="253.65" r="2" class="dot" fill="#1F77B4"/><circle cy="200.542" cx="256.5" r="2" class="dot" fill="#1F77B4"/><circle cy="202.919" cx="259.35" r="2" class="dot" fill="#1F77B4"/><circle cy="202.878" cx="262.2" r="2" class="dot" fill="#1F77B4"/><circle cy="202.865" cx="265.05" r="2" class="dot" fill="#1F77B4"/><circle cy="199.813" cx="267.9" r="2" class="dot" fill="#1F77B4"/><circle cy="201.765" cx="270.75" r="2" class="dot" fill="#1F77B4"/><circle cy="203.522" cx="273.6" r="2" class="dot" fill="#1F77B4"/><circle cy="203.051" cx="276.45" r="2" class="dot" fill="#1F77B4"/><circle cy="203.261" cx="279.3" r="2" class="dot" fill="#1F77B4"/><circle cy="200.996" cx="282.15" r="2" class="dot" fill="#1F77B4"/><circle r="2" class="dot" fill="#FF7F0E"/><circle cy="154.44" cx="2.85" r="2" class="dot" fill="#FF7F0E"/><circle cy="192.291" cx="5.7" r="2" class="dot" fill="#FF7F0E"/><circle cy="198.863" cx="8.55" r="2" class="dot" fill="#FF7F0E"/><circle cy="190.344" cx="11.4" r="2" class="dot" fill="#FF7F0E"/><circle cy="187.921" cx="14.25" r="2" class="dot" fill="#FF7F0E"/><circle cy="193.893" cx="17.1" r="2" class="dot" fill="#FF7F0E"/><circle cy="197.402" cx="19.95" r="2" class="dot" fill="#FF7F0E"/><circle cy="196.834" cx="22.8" r="2" class="dot" fill="#FF7F0E"/><circle cy="193.724" cx="25.65" r="2" class="dot" fill="#FF7F0E"/><circle cy="186.447" cx="28.5" r="2" class="dot" fill="#FF7F0E"/><circle cy="192.234" cx="31.35" r="2" class="dot" fill="#FF7F0E"/><circle cy="186.269" cx="34.2" r="2" class="dot" fill="#FF7F0E"/><circle cy="197.883" cx="37.05" r="2" class="dot" fill="#FF7F0E"/><circle cy="199.971" cx="39.9" r="2" class="dot" fill="#FF7F0E"/><circle cy="191.218" cx="42.75" r="2" class="dot" fill="#FF7F0E"/><circle cy="196.466" cx="45.6" r="2" class="dot" fill="#FF7F0E"/><circle cy="185.152" cx="48.45" r="2" class="dot" fill="#FF7F0E"/><circle cy="195.035" cx="51.3" r="2" class="dot" fill="#FF7F0E"/><circle cy="197.75" cx="54.15" r="2" class="dot" fill="#FF7F0E"/><circle cy="184.576" cx="57" r="2" class="dot" fill="#FF7F0E"/><circle cy="191.945" cx="59.85" r="2" class="dot" fill="#FF7F0E"/><circle cy="192.655" cx="62.7" r="2" class="dot" fill="#FF7F0E"/><circle cy="193.953" cx="65.55" r="2" class="dot" fill="#FF7F0E"/><circle cy="194.571" cx="68.4" r="2" class="dot" fill="#FF7F0E"/><circle cy="194.172" cx="71.25" r="2" class="dot" fill="#FF7F0E"/><circle cy="189.798" cx="74.1" r="2" class="dot" fill="#FF7F0E"/><circle cy="195.372" cx="76.95" r="2" class="dot" fill="#FF7F0E"/><circle cy="193.093" cx="79.8" r="2" class="dot" fill="#FF7F0E"/><circle cy="194.632" cx="82.65" r="2" class="dot" fill="#FF7F0E"/><circle cy="195.928" cx="85.5" r="2" class="dot" fill="#FF7F0E"/><circle cy="197.695" cx="88.35" r="2" class="dot" fill="#FF7F0E"/><circle cy="196.32" cx="91.2" r="2" class="dot" fill="#FF7F0E"/><circle cy="198.009" cx="94.05" r="2" class="dot" fill="#FF7F0E"/><circle cy="198.208" cx="96.9" r="2" class="dot" fill="#FF7F0E"/><circle cy="115.372" cx="99.75" r="2" class="dot" fill="#FF7F0E"/><circle cy="201.622" cx="102.6" r="2" class="dot" fill="#FF7F0E"/><circle cy="201.831" cx="105.45" r="2" class="dot" fill="#FF7F0E"/><circle cy="199.335" cx="108.3" r="2" class="dot" fill="#FF7F0E"/><circle cy="201.058" cx="111.15" r="2" class="dot" fill="#FF7F0E"/><circle cy="199.67" cx="114" r="2" class="dot" fill="#FF7F0E"/><circle cy="2.361" cx="116.85" r="2" class="dot" fill="#FF7F0E"/><circle cy="197.746" cx="119.7" r="2" class="dot" fill="#FF7F0E"/><circle cy="199.101" cx="122.55" r="2" class="dot" fill="#FF7F0E"/><circle cy="196.111" cx="125.4" r="2" class="dot" fill="#FF7F0E"/><circle cy="169.738" cx="128.25" r="2" class="dot" fill="#FF7F0E"/><circle cy="185.047" cx="131.1" r="2" class="dot" fill="#FF7F0E"/><circle cy="194.537" cx="133.95" r="2" class="dot" fill="#FF7F0E"/><circle cy="199.243" cx="136.8" r="2" class="dot" fill="#FF7F0E"/><circle cy="199.025" cx="139.65" r="2" class="dot" fill="#FF7F0E"/><circle cy="197.119" cx="142.5" r="2" class="dot" fill="#FF7F0E"/><circle cy="195.042" cx="145.35" r="2" class="dot" fill="#FF7F0E"/><circle cy="195.642" cx="148.2" r="2" class="dot" fill="#FF7F0E"/><circle cy="196.044" cx="151.05" r="2" class="dot" fill="#FF7F0E"/><circle cy="201.248" cx="153.9" r="2" class="dot" fill="#FF7F0E"/><circle cy="199.058" cx="156.75" r="2" class="dot" fill="#FF7F0E"/><circle cy="201.628" cx="159.6" r="2" class="dot" fill="#FF7F0E"/><circle cy="198.668" cx="162.45" r="2" class="dot" fill="#FF7F0E"/><circle cy="201.72" cx="165.3" r="2" class="dot" fill="#FF7F0E"/><circle cy="201.9" cx="168.15" r="2" class="dot" fill="#FF7F0E"/><circle cy="198.89" cx="171" r="2" class="dot" fill="#FF7F0E"/><circle cy="201.812" cx="173.85" r="2" class="dot" fill="#FF7F0E"/><circle cy="196.167" cx="176.7" r="2" class="dot" fill="#FF7F0E"/><circle cy="199.165" cx="179.55" r="2" class="dot" fill="#FF7F0E"/><circle cy="202.111" cx="182.4" r="2" class="dot" fill="#FF7F0E"/><circle cy="199.956" cx="185.25" r="2" class="dot" fill="#FF7F0E"/><circle cy="201.461" cx="188.1" r="2" class="dot" fill="#FF7F0E"/><circle cy="202.069" cx="190.95" r="2" class="dot" fill="#FF7F0E"/><circle cy="200.714" cx="193.8" r="2" class="dot" fill="#FF7F0E"/><circle cy="201.514" cx="196.65" r="2" class="dot" fill="#FF7F0E"/><circle cy="202.125" cx="199.5" r="2" class="dot" fill="#FF7F0E"/><circle cy="202.183" cx="202.35" r="2" class="dot" fill="#FF7F0E"/><circle cy="199.535" cx="205.2" r="2" class="dot" fill="#FF7F0E"/><circle cy="201.616" cx="208.05" r="2" class="dot" fill="#FF7F0E"/><circle cy="202.122" cx="210.9" r="2" class="dot" fill="#FF7F0E"/><circle cy="202.111" cx="213.75" r="2" class="dot" fill="#FF7F0E"/><circle cy="200.147" cx="216.6" r="2" class="dot" fill="#FF7F0E"/><circle cy="201.73" cx="219.45" r="2" class="dot" fill="#FF7F0E"/><circle cy="202.135" cx="222.3" r="2" class="dot" fill="#FF7F0E"/><circle cy="199.704" cx="225.15" r="2" class="dot" fill="#FF7F0E"/><circle cy="190.434" cx="228" r="2" class="dot" fill="#FF7F0E"/><circle cy="198.543" cx="230.85" r="2" class="dot" fill="#FF7F0E"/><circle cy="199.156" cx="233.7" r="2" class="dot" fill="#FF7F0E"/><circle cy="201.828" cx="236.55" r="2" class="dot" fill="#FF7F0E"/><circle cy="202.075" cx="239.4" r="2" class="dot" fill="#FF7F0E"/><circle cy="199.008" cx="242.25" r="2" class="dot" fill="#FF7F0E"/><circle cy="201.975" cx="245.1" r="2" class="dot" fill="#FF7F0E"/><circle cy="199.194" cx="247.95" r="2" class="dot" fill="#FF7F0E"/><circle cy="201.63" cx="250.8" r="2" class="dot" fill="#FF7F0E"/><circle cy="202.159" cx="253.65" r="2" class="dot" fill="#FF7F0E"/><circle cy="199.486" cx="256.5" r="2" class="dot" fill="#FF7F0E"/><circle cy="201.53" cx="259.35" r="2" class="dot" fill="#FF7F0E"/><circle cy="183.264" cx="262.2" r="2" class="dot" fill="#FF7F0E"/><circle cy="196.64" cx="265.05" r="2" class="dot" fill="#FF7F0E"/><circle cy="197.812" cx="267.9" r="2" class="dot" fill="#FF7F0E"/><circle cy="198.476" cx="270.75" r="2" class="dot" fill="#FF7F0E"/><circle cy="200.784" cx="273.6" r="2" class="dot" fill="#FF7F0E"/><circle cy="198.772" cx="276.45" r="2" class="dot" fill="#FF7F0E"/><circle cy="202.006" cx="279.3" r="2" class="dot" fill="#FF7F0E"/><circle cy="201.539" cx="282.15" r="2" class="dot" fill="#FF7F0E"/><circle cy="162.223" r="2" class="dot" fill="#2CA02C"/><circle cy="179.007" cx="2.85" r="2" class="dot" fill="#2CA02C"/><circle cy="187.353" cx="5.7" r="2" class="dot" fill="#2CA02C"/><circle cy="193.061" cx="8.55" r="2" class="dot" fill="#2CA02C"/><circle cy="192.281" cx="11.4" r="2" class="dot" fill="#2CA02C"/><circle cy="190.804" cx="14.25" r="2" class="dot" fill="#2CA02C"/><circle cy="189.232" cx="17.1" r="2" class="dot" fill="#2CA02C"/><circle cy="186.55" cx="19.95" r="2" class="dot" fill="#2CA02C"/><circle cy="189.944" cx="22.8" r="2" class="dot" fill="#2CA02C"/><circle cy="177.704" cx="25.65" r="2" class="dot" fill="#2CA02C"/><circle cy="189.702" cx="28.5" r="2" class="dot" fill="#2CA02C"/><circle cy="181.124" cx="31.35" r="2" class="dot" fill="#2CA02C"/><circle cy="193.689" cx="34.2" r="2" class="dot" fill="#2CA02C"/><circle cy="176.326" cx="37.05" r="2" class="dot" fill="#2CA02C"/><circle cy="193.619" cx="39.9" r="2" class="dot" fill="#2CA02C"/><circle cy="192.989" cx="42.75" r="2" class="dot" fill="#2CA02C"/><circle cy="193.936" cx="45.6" r="2" class="dot" fill="#2CA02C"/><circle cy="193.429" cx="48.45" r="2" class="dot" fill="#2CA02C"/><circle cy="190.252" cx="51.3" r="2" class="dot" fill="#2CA02C"/><circle cy="191.273" cx="54.15" r="2" class="dot" fill="#2CA02C"/><circle cy="187.495" cx="57" r="2" class="dot" fill="#2CA02C"/><circle cy="194.473" cx="59.85" r="2" class="dot" fill="#2CA02C"/><circle cy="194.562" cx="62.7" r="2" class="dot" fill="#2CA02C"/><circle cy="193.277" cx="65.55" r="2" class="dot" fill="#2CA02C"/><circle cy="192.569" cx="68.4" r="2" class="dot" fill="#2CA02C"/><circle cy="107.683" cx="71.25" r="2" class="dot" fill="#2CA02C"/><circle cy="28.383" cx="74.1" r="2" class="dot" fill="#2CA02C"/><circle cy="162.777" cx="76.95" r="2" class="dot" fill="#2CA02C"/><circle cy="194.932" cx="79.8" r="2" class="dot" fill="#2CA02C"/><circle cy="196.33" cx="82.65" r="2" class="dot" fill="#2CA02C"/><circle cy="169.21" cx="85.5" r="2" class="dot" fill="#2CA02C"/><circle cy="190.079" cx="88.35" r="2" class="dot" fill="#2CA02C"/><circle cy="193.532" cx="91.2" r="2" class="dot" fill="#2CA02C"/><circle cy="195.882" cx="94.05" r="2" class="dot" fill="#2CA02C"/><circle cy="194.625" cx="96.9" r="2" class="dot" fill="#2CA02C"/><circle cy="194.94" cx="99.75" r="2" class="dot" fill="#2CA02C"/><circle cy="195.591" cx="102.6" r="2" class="dot" fill="#2CA02C"/><circle cy="196.058" cx="105.45" r="2" class="dot" fill="#2CA02C"/><circle cy="195.377" cx="108.3" r="2" class="dot" fill="#2CA02C"/><circle cy="195.06" cx="111.15" r="2" class="dot" fill="#2CA02C"/><circle cy="194.998" cx="114" r="2" class="dot" fill="#2CA02C"/><circle cy="195.595" cx="116.85" r="2" class="dot" fill="#2CA02C"/><circle cy="196.364" cx="119.7" r="2" class="dot" fill="#2CA02C"/><circle cy="194.223" cx="122.55" r="2" class="dot" fill="#2CA02C"/><circle cy="194.497" cx="125.4" r="2" class="dot" fill="#2CA02C"/><circle cy="190.313" cx="128.25" r="2" class="dot" fill="#2CA02C"/><circle cy="190.756" cx="131.1" r="2" class="dot" fill="#2CA02C"/><circle cy="186.784" cx="133.95" r="2" class="dot" fill="#2CA02C"/><circle cy="193.486" cx="136.8" r="2" class="dot" fill="#2CA02C"/><circle cy="195.848" cx="139.65" r="2" class="dot" fill="#2CA02C"/><circle cy="194.77" cx="142.5" r="2" class="dot" fill="#2CA02C"/><circle cy="193.344" cx="145.35" r="2" class="dot" fill="#2CA02C"/><circle cy="193.131" cx="148.2" r="2" class="dot" fill="#2CA02C"/><circle cy="186.168" cx="151.05" r="2" class="dot" fill="#2CA02C"/><circle cy="190.487" cx="153.9" r="2" class="dot" fill="#2CA02C"/><circle cy="194.231" cx="156.75" r="2" class="dot" fill="#2CA02C"/><circle cy="193.782" cx="159.6" r="2" class="dot" fill="#2CA02C"/><circle cy="123.12" cx="162.45" r="2" class="dot" fill="#2CA02C"/><circle cy="21.56" cx="165.3" r="2" class="dot" fill="#2CA02C"/><circle cy="139.844" cx="168.15" r="2" class="dot" fill="#2CA02C"/><circle cy="195.689" cx="171" r="2" class="dot" fill="#2CA02C"/><circle cy="195.926" cx="173.85" r="2" class="dot" fill="#2CA02C"/><circle cy="194.45" cx="176.7" r="2" class="dot" fill="#2CA02C"/><circle cy="195.64" cx="179.55" r="2" class="dot" fill="#2CA02C"/><circle cy="196.692" cx="182.4" r="2" class="dot" fill="#2CA02C"/><circle cy="196.514" cx="185.25" r="2" class="dot" fill="#2CA02C"/><circle cy="196.111" cx="188.1" r="2" class="dot" fill="#2CA02C"/><circle cy="189.068" cx="190.95" r="2" class="dot" fill="#2CA02C"/><circle cy="195.879" cx="193.8" r="2" class="dot" fill="#2CA02C"/><circle cy="196.139" cx="196.65" r="2" class="dot" fill="#2CA02C"/><circle cy="196.377" cx="199.5" r="2" class="dot" fill="#2CA02C"/><circle cy="196.496" cx="202.35" r="2" class="dot" fill="#2CA02C"/><circle cy="196.12" cx="205.2" r="2" class="dot" fill="#2CA02C"/><circle cy="195.502" cx="208.05" r="2" class="dot" fill="#2CA02C"/><circle cy="195.916" cx="210.9" r="2" class="dot" fill="#2CA02C"/><circle cy="196.007" cx="213.75" r="2" class="dot" fill="#2CA02C"/><circle cy="195.968" cx="216.6" r="2" class="dot" fill="#2CA02C"/><circle cy="196.343" cx="219.45" r="2" class="dot" fill="#2CA02C"/><circle cy="195.244" cx="222.3" r="2" class="dot" fill="#2CA02C"/><circle cy="196.171" cx="225.15" r="2" class="dot" fill="#2CA02C"/><circle cy="196.459" cx="228" r="2" class="dot" fill="#2CA02C"/><circle cy="197.454" cx="230.85" r="2" class="dot" fill="#2CA02C"/><circle cy="197.785" cx="233.7" r="2" class="dot" fill="#2CA02C"/><circle cy="198.022" cx="236.55" r="2" class="dot" fill="#2CA02C"/><circle cy="198.574" cx="239.4" r="2" class="dot" fill="#2CA02C"/><circle cy="198.64" cx="242.25" r="2" class="dot" fill="#2CA02C"/><circle cy="198.721" cx="245.1" r="2" class="dot" fill="#2CA02C"/><circle cy="198.323" cx="247.95" r="2" class="dot" fill="#2CA02C"/><circle cy="198.375" cx="250.8" r="2" class="dot" fill="#2CA02C"/><circle cy="198.433" cx="253.65" r="2" class="dot" fill="#2CA02C"/><circle cy="198.242" cx="256.5" r="2" class="dot" fill="#2CA02C"/><circle cy="198.139" cx="259.35" r="2" class="dot" fill="#2CA02C"/><circle cy="198.365" cx="262.2" r="2" class="dot" fill="#2CA02C"/><circle cy="198.047" cx="265.05" r="2" class="dot" fill="#2CA02C"/><circle cy="198.24" cx="267.9" r="2" class="dot" fill="#2CA02C"/><circle cy="198.446" cx="270.75" r="2" class="dot" fill="#2CA02C"/><circle cy="198.511" cx="273.6" r="2" class="dot" fill="#2CA02C"/><circle cy="198.225" cx="276.45" r="2" class="dot" fill="#2CA02C"/><circle cy="197.912" cx="279.3" r="2" class="dot" fill="#2CA02C"/><circle cy="198.148" cx="282.15" r="2" class="dot" fill="#2CA02C"/><g class="legend"><path fill="#1F77B4" d="M267 0h18v18h-18z"/><text dy=".35em" y="9" x="261" text-anchor="end">postMessage</text></g><g class="legend"><path fill="#FF7F0E" d="M267 20h18v18h-18z"/><text dy=".35em" y="9" x="261" text-anchor="end" transform="translate(0 20)">BC channel</text></g><g class="legend"><path fill="#2CA02C" d="M267 40h18v18h-18z"/><text dy=".35em" y="9" x="261" text-anchor="end" transform="translate(0 40)">threads</text></g></g></svg>