<svg xmlns="http://www.w3.org/2000/svg" height="240" width="320"><g font-size="12" font-family="Arial"><g class="x axis"><text dy=".71em" y="6" transform="translate(30 222)" lengthAdjust="spacingAndGlyphs" textLength="81.667">postMessage</text><text dy=".71em" y="6" transform="translate(111.667 222)" fill="grey" lengthAdjust="spacingAndGlyphs" textLength="81.667">BC channel</text><text dy=".71em" y="6" transform="translate(193.333 222)" lengthAdjust="spacingAndGlyphs" textLength="81.667">threads</text><g font-size="8"><g class="tick"><path d="M43 210v6"/><text y="9" dy=".71em" text-anchor="middle" transform="translate(43 210)">x</text></g><g class="tick"><path d="M63 210v6"/><text y="9" dy=".71em" text-anchor="middle" transform="translate(63 210)">M</text></g><g class="tick"><path d="M83 210v6"/><text y="9" dy=".71em" text-anchor="middle" transform="translate(83 210)">90%</text></g><g class="tick"><path d="M103 210v6"/><text y="9" dy=".71em" text-anchor="middle" transform="translate(103 210)">95%</text></g><g class="tick"><path d="M123 210v6"/><text y="9" dy=".71em" text-anchor="middle" transform="translate(123 210)">x</text></g><g class="tick"><path d="M143 210v6"/><text y="9" dy=".71em" text-anchor="middle" transform="translate(143 210)">M</text></g><g class="tick"><path d="M163 210v6"/><text y="9" dy=".71em" text-anchor="middle" transform="translate(163 210)">90%</text></g><g class="tick"><path d="M183 210v6"/><text y="9" dy=".71em" text-anchor="middle" transform="translate(183 210)">95%</text></g><g class="tick"><path d="M203 210v6"/><text y="9" dy=".71em" text-anchor="middle" transform="translate(203 210)">x</text></g><g class="tick"><path d="M223 210v6"/><text y="9" dy=".71em" text-anchor="middle" transform="translate(223 210)">M</text></g><g class="tick"><path d="M243 210v6"/><text y="9" dy=".71em" text-anchor="middle" transform="translate(243 210)">90%</text></g><g class="tick"><path d="M263 210v6"/><text y="9" dy=".71em" text-anchor="middle" transform="translate(263 210)">95%</text></g><path d="M30 216v-6h245v6" class="domain"/></g></g><g class="y axis"><text dy=".71em" y="6" transform="matrix(0 -1 1 0 30 5)" text-anchor="end">Latency (ms)</text><g class="tick"><path d="M30 210h-6"/><text x="-9" dy=".32em" text-anchor="end" transform="translate(30 210)">0</text></g><g class="tick"><path d="M30 191.783h-6"/><text x="-9" dy=".32em" text-anchor="end" transform="translate(30 191.783)">5</text></g><g class="tick"><path d="M30 173.565h-6"/><text x="-9" dy=".32em" text-anchor="end" transform="translate(30 173.565)">10</text></g><g class="tick"><path d="M30 155.348h-6"/><text x="-9" dy=".32em" text-anchor="end" transform="translate(30 155.348)">15</text></g><g class="tick"><path d="M30 137.13h-6"/><text x="-9" dy=".32em" text-anchor="end" transform="translate(30 137.13)">20</text></g><g class="tick"><path d="M30 118.914h-6"/><text x="-9" dy=".32em" text-anchor="end" transform="translate(30 118.914)">25</text></g><g class="tick"><path d="M30 100.696h-6"/><text x="-9" dy=".32em" text-anchor="end" transform="translate(30 100.696)">30</text></g><g class="tick"><path d="M30 82.48h-6"/><text x="-9" dy=".32em" text-anchor="end" transform="translate(30 82.48)">35</text></g><g class="tick"><path d="M30 64.262h-6"/><text x="-9" dy=".32em" text-anchor="end" transform="translate(30 64.262)">40</text></g><g class="tick"><path d="M30 46.045h-6"/><text x="-9" dy=".32em" text-anchor="end" transform="translate(30 46.045)">45</text></g><g class="tick"><path d="M30 27.827h-6"/><text x="-9" dy=".32em" text-anchor="end" transform="translate(30 27.827)">50</text></g><g class="tick"><path d="M30 9.61h-6"/><text x="-9" dy=".32em" text-anchor="end" transform="translate(30 9.61)">55</text></g><path d="M24 5h6v205h-6" class="domain"/></g><path class="bar" fill="#1F77B4" d="M34 67.836h18V210H34z"/><path class="bar" fill="#FF7F0E" d="M54 44.443h18V210H54z"/><path class="bar" fill="#2CA02C" d="M74 8.787h18V210H74z"/><path class="bar" fill="#D62728" d="M94 5h18v205H94z"/><path class="bar" fill="#1F77B4" d="M114 189.13h18V210h-18z"/><path class="bar" fill="#FF7F0E" d="M134 188.69h18V210h-18z"/><path class="bar" fill="#2CA02C" d="M154 186.09h18V210h-18z"/><path class="bar" fill="#D62728" d="M174 185.096h18V210h-18z"/><path class="bar" fill="#1F77B4" d="M194 190.043h18V210h-18z"/><path class="bar" fill="#FF7F0E" d="M214 189.584h18V210h-18z"/><path class="bar" fill="#2CA02C" d="M234 186.844h18V210h-18z"/><path class="bar" fill="#D62728" d="M254 186.385h18V210h-18z"/><g class="caption"><g class="legend"><path fill="#1F77B4" d="M302 5h18v18h-18z"/><text dy=".35em" y="9" x="221" text-anchor="end" transform="translate(75 5)">x</text></g><g class="legend"><path fill="#FF7F0E" d="M302 25h18v18h-18z"/><text dy=".35em" y="9" x="221" text-anchor="end" transform="translate(75 25)">M</text></g><g class="legend"><path fill="#2CA02C" d="M302 45h18v18h-18z"/><text dy=".35em" y="9" x="221" text-anchor="end" transform="translate(75 45)">90%</text></g><g class="legend"><path fill="#D62728" d="M302 65h18v18h-18z"/><text dy=".35em" y="9" x="221" text-anchor="end" transform="translate(75 65)">95%</text></g></g></g></svg>