<svg xmlns="http://www.w3.org/2000/svg" height="240" width="320"><g transform="translate(30 5)" font-size="12" font-family="Arial"><g class="x axis"><text y="-6" x="285" text-anchor="end" transform="translate(0 205)">Message size (kB)</text><g class="tick"><path d="M0 205v6"/><text y="9" dy=".71em" text-anchor="middle" transform="translate(0 205)">0</text></g><g class="tick"><path d="M27.832 205v6"/><text y="9" dy=".71em" text-anchor="middle" transform="translate(27.832 205)">195</text></g><g class="tick"><path d="M55.664 205v6"/><text y="9" dy=".71em" text-anchor="middle" transform="translate(55.664 205)">391</text></g><g class="tick"><path d="M83.496 205v6"/><text y="9" dy=".71em" text-anchor="middle" transform="translate(83.496 205)">586</text></g><g class="tick"><path d="M111.328 205v6"/><text y="9" dy=".71em" text-anchor="middle" transform="translate(111.328 205)">781</text></g><g class="tick"><path d="M139.16 205v6"/><text y="9" dy=".71em" text-anchor="middle" transform="translate(139.16 205)">977</text></g><g class="tick"><path d="M166.992 205v6"/><text y="9" dy=".71em" text-anchor="middle" transform="translate(166.992 205)">1172</text></g><g class="tick"><path d="M194.824 205v6"/><text y="9" dy=".71em" text-anchor="middle" transform="translate(194.824 205)">1367</text></g><g class="tick"><path d="M222.656 205v6"/><text y="9" dy=".71em" text-anchor="middle" transform="translate(222.656 205)">1563</text></g><g class="tick"><path d="M250.488 205v6"/><text y="9" dy=".71em" text-anchor="middle" transform="translate(250.488 205)">1758</text></g><g class="tick"><path d="M278.32 205v6"/><text y="9" dy=".71em" text-anchor="middle" transform="translate(278.32 205)">1953</text></g><path d="M0 211v-6h285v6" class="domain"/></g><g class="y axis"><text dy=".71em" y="6" transform="rotate(-90)" text-anchor="end">Latency (ms)</text><g class="tick"><path d="M0 205h-6"/><text x="-9" dy=".32em" text-anchor="end" transform="translate(0 205)">0</text></g><g class="tick"><path d="M0 185.73h-6"/><text x="-9" dy=".32em" text-anchor="end" transform="translate(0 185.729)">50</text></g><g class="tick"><path d="M0 166.458h-6"/><text x="-9" dy=".32em" text-anchor="end" transform="translate(0 166.458)">100</text></g><g class="tick"><path d="M0 147.186h-6"/><text x="-9" dy=".32em" text-anchor="end" transform="translate(0 147.186)">150</text></g><g class="tick"><path d="M0 127.915h-6"/><text x="-9" dy=".32em" text-anchor="end" transform="translate(0 127.915)">200</text></g><g class="tick"><path d="M0 108.644h-6"/><text x="-9" dy=".32em" text-anchor="end" transform="translate(0 108.644)">250</text></g><g class="tick"><path d="M0 89.373h-6"/><text x="-9" dy=".32em" text-anchor="end" transform="translate(0 89.373)">300</text></g><g class="tick"><path d="M0 70.102h-6"/><text x="-9" dy=".32em" text-anchor="end" transform="translate(0 70.102)">350</text></g><g class="tick"><path d="M0 50.83h-6"/><text x="-9" dy=".32em" text-anchor="end" transform="translate(0 50.831)">400</text></g><g class="tick"><path d="M0 31.56h-6"/><text x="-9" dy=".32em" text-anchor="end" transform="translate(0 31.559)">450</text></g><g class="tick"><path d="M0 12.288h-6"/><text x="-9" dy=".32em" text-anchor="end" transform="translate(0 12.288)">500</text></g><path d="M-6 0h6v205h-6" class="domain"/></g><circle cy="199.636" cx="2.85" r="2" class="dot" fill="#1F77B4"/><circle cy="202.264" cx="5.7" r="2" class="dot" fill="#1F77B4"/><circle cy="201.495" cx="8.55" r="2" class="dot" fill="#1F77B4"/><circle cy="201.802" cx="11.4" r="2" class="dot" fill="#1F77B4"/><circle cy="202.177" cx="14.25" r="2" class="dot" fill="#1F77B4"/><circle cy="201.326" cx="17.1" r="2" class="dot" fill="#1F77B4"/><circle cy="200.544" cx="19.95" r="2" class="dot" fill="#1F77B4"/><circle cy="200.231" cx="22.8" r="2" class="dot" fill="#1F77B4"/><circle cy="200.478" cx="25.65" r="2" class="dot" fill="#1F77B4"/><circle cy="201.172" cx="28.5" r="2" class="dot" fill="#1F77B4"/><circle cy="81.283" cx="31.35" r="2" class="dot" fill="#1F77B4"/><circle cy="195.169" cx="34.2" r="2" class="dot" fill="#1F77B4"/><circle cy="196.151" cx="37.05" r="2" class="dot" fill="#1F77B4"/><circle cy="197.408" cx="39.9" r="2" class="dot" fill="#1F77B4"/><circle cy="198.101" cx="42.75" r="2" class="dot" fill="#1F77B4"/><circle cy="200.21" cx="45.6" r="2" class="dot" fill="#1F77B4"/><circle cy="197.309" cx="48.45" r="2" class="dot" fill="#1F77B4"/><circle cy="198.401" cx="51.3" r="2" class="dot" fill="#1F77B4"/><circle cy="191.146" cx="54.15" r="2" class="dot" fill="#1F77B4"/><circle cy="196.668" cx="57" r="2" class="dot" fill="#1F77B4"/><circle cy="194.415" cx="59.85" r="2" class="dot" fill="#1F77B4"/><circle cy="195.913" cx="62.7" r="2" class="dot" fill="#1F77B4"/><circle cy="196.965" cx="65.55" r="2" class="dot" fill="#1F77B4"/><circle cy="196.002" cx="68.4" r="2" class="dot" fill="#1F77B4"/><circle cy="191.375" cx="71.25" r="2" class="dot" fill="#1F77B4"/><circle cy="188.689" cx="74.1" r="2" class="dot" fill="#1F77B4"/><circle cy="93.282" cx="76.95" r="2" class="dot" fill="#1F77B4"/><circle cy="196.012" cx="79.8" r="2" class="dot" fill="#1F77B4"/><circle cy="195.917" cx="82.65" r="2" class="dot" fill="#1F77B4"/><circle cy="195.749" cx="85.5" r="2" class="dot" fill="#1F77B4"/><circle cy="195.982" cx="88.35" r="2" class="dot" fill="#1F77B4"/><circle cy="195.74" cx="91.2" r="2" class="dot" fill="#1F77B4"/><circle cy="193.754" cx="94.05" r="2" class="dot" fill="#1F77B4"/><circle cy="195.087" cx="96.9" r="2" class="dot" fill="#1F77B4"/><circle cy="195.07" cx="99.75" r="2" class="dot" fill="#1F77B4"/><circle cy="183.118" cx="102.6" r="2" class="dot" fill="#1F77B4"/><circle cy="93.838" cx="105.45" r="2" class="dot" fill="#1F77B4"/><circle cy="194.054" cx="108.3" r="2" class="dot" fill="#1F77B4"/><circle cy="193.353" cx="111.15" r="2" class="dot" fill="#1F77B4"/><circle cy="189.039" cx="114" r="2" class="dot" fill="#1F77B4"/><circle cy="93.378" cx="116.85" r="2" class="dot" fill="#1F77B4"/><circle cy="192.915" cx="119.7" r="2" class="dot" fill="#1F77B4"/><circle cy="189.646" cx="122.55" r="2" class="dot" fill="#1F77B4"/><circle cy="178.395" cx="125.4" r="2" class="dot" fill="#1F77B4"/><circle cx="128.25" r="2" class="dot" fill="#1F77B4"/><circle cy="187.744" cx="131.1" r="2" class="dot" fill="#1F77B4"/><circle cy="191.722" cx="133.95" r="2" class="dot" fill="#1F77B4"/><circle cy="191.37" cx="136.8" r="2" class="dot" fill="#1F77B4"/><circle cy="190.634" cx="139.65" r="2" class="dot" fill="#1F77B4"/><circle cy="190.922" cx="142.5" r="2" class="dot" fill="#1F77B4"/><circle cy="169.67" cx="145.35" r="2" class="dot" fill="#1F77B4"/><circle cy="93.397" cx="148.2" r="2" class="dot" fill="#1F77B4"/><circle cy="189.374" cx="151.05" r="2" class="dot" fill="#1F77B4"/><circle cy="189.656" cx="153.9" r="2" class="dot" fill="#1F77B4"/><circle cy="91.249" cx="156.75" r="2" class="dot" fill="#1F77B4"/><circle cy="189.254" cx="159.6" r="2" class="dot" fill="#1F77B4"/><circle cy="177.596" cx="162.45" r="2" class="dot" fill="#1F77B4"/><circle cy="92.722" cx="165.3" r="2" class="dot" fill="#1F77B4"/><circle cy="188.399" cx="168.15" r="2" class="dot" fill="#1F77B4"/><circle cy="188.509" cx="171" r="2" class="dot" fill="#1F77B4"/><circle cy="95.124" cx="173.85" r="2" class="dot" fill="#1F77B4"/><circle cy="187.8" cx="176.7" r="2" class="dot" fill="#1F77B4"/><circle cy="133.246" cx="179.55" r="2" class="dot" fill="#1F77B4"/><circle cy="172.59" cx="182.4" r="2" class="dot" fill="#1F77B4"/><circle cy="186.996" cx="185.25" r="2" class="dot" fill="#1F77B4"/><circle cy="92.815" cx="188.1" r="2" class="dot" fill="#1F77B4"/><circle cy="177.52" cx="190.95" r="2" class="dot" fill="#1F77B4"/><circle cy="179.386" cx="193.8" r="2" class="dot" fill="#1F77B4"/><circle cy="184.83" cx="196.65" r="2" class="dot" fill="#1F77B4"/><circle cy="185.999" cx="199.5" r="2" class="dot" fill="#1F77B4"/><circle cy="89.684" cx="202.35" r="2" class="dot" fill="#1F77B4"/><circle cy="185.135" cx="205.2" r="2" class="dot" fill="#1F77B4"/><circle cy="177.927" cx="208.05" r="2" class="dot" fill="#1F77B4"/><circle cy="182.148" cx="210.9" r="2" class="dot" fill="#1F77B4"/><circle cy="184.911" cx="213.75" r="2" class="dot" fill="#1F77B4"/><circle cy="84.557" cx="216.6" r="2" class="dot" fill="#1F77B4"/><circle cy="177.028" cx="219.45" r="2" class="dot" fill="#1F77B4"/><circle cy="26.041" cx="222.3" r="2" class="dot" fill="#1F77B4"/><circle cy="183.411" cx="225.15" r="2" class="dot" fill="#1F77B4"/><circle cy="90.693" cx="228" r="2" class="dot" fill="#1F77B4"/><circle cy="183.001" cx="230.85" r="2" class="dot" fill="#1F77B4"/><circle cy="75.856" cx="233.7" r="2" class="dot" fill="#1F77B4"/><circle cy="182.088" cx="236.55" r="2" class="dot" fill="#1F77B4"/><circle cy="88.002" cx="239.4" r="2" class="dot" fill="#1F77B4"/><circle cy="181.303" cx="242.25" r="2" class="dot" fill="#1F77B4"/><circle cy="81.778" cx="245.1" r="2" class="dot" fill="#1F77B4"/><circle cy="181.013" cx="247.95" r="2" class="dot" fill="#1F77B4"/><circle cy="89.362" cx="250.8" r="2" class="dot" fill="#1F77B4"/><circle cy="180.69" cx="253.65" r="2" class="dot" fill="#1F77B4"/><circle cy="70.227" cx="256.5" r="2" class="dot" fill="#1F77B4"/><circle cy="178.276" cx="259.35" r="2" class="dot" fill="#1F77B4"/><circle cy="87.928" cx="262.2" r="2" class="dot" fill="#1F77B4"/><circle cy="177.527" cx="265.05" r="2" class="dot" fill="#1F77B4"/><circle cy="80.388" cx="267.9" r="2" class="dot" fill="#1F77B4"/><circle cy="178.652" cx="270.75" r="2" class="dot" fill="#1F77B4"/><circle cy="75.624" cx="273.6" r="2" class="dot" fill="#1F77B4"/><circle cy="178.416" cx="276.45" r="2" class="dot" fill="#1F77B4"/><circle cy="78.444" cx="279.3" r="2" class="dot" fill="#1F77B4"/><circle cy="177.846" cx="282.15" r="2" class="dot" fill="#1F77B4"/><circle cy="78.169" cx="285" r="2" class="dot" fill="#1F77B4"/><path class="regression" stroke-width="2" stroke="#1F77B4" d="M0 203.02l285-79.34"/><circle cy="201.999" cx="2.85" r="2" class="dot" fill="#FF7F0E"/><circle cy="199.827" cx="5.7" r="2" class="dot" fill="#FF7F0E"/><circle cy="200.434" cx="8.55" r="2" class="dot" fill="#FF7F0E"/><circle cy="199.552" cx="11.4" r="2" class="dot" fill="#FF7F0E"/><circle cy="197.237" cx="14.25" r="2" class="dot" fill="#FF7F0E"/><circle cy="196.495" cx="17.1" r="2" class="dot" fill="#FF7F0E"/><circle cy="191.061" cx="19.95" r="2" class="dot" fill="#FF7F0E"/><circle cy="190.817" cx="22.8" r="2" class="dot" fill="#FF7F0E"/><circle cy="188.511" cx="25.65" r="2" class="dot" fill="#FF7F0E"/><circle cy="180.032" cx="28.5" r="2" class="dot" fill="#FF7F0E"/><circle cy="179.642" cx="31.35" r="2" class="dot" fill="#FF7F0E"/><circle cy="166.848" cx="34.2" r="2" class="dot" fill="#FF7F0E"/><circle cy="166.153" cx="37.05" r="2" class="dot" fill="#FF7F0E"/><circle cy="175.964" cx="39.9" r="2" class="dot" fill="#FF7F0E"/><circle cy="166.321" cx="42.75" r="2" class="dot" fill="#FF7F0E"/><circle cy="155.796" cx="45.6" r="2" class="dot" fill="#FF7F0E"/><circle cy="175.895" cx="48.45" r="2" class="dot" fill="#FF7F0E"/><circle cy="171.72" cx="51.3" r="2" class="dot" fill="#FF7F0E"/><circle cy="168.169" cx="54.15" r="2" class="dot" fill="#FF7F0E"/><circle cy="126.852" cx="57" r="2" class="dot" fill="#FF7F0E"/><circle cy="172.022" cx="59.85" r="2" class="dot" fill="#FF7F0E"/><circle cy="171.957" cx="62.7" r="2" class="dot" fill="#FF7F0E"/><circle cy="168.384" cx="65.55" r="2" class="dot" fill="#FF7F0E"/><circle cy="118.349" cx="68.4" r="2" class="dot" fill="#FF7F0E"/><circle cy="163.586" cx="71.25" r="2" class="dot" fill="#FF7F0E"/><circle cy="157.305" cx="74.1" r="2" class="dot" fill="#FF7F0E"/><circle cy="128.735" cx="76.95" r="2" class="dot" fill="#FF7F0E"/><circle cy="145.004" cx="79.8" r="2" class="dot" fill="#FF7F0E"/><circle cy="152.16" cx="82.65" r="2" class="dot" fill="#FF7F0E"/><circle cy="113.715" cx="85.5" r="2" class="dot" fill="#FF7F0E"/><circle cy="151.366" cx="88.35" r="2" class="dot" fill="#FF7F0E"/><circle cy="108.059" cx="91.2" r="2" class="dot" fill="#FF7F0E"/><circle cy="147.915" cx="94.05" r="2" class="dot" fill="#FF7F0E"/><circle cy="151.486" cx="96.9" r="2" class="dot" fill="#FF7F0E"/><circle cy="105.018" cx="99.75" r="2" class="dot" fill="#FF7F0E"/><circle cy="150.218" cx="102.6" r="2" class="dot" fill="#FF7F0E"/><circle cy="113.818" cx="105.45" r="2" class="dot" fill="#FF7F0E"/><circle cy="145.394" cx="108.3" r="2" class="dot" fill="#FF7F0E"/><circle cy="89.393" cx="111.15" r="2" class="dot" fill="#FF7F0E"/><circle cy="140.402" cx="114" r="2" class="dot" fill="#FF7F0E"/><circle cy="99.811" cx="116.85" r="2" class="dot" fill="#FF7F0E"/><circle cy="136.533" cx="119.7" r="2" class="dot" fill="#FF7F0E"/><circle cy="80.341" cx="122.55" r="2" class="dot" fill="#FF7F0E"/><circle cy="135.766" cx="125.4" r="2" class="dot" fill="#FF7F0E"/><circle cy="88.066" cx="128.25" r="2" class="dot" fill="#FF7F0E"/><circle cy="140.607" cx="131.1" r="2" class="dot" fill="#FF7F0E"/><circle cy="88.584" cx="133.95" r="2" class="dot" fill="#FF7F0E"/><circle cy="128.652" cx="136.8" r="2" class="dot" fill="#FF7F0E"/><circle cy="133.989" cx="139.65" r="2" class="dot" fill="#FF7F0E"/><circle cy="83.452" cx="142.5" r="2" class="dot" fill="#FF7F0E"/><circle cy="127.831" cx="145.35" r="2" class="dot" fill="#FF7F0E"/><circle cy="102.064" cx="148.2" r="2" class="dot" fill="#FF7F0E"/><circle cy="123.01" cx="151.05" r="2" class="dot" fill="#FF7F0E"/><circle cy="119.422" cx="153.9" r="2" class="dot" fill="#FF7F0E"/><circle cy="97.258" cx="156.75" r="2" class="dot" fill="#FF7F0E"/><circle cy="119.672" cx="159.6" r="2" class="dot" fill="#FF7F0E"/><circle cy="111.921" cx="162.45" r="2" class="dot" fill="#FF7F0E"/><circle cy="101.483" cx="165.3" r="2" class="dot" fill="#FF7F0E"/><circle cy="111.064" cx="168.15" r="2" class="dot" fill="#FF7F0E"/><circle cy="106.64" cx="171" r="2" class="dot" fill="#FF7F0E"/><circle cy="90.212" cx="173.85" r="2" class="dot" fill="#FF7F0E"/><circle cy="67.829" cx="176.7" r="2" class="dot" fill="#FF7F0E"/><circle cy="111.672" cx="179.55" r="2" class="dot" fill="#FF7F0E"/><circle cy="112.4" cx="182.4" r="2" class="dot" fill="#FF7F0E"/><circle cy="59.178" cx="185.25" r="2" class="dot" fill="#FF7F0E"/><circle cy="82.491" cx="188.1" r="2" class="dot" fill="#FF7F0E"/><circle cy="57.891" cx="190.95" r="2" class="dot" fill="#FF7F0E"/><circle cy="95.335" cx="193.8" r="2" class="dot" fill="#FF7F0E"/><circle cy="104.115" cx="196.65" r="2" class="dot" fill="#FF7F0E"/><circle cy="61.579" cx="199.5" r="2" class="dot" fill="#FF7F0E"/><circle cy="92.167" cx="202.35" r="2" class="dot" fill="#FF7F0E"/><circle cy="55.777" cx="205.2" r="2" class="dot" fill="#FF7F0E"/><circle cy="104.044" cx="208.05" r="2" class="dot" fill="#FF7F0E"/><circle cy="92.796" cx="210.9" r="2" class="dot" fill="#FF7F0E"/><circle cy="57.056" cx="213.75" r="2" class="dot" fill="#FF7F0E"/><circle cy="81.103" cx="216.6" r="2" class="dot" fill="#FF7F0E"/><circle cy="56.896" cx="219.45" r="2" class="dot" fill="#FF7F0E"/><circle cy="47.871" cx="222.3" r="2" class="dot" fill="#FF7F0E"/><circle cy="49.533" cx="225.15" r="2" class="dot" fill="#FF7F0E"/><circle cy="39.174" cx="228" r="2" class="dot" fill="#FF7F0E"/><circle cy="39.997" cx="230.85" r="2" class="dot" fill="#FF7F0E"/><circle cy="49.396" cx="233.7" r="2" class="dot" fill="#FF7F0E"/><circle cy="25.903" cx="236.55" r="2" class="dot" fill="#FF7F0E"/><circle cy="36.302" cx="239.4" r="2" class="dot" fill="#FF7F0E"/><circle cy="47.263" cx="242.25" r="2" class="dot" fill="#FF7F0E"/><circle cy="33.625" cx="245.1" r="2" class="dot" fill="#FF7F0E"/><circle cy="45.579" cx="247.95" r="2" class="dot" fill="#FF7F0E"/><circle cy="42.912" cx="250.8" r="2" class="dot" fill="#FF7F0E"/><circle cy="36.051" cx="253.65" r="2" class="dot" fill="#FF7F0E"/><circle cy="44.83" cx="256.5" r="2" class="dot" fill="#FF7F0E"/><circle cy="33.772" cx="259.35" r="2" class="dot" fill="#FF7F0E"/><circle cy="42.275" cx="262.2" r="2" class="dot" fill="#FF7F0E"/><circle cy="32.231" cx="265.05" r="2" class="dot" fill="#FF7F0E"/><circle cy="31.401" cx="267.9" r="2" class="dot" fill="#FF7F0E"/><circle cx="270.75" r="2" class="dot" fill="#FF7F0E"/><circle cy="30.331" cx="273.6" r="2" class="dot" fill="#FF7F0E"/><circle cy="24.565" cx="276.45" r="2" class="dot" fill="#FF7F0E"/><circle cy="26.268" cx="279.3" r="2" class="dot" fill="#FF7F0E"/><circle cy="32.526" cx="282.15" r="2" class="dot" fill="#FF7F0E"/><circle cy="13.911" cx="285" r="2" class="dot" fill="#FF7F0E"/><path class="regression" stroke-width="2" stroke="#FF7F0E" d="M0 198.07l285-178"/><circle cy="198.704" cx="2.85" r="2" class="dot" fill="#2CA02C"/><circle cy="199.853" cx="5.7" r="2" class="dot" fill="#2CA02C"/><circle cy="199.867" cx="8.55" r="2" class="dot" fill="#2CA02C"/><circle cy="196.924" cx="11.4" r="2" class="dot" fill="#2CA02C"/><circle cy="195.922" cx="14.25" r="2" class="dot" fill="#2CA02C"/><circle cy="196.03" cx="17.1" r="2" class="dot" fill="#2CA02C"/><circle cy="193.419" cx="19.95" r="2" class="dot" fill="#2CA02C"/><circle cy="188.938" cx="22.8" r="2" class="dot" fill="#2CA02C"/><circle cy="188.595" cx="25.65" r="2" class="dot" fill="#2CA02C"/><circle cy="182.083" cx="28.5" r="2" class="dot" fill="#2CA02C"/><circle cy="184.416" cx="31.35" r="2" class="dot" fill="#2CA02C"/><circle cy="180.23" cx="34.2" r="2" class="dot" fill="#2CA02C"/><circle cy="178.153" cx="37.05" r="2" class="dot" fill="#2CA02C"/><circle cy="128.464" cx="39.9" r="2" class="dot" fill="#2CA02C"/><circle cy="171.522" cx="42.75" r="2" class="dot" fill="#2CA02C"/><circle cy="174.804" cx="45.6" r="2" class="dot" fill="#2CA02C"/><circle cy="172.625" cx="48.45" r="2" class="dot" fill="#2CA02C"/><circle cy="171.476" cx="51.3" r="2" class="dot" fill="#2CA02C"/><circle cy="171.806" cx="54.15" r="2" class="dot" fill="#2CA02C"/><circle cy="169.486" cx="57" r="2" class="dot" fill="#2CA02C"/><circle cy="168.814" cx="59.85" r="2" class="dot" fill="#2CA02C"/><circle cy="165.831" cx="62.7" r="2" class="dot" fill="#2CA02C"/><circle cy="168.318" cx="65.55" r="2" class="dot" fill="#2CA02C"/><circle cy="161.243" cx="68.4" r="2" class="dot" fill="#2CA02C"/><circle cy="158.459" cx="71.25" r="2" class="dot" fill="#2CA02C"/><circle cy="150.663" cx="74.1" r="2" class="dot" fill="#2CA02C"/><circle cy="156.665" cx="76.95" r="2" class="dot" fill="#2CA02C"/><circle cy="156.907" cx="79.8" r="2" class="dot" fill="#2CA02C"/><circle cy="139.062" cx="82.65" r="2" class="dot" fill="#2CA02C"/><circle cy="137.072" cx="85.5" r="2" class="dot" fill="#2CA02C"/><circle cy="140.118" cx="88.35" r="2" class="dot" fill="#2CA02C"/><circle cy="151.408" cx="91.2" r="2" class="dot" fill="#2CA02C"/><circle cy="142.112" cx="94.05" r="2" class="dot" fill="#2CA02C"/><circle cy="139.53" cx="96.9" r="2" class="dot" fill="#2CA02C"/><circle cy="139.373" cx="99.75" r="2" class="dot" fill="#2CA02C"/><circle cy="141.37" cx="102.6" r="2" class="dot" fill="#2CA02C"/><circle cy="136.109" cx="105.45" r="2" class="dot" fill="#2CA02C"/><circle cy="97.192" cx="108.3" r="2" class="dot" fill="#2CA02C"/><circle cy="135.645" cx="111.15" r="2" class="dot" fill="#2CA02C"/><circle cy="135.14" cx="114" r="2" class="dot" fill="#2CA02C"/><circle cy="135.912" cx="116.85" r="2" class="dot" fill="#2CA02C"/><circle cy="92.259" cx="119.7" r="2" class="dot" fill="#2CA02C"/><circle cy="105.054" cx="122.55" r="2" class="dot" fill="#2CA02C"/><circle cy="117.666" cx="125.4" r="2" class="dot" fill="#2CA02C"/><circle cy="132.995" cx="128.25" r="2" class="dot" fill="#2CA02C"/><circle cy="72.056" cx="131.1" r="2" class="dot" fill="#2CA02C"/><circle cy="125.625" cx="133.95" r="2" class="dot" fill="#2CA02C"/><circle cy="132.146" cx="136.8" r="2" class="dot" fill="#2CA02C"/><circle cy="129.952" cx="139.65" r="2" class="dot" fill="#2CA02C"/><circle cy="130.704" cx="142.5" r="2" class="dot" fill="#2CA02C"/><circle cy="100.81" cx="145.35" r="2" class="dot" fill="#2CA02C"/><circle cy="99.541" cx="148.2" r="2" class="dot" fill="#2CA02C"/><circle cy="107.529" cx="151.05" r="2" class="dot" fill="#2CA02C"/><circle cy="99.468" cx="153.9" r="2" class="dot" fill="#2CA02C"/><circle cy="121.975" cx="156.75" r="2" class="dot" fill="#2CA02C"/><circle cy="95.384" cx="159.6" r="2" class="dot" fill="#2CA02C"/><circle cy="99.38" cx="162.45" r="2" class="dot" fill="#2CA02C"/><circle cy="95.249" cx="165.3" r="2" class="dot" fill="#2CA02C"/><circle cy="93.842" cx="168.15" r="2" class="dot" fill="#2CA02C"/><circle cy="99.058" cx="171" r="2" class="dot" fill="#2CA02C"/><circle cy="99.211" cx="173.85" r="2" class="dot" fill="#2CA02C"/><circle cy="96.712" cx="176.7" r="2" class="dot" fill="#2CA02C"/><circle cy="82.346" cx="179.55" r="2" class="dot" fill="#2CA02C"/><circle cy="53.095" cx="182.4" r="2" class="dot" fill="#2CA02C"/><circle cy="98.938" cx="185.25" r="2" class="dot" fill="#2CA02C"/><circle cy="109.883" cx="188.1" r="2" class="dot" fill="#2CA02C"/><circle cy="97.532" cx="190.95" r="2" class="dot" fill="#2CA02C"/><circle cy="75.622" cx="193.8" r="2" class="dot" fill="#2CA02C"/><circle cy="35.613" cx="196.65" r="2" class="dot" fill="#2CA02C"/><circle cy="101.455" cx="199.5" r="2" class="dot" fill="#2CA02C"/><circle cy="89.164" cx="202.35" r="2" class="dot" fill="#2CA02C"/><circle cy="82.129" cx="205.2" r="2" class="dot" fill="#2CA02C"/><circle cy="78.105" cx="208.05" r="2" class="dot" fill="#2CA02C"/><circle cy="44.508" cx="210.9" r="2" class="dot" fill="#2CA02C"/><circle cy="74.102" cx="213.75" r="2" class="dot" fill="#2CA02C"/><circle cy="86.117" cx="216.6" r="2" class="dot" fill="#2CA02C"/><circle cy="84.69" cx="219.45" r="2" class="dot" fill="#2CA02C"/><circle cy="72.62" cx="222.3" r="2" class="dot" fill="#2CA02C"/><circle cy="78.629" cx="225.15" r="2" class="dot" fill="#2CA02C"/><circle cy="80.672" cx="228" r="2" class="dot" fill="#2CA02C"/><circle cy="70.501" cx="230.85" r="2" class="dot" fill="#2CA02C"/><circle cy="63.269" cx="233.7" r="2" class="dot" fill="#2CA02C"/><circle cy="73.346" cx="236.55" r="2" class="dot" fill="#2CA02C"/><circle cy="78.807" cx="239.4" r="2" class="dot" fill="#2CA02C"/><circle cy="70.854" cx="242.25" r="2" class="dot" fill="#2CA02C"/><circle cy="60.18" cx="245.1" r="2" class="dot" fill="#2CA02C"/><circle cy="85.437" cx="247.95" r="2" class="dot" fill="#2CA02C"/><circle cy="63.23" cx="250.8" r="2" class="dot" fill="#2CA02C"/><circle cy="71.598" cx="253.65" r="2" class="dot" fill="#2CA02C"/><circle cy="60.319" cx="256.5" r="2" class="dot" fill="#2CA02C"/><circle cy="63.217" cx="259.35" r="2" class="dot" fill="#2CA02C"/><circle cy="87.413" cx="262.2" r="2" class="dot" fill="#2CA02C"/><circle cy="66.937" cx="265.05" r="2" class="dot" fill="#2CA02C"/><circle cy="66.091" cx="267.9" r="2" class="dot" fill="#2CA02C"/><circle cy="63.837" cx="270.75" r="2" class="dot" fill="#2CA02C"/><circle cy="64.769" cx="273.6" r="2" class="dot" fill="#2CA02C"/><circle cy="56.953" cx="276.45" r="2" class="dot" fill="#2CA02C"/><circle cy="64.017" cx="279.3" r="2" class="dot" fill="#2CA02C"/><circle cy="48.364" cx="282.15" r="2" class="dot" fill="#2CA02C"/><circle cy="49.865" cx="285" r="2" class="dot" fill="#2CA02C"/><path class="regression" stroke-width="2" stroke="#2CA02C" d="M0 191.738L285 43.764"/><g class="legend"><path fill="#1F77B4" d="M267 0h18v18h-18z"/><text dy=".35em" y="9" x="261" text-anchor="end">postMessage</text></g><g class="legend"><path fill="#FF7F0E" d="M267 20h18v18h-18z"/><text dy=".35em" y="9" x="261" text-anchor="end" transform="translate(0 20)">BC channel</text></g><g class="legend"><path fill="#2CA02C" d="M267 40h18v18h-18z"/><text dy=".35em" y="9" x="261" text-anchor="end" transform="translate(0 40)">threads</text></g></g></svg>