<svg xmlns="http://www.w3.org/2000/svg" height="240" width="320"><g transform="translate(30 5)" font-size="12" font-family="Arial"><g class="x axis"><text y="-6" x="285" text-anchor="end" transform="translate(0 205)">Message size (kB)</text><g class="tick"><path d="M0 205v6"/><text y="9" dy=".71em" text-anchor="middle" transform="translate(0 205)">0</text></g><g class="tick"><path d="M27.556 205v6"/><text y="9" dy=".71em" text-anchor="middle" transform="translate(27.556 205)">195</text></g><g class="tick"><path d="M55.113 205v6"/><text y="9" dy=".71em" text-anchor="middle" transform="translate(55.113 205)">391</text></g><g class="tick"><path d="M82.67 205v6"/><text y="9" dy=".71em" text-anchor="middle" transform="translate(82.67 205)">586</text></g><g class="tick"><path d="M110.226 205v6"/><text y="9" dy=".71em" text-anchor="middle" transform="translate(110.226 205)">781</text></g><g class="tick"><path d="M137.782 205v6"/><text y="9" dy=".71em" text-anchor="middle" transform="translate(137.782 205)">977</text></g><g class="tick"><path d="M165.34 205v6"/><text y="9" dy=".71em" text-anchor="middle" transform="translate(165.34 205)">1172</text></g><g class="tick"><path d="M192.895 205v6"/><text y="9" dy=".71em" text-anchor="middle" transform="translate(192.895 205)">1367</text></g><g class="tick"><path d="M220.452 205v6"/><text y="9" dy=".71em" text-anchor="middle" transform="translate(220.452 205)">1563</text></g><g class="tick"><path d="M248.008 205v6"/><text y="9" dy=".71em" text-anchor="middle" transform="translate(248.008 205)">1758</text></g><g class="tick"><path d="M275.565 205v6"/><text y="9" dy=".71em" text-anchor="middle" transform="translate(275.565 205)">1953</text></g><path d="M0 211v-6h285v6" class="domain"/></g><g class="y axis"><text dy=".71em" y="6" transform="rotate(-90)" text-anchor="end">Latency (ms)</text><g class="tick"><path d="M0 205h-6"/><text x="-9" dy=".32em" text-anchor="end" transform="translate(0 205)">0</text></g><g class="tick"><path d="M0 177.535h-6"/><text x="-9" dy=".32em" text-anchor="end" transform="translate(0 177.535)">50</text></g><g class="tick"><path d="M0 150.07h-6"/><text x="-9" dy=".32em" text-anchor="end" transform="translate(0 150.07)">100</text></g><g class="tick"><path d="M0 122.606h-6"/><text x="-9" dy=".32em" text-anchor="end" transform="translate(0 122.606)">150</text></g><g class="tick"><path d="M0 95.142h-6"/><text x="-9" dy=".32em" text-anchor="end" transform="translate(0 95.142)">200</text></g><g class="tick"><path d="M0 67.677h-6"/><text x="-9" dy=".32em" text-anchor="end" transform="translate(0 67.677)">250</text></g><g class="tick"><path d="M0 40.212h-6"/><text x="-9" dy=".32em" text-anchor="end" transform="translate(0 40.212)">300</text></g><g class="tick"><path d="M0 12.748h-6"/><text x="-9" dy=".32em" text-anchor="end" transform="translate(0 12.748)">350</text></g><path d="M-6 0h6v205h-6" class="domain"/></g><circle cy="201.857" cx="5.644" r="2" class="dot" fill="#1F77B4"/><circle cy="203.198" cx="8.465" r="2" class="dot" fill="#1F77B4"/><circle cy="203.64" cx="11.287" r="2" class="dot" fill="#1F77B4"/><circle cy="197.323" cx="14.109" r="2" class="dot" fill="#1F77B4"/><circle cy="201.507" cx="16.931" r="2" class="dot" fill="#1F77B4"/><circle cy="202.602" cx="19.752" r="2" class="dot" fill="#1F77B4"/><circle cy="201.735" cx="22.574" r="2" class="dot" fill="#1F77B4"/><circle cy="201.313" cx="25.396" r="2" class="dot" fill="#1F77B4"/><circle cy="199.549" cx="28.218" r="2" class="dot" fill="#1F77B4"/><circle cy="193.693" cx="31.04" r="2" class="dot" fill="#1F77B4"/><circle cy="194.06" cx="33.861" r="2" class="dot" fill="#1F77B4"/><circle cy="198.027" cx="36.683" r="2" class="dot" fill="#1F77B4"/><circle cy="197.692" cx="39.505" r="2" class="dot" fill="#1F77B4"/><circle cy="197.46" cx="42.327" r="2" class="dot" fill="#1F77B4"/><circle cy="196.118" cx="45.149" r="2" class="dot" fill="#1F77B4"/><circle cy="200.683" cx="47.97" r="2" class="dot" fill="#1F77B4"/><circle cy="143.765" cx="50.792" r="2" class="dot" fill="#1F77B4"/><circle cy="200.049" cx="53.614" r="2" class="dot" fill="#1F77B4"/><circle cy="200.653" cx="56.436" r="2" class="dot" fill="#1F77B4"/><circle cy="198.927" cx="59.257" r="2" class="dot" fill="#1F77B4"/><circle cy="200.064" cx="62.079" r="2" class="dot" fill="#1F77B4"/><circle cy="199.467" cx="64.901" r="2" class="dot" fill="#1F77B4"/><circle cy="189.847" cx="67.723" r="2" class="dot" fill="#1F77B4"/><circle cy="186.633" cx="70.545" r="2" class="dot" fill="#1F77B4"/><circle cy="188.802" cx="73.366" r="2" class="dot" fill="#1F77B4"/><circle cy="198.263" cx="76.188" r="2" class="dot" fill="#1F77B4"/><circle cy="198.308" cx="79.01" r="2" class="dot" fill="#1F77B4"/><circle cy="198.668" cx="81.832" r="2" class="dot" fill="#1F77B4"/><circle cy="196.663" cx="84.653" r="2" class="dot" fill="#1F77B4"/><circle cy="198.722" cx="87.475" r="2" class="dot" fill="#1F77B4"/><circle cy="195.971" cx="90.297" r="2" class="dot" fill="#1F77B4"/><circle cy="195.056" cx="93.119" r="2" class="dot" fill="#1F77B4"/><circle cy="198.894" cx="95.941" r="2" class="dot" fill="#1F77B4"/><circle cy="198.229" cx="98.762" r="2" class="dot" fill="#1F77B4"/><circle cy="197.472" cx="101.584" r="2" class="dot" fill="#1F77B4"/><circle cy="188.433" cx="104.406" r="2" class="dot" fill="#1F77B4"/><circle cy="197.051" cx="107.228" r="2" class="dot" fill="#1F77B4"/><circle cy="194.771" cx="110.05" r="2" class="dot" fill="#1F77B4"/><circle cy="194.437" cx="112.871" r="2" class="dot" fill="#1F77B4"/><circle cy="142.189" cx="115.693" r="2" class="dot" fill="#1F77B4"/><circle cy="195.114" cx="118.515" r="2" class="dot" fill="#1F77B4"/><circle cy="196.438" cx="121.337" r="2" class="dot" fill="#1F77B4"/><circle cy="196.014" cx="124.158" r="2" class="dot" fill="#1F77B4"/><circle cy="132.229" cx="126.98" r="2" class="dot" fill="#1F77B4"/><circle cy="191.494" cx="129.802" r="2" class="dot" fill="#1F77B4"/><circle cy="194.2" cx="132.624" r="2" class="dot" fill="#1F77B4"/><circle cy="193.748" cx="135.446" r="2" class="dot" fill="#1F77B4"/><circle cy="193.677" cx="138.267" r="2" class="dot" fill="#1F77B4"/><circle cy="161.646" cx="141.089" r="2" class="dot" fill="#1F77B4"/><circle cy="186.504" cx="143.911" r="2" class="dot" fill="#1F77B4"/><circle cy="165.351" cx="146.733" r="2" class="dot" fill="#1F77B4"/><circle cy="194.433" cx="149.554" r="2" class="dot" fill="#1F77B4"/><circle cy="194.555" cx="152.376" r="2" class="dot" fill="#1F77B4"/><circle cy="193.263" cx="155.198" r="2" class="dot" fill="#1F77B4"/><circle cy="193.636" cx="158.02" r="2" class="dot" fill="#1F77B4"/><circle cy="193.52" cx="160.842" r="2" class="dot" fill="#1F77B4"/><circle cy="183.549" cx="163.663" r="2" class="dot" fill="#1F77B4"/><circle cy="192.388" cx="166.485" r="2" class="dot" fill="#1F77B4"/><circle cy="192.254" cx="169.307" r="2" class="dot" fill="#1F77B4"/><circle cy="190.322" cx="172.129" r="2" class="dot" fill="#1F77B4"/><circle cy="190.645" cx="174.95" r="2" class="dot" fill="#1F77B4"/><circle cy="192.667" cx="177.772" r="2" class="dot" fill="#1F77B4"/><circle cy="182.134" cx="180.594" r="2" class="dot" fill="#1F77B4"/><circle cy="190.244" cx="183.416" r="2" class="dot" fill="#1F77B4"/><circle cy="133.596" cx="186.238" r="2" class="dot" fill="#1F77B4"/><circle cy="190.407" cx="189.059" r="2" class="dot" fill="#1F77B4"/><circle cy="189.734" cx="191.881" r="2" class="dot" fill="#1F77B4"/><circle cy="183.196" cx="194.703" r="2" class="dot" fill="#1F77B4"/><circle cy="188.256" cx="197.525" r="2" class="dot" fill="#1F77B4"/><circle cy="137.255" cx="200.347" r="2" class="dot" fill="#1F77B4"/><circle cy="189.515" cx="203.168" r="2" class="dot" fill="#1F77B4"/><circle cy="190.928" cx="205.99" r="2" class="dot" fill="#1F77B4"/><circle cy="180.742" cx="208.812" r="2" class="dot" fill="#1F77B4"/><circle cy="189.478" cx="211.634" r="2" class="dot" fill="#1F77B4"/><circle cy="138.428" cx="214.455" r="2" class="dot" fill="#1F77B4"/><circle cy="188.302" cx="217.277" r="2" class="dot" fill="#1F77B4"/><circle cy="187.854" cx="220.099" r="2" class="dot" fill="#1F77B4"/><circle cy="179.452" cx="222.921" r="2" class="dot" fill="#1F77B4"/><circle cy="188.551" cx="225.743" r="2" class="dot" fill="#1F77B4"/><circle cy="185.323" cx="228.564" r="2" class="dot" fill="#1F77B4"/><circle cy="187.197" cx="231.386" r="2" class="dot" fill="#1F77B4"/><circle cy="179.778" cx="234.208" r="2" class="dot" fill="#1F77B4"/><circle cy="186.505" cx="237.03" r="2" class="dot" fill="#1F77B4"/><circle cy="188.108" cx="239.851" r="2" class="dot" fill="#1F77B4"/><circle cy="187.425" cx="242.673" r="2" class="dot" fill="#1F77B4"/><circle cy="180.018" cx="245.495" r="2" class="dot" fill="#1F77B4"/><circle cy="187.638" cx="248.317" r="2" class="dot" fill="#1F77B4"/><circle cy="186.643" cx="251.139" r="2" class="dot" fill="#1F77B4"/><circle cy="186.19" cx="253.96" r="2" class="dot" fill="#1F77B4"/><circle cy="180.602" cx="256.782" r="2" class="dot" fill="#1F77B4"/><circle cy="183.543" cx="259.604" r="2" class="dot" fill="#1F77B4"/><circle cy="182.977" cx="262.426" r="2" class="dot" fill="#1F77B4"/><circle cy="186.366" cx="265.248" r="2" class="dot" fill="#1F77B4"/><circle cy="177.558" cx="268.069" r="2" class="dot" fill="#1F77B4"/><circle cy="185.212" cx="270.891" r="2" class="dot" fill="#1F77B4"/><circle cy="186.11" cx="273.713" r="2" class="dot" fill="#1F77B4"/><circle cy="171.489" cx="276.535" r="2" class="dot" fill="#1F77B4"/><circle cy="176.943" cx="279.356" r="2" class="dot" fill="#1F77B4"/><circle cy="184.143" cx="282.178" r="2" class="dot" fill="#1F77B4"/><circle cy="184.974" cx="285" r="2" class="dot" fill="#1F77B4"/><circle cy="202.439" cx="5.644" r="2" class="dot" fill="#FF7F0E"/><circle cy="200.621" cx="8.465" r="2" class="dot" fill="#FF7F0E"/><circle cy="200.641" cx="11.287" r="2" class="dot" fill="#FF7F0E"/><circle cy="195.274" cx="14.109" r="2" class="dot" fill="#FF7F0E"/><circle cy="195.343" cx="16.931" r="2" class="dot" fill="#FF7F0E"/><circle cy="193.786" cx="19.752" r="2" class="dot" fill="#FF7F0E"/><circle cy="187.519" cx="22.574" r="2" class="dot" fill="#FF7F0E"/><circle cy="188.01" cx="25.396" r="2" class="dot" fill="#FF7F0E"/><circle cy="188.697" cx="28.218" r="2" class="dot" fill="#FF7F0E"/><circle cy="185.12" cx="31.04" r="2" class="dot" fill="#FF7F0E"/><circle cy="185.739" cx="33.861" r="2" class="dot" fill="#FF7F0E"/><circle cy="183.331" cx="36.683" r="2" class="dot" fill="#FF7F0E"/><circle cy="176.821" cx="39.505" r="2" class="dot" fill="#FF7F0E"/><circle cy="128.148" cx="42.327" r="2" class="dot" fill="#FF7F0E"/><circle cy="167.123" cx="45.149" r="2" class="dot" fill="#FF7F0E"/><circle cy="172.871" cx="47.97" r="2" class="dot" fill="#FF7F0E"/><circle cy="167.347" cx="50.792" r="2" class="dot" fill="#FF7F0E"/><circle cy="172.419" cx="53.614" r="2" class="dot" fill="#FF7F0E"/><circle cy="133.921" cx="56.436" r="2" class="dot" fill="#FF7F0E"/><circle cy="160.393" cx="59.257" r="2" class="dot" fill="#FF7F0E"/><circle cy="144.106" cx="62.079" r="2" class="dot" fill="#FF7F0E"/><circle cy="126.521" cx="64.901" r="2" class="dot" fill="#FF7F0E"/><circle cy="161.481" cx="67.723" r="2" class="dot" fill="#FF7F0E"/><circle cy="157.946" cx="70.545" r="2" class="dot" fill="#FF7F0E"/><circle cy="152.926" cx="73.366" r="2" class="dot" fill="#FF7F0E"/><circle cy="146.981" cx="76.188" r="2" class="dot" fill="#FF7F0E"/><circle cy="144.63" cx="79.01" r="2" class="dot" fill="#FF7F0E"/><circle cy="83.901" cx="81.832" r="2" class="dot" fill="#FF7F0E"/><circle cy="134.578" cx="84.653" r="2" class="dot" fill="#FF7F0E"/><circle cy="139.084" cx="87.475" r="2" class="dot" fill="#FF7F0E"/><circle cy="138.435" cx="90.297" r="2" class="dot" fill="#FF7F0E"/><circle cy="141.067" cx="93.119" r="2" class="dot" fill="#FF7F0E"/><circle cy="81.642" cx="95.941" r="2" class="dot" fill="#FF7F0E"/><circle cy="136.353" cx="98.762" r="2" class="dot" fill="#FF7F0E"/><circle cy="133.27" cx="101.584" r="2" class="dot" fill="#FF7F0E"/><circle cy="130.655" cx="104.406" r="2" class="dot" fill="#FF7F0E"/><circle cy="131.636" cx="107.228" r="2" class="dot" fill="#FF7F0E"/><circle cy="132.059" cx="110.05" r="2" class="dot" fill="#FF7F0E"/><circle cy="117.333" cx="112.871" r="2" class="dot" fill="#FF7F0E"/><circle cy="127.9" cx="115.693" r="2" class="dot" fill="#FF7F0E"/><circle cy="127.295" cx="118.515" r="2" class="dot" fill="#FF7F0E"/><circle cy="125.777" cx="121.337" r="2" class="dot" fill="#FF7F0E"/><circle cy="125.154" cx="124.158" r="2" class="dot" fill="#FF7F0E"/><circle cy="124.119" cx="126.98" r="2" class="dot" fill="#FF7F0E"/><circle cy="121.656" cx="129.802" r="2" class="dot" fill="#FF7F0E"/><circle cy="120.781" cx="132.624" r="2" class="dot" fill="#FF7F0E"/><circle cy="108.683" cx="135.446" r="2" class="dot" fill="#FF7F0E"/><circle cy="116.768" cx="138.267" r="2" class="dot" fill="#FF7F0E"/><circle cy="58.06" cx="141.089" r="2" class="dot" fill="#FF7F0E"/><circle cy="98.124" cx="143.911" r="2" class="dot" fill="#FF7F0E"/><circle cy="103.874" cx="146.733" r="2" class="dot" fill="#FF7F0E"/><circle cy="93.946" cx="149.554" r="2" class="dot" fill="#FF7F0E"/><circle cy="94.279" cx="152.376" r="2" class="dot" fill="#FF7F0E"/><circle cy="87.646" cx="155.198" r="2" class="dot" fill="#FF7F0E"/><circle cy="91.251" cx="158.02" r="2" class="dot" fill="#FF7F0E"/><circle cy="94.011" cx="160.842" r="2" class="dot" fill="#FF7F0E"/><circle cy="93.357" cx="163.663" r="2" class="dot" fill="#FF7F0E"/><circle cy="85.403" cx="166.485" r="2" class="dot" fill="#FF7F0E"/><circle cy="89.894" cx="169.307" r="2" class="dot" fill="#FF7F0E"/><circle cy="77.897" cx="172.129" r="2" class="dot" fill="#FF7F0E"/><circle cy="86.175" cx="174.95" r="2" class="dot" fill="#FF7F0E"/><circle cy="86.449" cx="177.772" r="2" class="dot" fill="#FF7F0E"/><circle cy="85.926" cx="180.594" r="2" class="dot" fill="#FF7F0E"/><circle cy="39.876" cx="183.416" r="2" class="dot" fill="#FF7F0E"/><circle cy="76.373" cx="186.238" r="2" class="dot" fill="#FF7F0E"/><circle cy="81.672" cx="189.059" r="2" class="dot" fill="#FF7F0E"/><circle cy="77.266" cx="191.881" r="2" class="dot" fill="#FF7F0E"/><circle cy="79.978" cx="194.703" r="2" class="dot" fill="#FF7F0E"/><circle cy="29.886" cx="197.525" r="2" class="dot" fill="#FF7F0E"/><circle cy="71.667" cx="200.347" r="2" class="dot" fill="#FF7F0E"/><circle cy="73.573" cx="203.168" r="2" class="dot" fill="#FF7F0E"/><circle cy="78.986" cx="205.99" r="2" class="dot" fill="#FF7F0E"/><circle cy="67.503" cx="208.812" r="2" class="dot" fill="#FF7F0E"/><circle cy="22.03" cx="211.634" r="2" class="dot" fill="#FF7F0E"/><circle cy="62.911" cx="214.455" r="2" class="dot" fill="#FF7F0E"/><circle cy="69.766" cx="217.277" r="2" class="dot" fill="#FF7F0E"/><circle cy="72.244" cx="220.099" r="2" class="dot" fill="#FF7F0E"/><circle cy="70.262" cx="222.921" r="2" class="dot" fill="#FF7F0E"/><circle cy="56.288" cx="225.743" r="2" class="dot" fill="#FF7F0E"/><circle cy="63.465" cx="228.564" r="2" class="dot" fill="#FF7F0E"/><circle cy="59.193" cx="231.386" r="2" class="dot" fill="#FF7F0E"/><circle cy="62.032" cx="234.208" r="2" class="dot" fill="#FF7F0E"/><circle cy="46.829" cx="237.03" r="2" class="dot" fill="#FF7F0E"/><circle cy="60.41" cx="239.851" r="2" class="dot" fill="#FF7F0E"/><circle cy="55.308" cx="242.673" r="2" class="dot" fill="#FF7F0E"/><circle cy="50.542" cx="245.495" r="2" class="dot" fill="#FF7F0E"/><circle cy="48.496" cx="248.317" r="2" class="dot" fill="#FF7F0E"/><circle cy="55.374" cx="251.139" r="2" class="dot" fill="#FF7F0E"/><circle cy="49.531" cx="253.96" r="2" class="dot" fill="#FF7F0E"/><circle cy="49.879" cx="256.782" r="2" class="dot" fill="#FF7F0E"/><circle cy="42.471" cx="259.604" r="2" class="dot" fill="#FF7F0E"/><circle cy="47.502" cx="262.426" r="2" class="dot" fill="#FF7F0E"/><circle cy="45.2" cx="265.248" r="2" class="dot" fill="#FF7F0E"/><circle cy="47.681" cx="268.069" r="2" class="dot" fill="#FF7F0E"/><circle cy="33.294" cx="270.891" r="2" class="dot" fill="#FF7F0E"/><circle cy="28.37" cx="273.713" r="2" class="dot" fill="#FF7F0E"/><circle cy="42.225" cx="276.535" r="2" class="dot" fill="#FF7F0E"/><circle cy="25.812" cx="279.356" r="2" class="dot" fill="#FF7F0E"/><circle cy="24.909" cx="282.178" r="2" class="dot" fill="#FF7F0E"/><circle cx="285" r="2" class="dot" fill="#FF7F0E"/><circle cy="199.455" cx="5.644" r="2" class="dot" fill="#2CA02C"/><circle cy="197.785" cx="8.465" r="2" class="dot" fill="#2CA02C"/><circle cy="196.75" cx="11.287" r="2" class="dot" fill="#2CA02C"/><circle cy="195.371" cx="14.109" r="2" class="dot" fill="#2CA02C"/><circle cy="192.096" cx="16.931" r="2" class="dot" fill="#2CA02C"/><circle cy="189.949" cx="19.752" r="2" class="dot" fill="#2CA02C"/><circle cy="189.995" cx="22.574" r="2" class="dot" fill="#2CA02C"/><circle cy="187.804" cx="25.396" r="2" class="dot" fill="#2CA02C"/><circle cy="188.026" cx="28.218" r="2" class="dot" fill="#2CA02C"/><circle cy="178.896" cx="31.04" r="2" class="dot" fill="#2CA02C"/><circle cy="184.774" cx="33.861" r="2" class="dot" fill="#2CA02C"/><circle cy="178.373" cx="36.683" r="2" class="dot" fill="#2CA02C"/><circle cy="170.859" cx="39.505" r="2" class="dot" fill="#2CA02C"/><circle cy="174.38" cx="42.327" r="2" class="dot" fill="#2CA02C"/><circle cy="172.191" cx="45.149" r="2" class="dot" fill="#2CA02C"/><circle cy="168.9" cx="47.97" r="2" class="dot" fill="#2CA02C"/><circle cy="165.541" cx="50.792" r="2" class="dot" fill="#2CA02C"/><circle cy="164.525" cx="53.614" r="2" class="dot" fill="#2CA02C"/><circle cy="164.742" cx="56.436" r="2" class="dot" fill="#2CA02C"/><circle cy="164.452" cx="59.257" r="2" class="dot" fill="#2CA02C"/><circle cy="165.266" cx="62.079" r="2" class="dot" fill="#2CA02C"/><circle cy="161.591" cx="64.901" r="2" class="dot" fill="#2CA02C"/><circle cy="157.696" cx="67.723" r="2" class="dot" fill="#2CA02C"/><circle cy="162.29" cx="70.545" r="2" class="dot" fill="#2CA02C"/><circle cy="90.811" cx="73.366" r="2" class="dot" fill="#2CA02C"/><circle cy="144.299" cx="76.188" r="2" class="dot" fill="#2CA02C"/><circle cy="144.439" cx="79.01" r="2" class="dot" fill="#2CA02C"/><circle cy="144.337" cx="81.832" r="2" class="dot" fill="#2CA02C"/><circle cy="136.836" cx="84.653" r="2" class="dot" fill="#2CA02C"/><circle cy="141.854" cx="87.475" r="2" class="dot" fill="#2CA02C"/><circle cy="134.489" cx="90.297" r="2" class="dot" fill="#2CA02C"/><circle cy="136.019" cx="93.119" r="2" class="dot" fill="#2CA02C"/><circle cy="135.526" cx="95.941" r="2" class="dot" fill="#2CA02C"/><circle cy="129.648" cx="98.762" r="2" class="dot" fill="#2CA02C"/><circle cy="121.457" cx="101.584" r="2" class="dot" fill="#2CA02C"/><circle cy="114.891" cx="104.406" r="2" class="dot" fill="#2CA02C"/><circle cy="127.908" cx="107.228" r="2" class="dot" fill="#2CA02C"/><circle cy="130.594" cx="110.05" r="2" class="dot" fill="#2CA02C"/><circle cy="123.166" cx="112.871" r="2" class="dot" fill="#2CA02C"/><circle cy="71.459" cx="115.693" r="2" class="dot" fill="#2CA02C"/><circle cy="124.512" cx="118.515" r="2" class="dot" fill="#2CA02C"/><circle cy="128.669" cx="121.337" r="2" class="dot" fill="#2CA02C"/><circle cy="120.542" cx="124.158" r="2" class="dot" fill="#2CA02C"/><circle cy="58.56" cx="126.98" r="2" class="dot" fill="#2CA02C"/><circle cy="120.367" cx="129.802" r="2" class="dot" fill="#2CA02C"/><circle cy="118.963" cx="132.624" r="2" class="dot" fill="#2CA02C"/><circle cy="120.142" cx="135.446" r="2" class="dot" fill="#2CA02C"/><circle cy="115.275" cx="138.267" r="2" class="dot" fill="#2CA02C"/><circle cy="118.873" cx="141.089" r="2" class="dot" fill="#2CA02C"/><circle cy="99.716" cx="143.911" r="2" class="dot" fill="#2CA02C"/><circle cy="28.054" cx="146.733" r="2" class="dot" fill="#2CA02C"/><circle cy="97.861" cx="149.554" r="2" class="dot" fill="#2CA02C"/><circle cy="98.179" cx="152.376" r="2" class="dot" fill="#2CA02C"/><circle cy="46.053" cx="155.198" r="2" class="dot" fill="#2CA02C"/><circle cy="91.202" cx="158.02" r="2" class="dot" fill="#2CA02C"/><circle cy="92" cx="160.842" r="2" class="dot" fill="#2CA02C"/><circle cy="23.129" cx="163.663" r="2" class="dot" fill="#2CA02C"/><circle cy="87.111" cx="166.485" r="2" class="dot" fill="#2CA02C"/><circle cy="81.046" cx="169.307" r="2" class="dot" fill="#2CA02C"/><circle cy="20.385" cx="172.129" r="2" class="dot" fill="#2CA02C"/><circle cy="82.883" cx="174.95" r="2" class="dot" fill="#2CA02C"/><circle cy="74.275" cx="177.772" r="2" class="dot" fill="#2CA02C"/><circle cy="69.749" cx="180.594" r="2" class="dot" fill="#2CA02C"/><circle cy="74.061" cx="183.416" r="2" class="dot" fill="#2CA02C"/><circle cy="28.198" cx="186.238" r="2" class="dot" fill="#2CA02C"/><circle cy="76.344" cx="189.059" r="2" class="dot" fill="#2CA02C"/><circle cy="75.302" cx="191.881" r="2" class="dot" fill="#2CA02C"/><circle cy="68.002" cx="194.703" r="2" class="dot" fill="#2CA02C"/><circle cy="73.887" cx="197.525" r="2" class="dot" fill="#2CA02C"/><circle cy="17.034" cx="200.347" r="2" class="dot" fill="#2CA02C"/><circle cy="70.004" cx="203.168" r="2" class="dot" fill="#2CA02C"/><circle cy="74.695" cx="205.99" r="2" class="dot" fill="#2CA02C"/><circle cy="64.673" cx="208.812" r="2" class="dot" fill="#2CA02C"/><circle cy="65.143" cx="211.634" r="2" class="dot" fill="#2CA02C"/><circle cy="15.886" cx="214.455" r="2" class="dot" fill="#2CA02C"/><circle cy="64.488" cx="217.277" r="2" class="dot" fill="#2CA02C"/><circle cy="67.335" cx="220.099" r="2" class="dot" fill="#2CA02C"/><circle cy="53.548" cx="222.921" r="2" class="dot" fill="#2CA02C"/><circle cy="69.219" cx="225.743" r="2" class="dot" fill="#2CA02C"/><circle cy="46.918" cx="228.564" r="2" class="dot" fill="#2CA02C"/><circle cy="59.583" cx="231.386" r="2" class="dot" fill="#2CA02C"/><circle cy="47.29" cx="234.208" r="2" class="dot" fill="#2CA02C"/><circle cy="59.181" cx="237.03" r="2" class="dot" fill="#2CA02C"/><circle cy="55.628" cx="239.851" r="2" class="dot" fill="#2CA02C"/><circle cy="52.853" cx="242.673" r="2" class="dot" fill="#2CA02C"/><circle cy="42.479" cx="245.495" r="2" class="dot" fill="#2CA02C"/><circle cy="49.092" cx="248.317" r="2" class="dot" fill="#2CA02C"/><circle cy="49.291" cx="251.139" r="2" class="dot" fill="#2CA02C"/><circle cy="52.79" cx="253.96" r="2" class="dot" fill="#2CA02C"/><circle cy="43.763" cx="256.782" r="2" class="dot" fill="#2CA02C"/><circle cy="45.039" cx="259.604" r="2" class="dot" fill="#2CA02C"/><circle cy="39.565" cx="262.426" r="2" class="dot" fill="#2CA02C"/><circle cy="45.89" cx="265.248" r="2" class="dot" fill="#2CA02C"/><circle cy="39.285" cx="268.069" r="2" class="dot" fill="#2CA02C"/><circle cy="34.156" cx="270.891" r="2" class="dot" fill="#2CA02C"/><circle cy="36.742" cx="273.713" r="2" class="dot" fill="#2CA02C"/><circle cy="44.403" cx="276.535" r="2" class="dot" fill="#2CA02C"/><circle cy="35.377" cx="279.356" r="2" class="dot" fill="#2CA02C"/><circle cy="37.805" cx="282.178" r="2" class="dot" fill="#2CA02C"/><circle cy="18.082" cx="285" r="2" class="dot" fill="#2CA02C"/><path class="regression" stroke-width="2" stroke="#1F77B4" d="M0 198.262l285-20.277"/><path class="regression" stroke-width="2" stroke="#FF7F0E" d="M0 192.28L285 21.372"/><path class="regression" stroke-width="2" stroke="#2CA02C" d="M0 192.002L285 15.69"/><g class="legend"><path fill="#1F77B4" d="M267 0h18v18h-18z"/><text dy=".35em" y="9" x="261" text-anchor="end">postMessage</text></g><g class="legend"><path fill="#FF7F0E" d="M267 20h18v18h-18z"/><text dy=".35em" y="9" x="261" text-anchor="end" transform="translate(0 20)">BC channel</text></g><g class="legend"><path fill="#2CA02C" d="M267 40h18v18h-18z"/><text dy=".35em" y="9" x="261" text-anchor="end" transform="translate(0 40)">threads</text></g></g></svg>