<svg xmlns="http://www.w3.org/2000/svg" height="240" width="320"><g transform="translate(30 5)" font-size="12" font-family="Arial"><g class="x axis"><text y="-6" x="285" text-anchor="end" transform="translate(0 205)">Message size (kB)</text><g class="tick"><path d="M0 205v6"/><text y="9" dy=".71em" text-anchor="middle" transform="translate(0 205)">0</text></g><g class="tick"><path d="M27.832 205v6"/><text y="9" dy=".71em" text-anchor="middle" transform="translate(27.832 205)">195</text></g><g class="tick"><path d="M55.664 205v6"/><text y="9" dy=".71em" text-anchor="middle" transform="translate(55.664 205)">391</text></g><g class="tick"><path d="M83.496 205v6"/><text y="9" dy=".71em" text-anchor="middle" transform="translate(83.496 205)">586</text></g><g class="tick"><path d="M111.328 205v6"/><text y="9" dy=".71em" text-anchor="middle" transform="translate(111.328 205)">781</text></g><g class="tick"><path d="M139.16 205v6"/><text y="9" dy=".71em" text-anchor="middle" transform="translate(139.16 205)">977</text></g><g class="tick"><path d="M166.992 205v6"/><text y="9" dy=".71em" text-anchor="middle" transform="translate(166.992 205)">1172</text></g><g class="tick"><path d="M194.824 205v6"/><text y="9" dy=".71em" text-anchor="middle" transform="translate(194.824 205)">1367</text></g><g class="tick"><path d="M222.656 205v6"/><text y="9" dy=".71em" text-anchor="middle" transform="translate(222.656 205)">1563</text></g><g class="tick"><path d="M250.488 205v6"/><text y="9" dy=".71em" text-anchor="middle" transform="translate(250.488 205)">1758</text></g><g class="tick"><path d="M278.32 205v6"/><text y="9" dy=".71em" text-anchor="middle" transform="translate(278.32 205)">1953</text></g><path d="M0 211v-6h285v6" class="domain"/></g><g class="y axis"><text dy=".71em" y="6" transform="rotate(-90)" text-anchor="end">Latency (ms)</text><g class="tick"><path d="M0 205h-6"/><text x="-9" dy=".32em" text-anchor="end" transform="translate(0 205)">0</text></g><g class="tick"><path d="M0 177.552h-6"/><text x="-9" dy=".32em" text-anchor="end" transform="translate(0 177.552)">50</text></g><g class="tick"><path d="M0 150.104h-6"/><text x="-9" dy=".32em" text-anchor="end" transform="translate(0 150.104)">100</text></g><g class="tick"><path d="M0 122.655h-6"/><text x="-9" dy=".32em" text-anchor="end" transform="translate(0 122.655)">150</text></g><g class="tick"><path d="M0 95.207h-6"/><text x="-9" dy=".32em" text-anchor="end" transform="translate(0 95.207)">200</text></g><g class="tick"><path d="M0 67.76h-6"/><text x="-9" dy=".32em" text-anchor="end" transform="translate(0 67.759)">250</text></g><g class="tick"><path d="M0 40.31h-6"/><text x="-9" dy=".32em" text-anchor="end" transform="translate(0 40.311)">300</text></g><g class="tick"><path d="M0 12.862h-6"/><text x="-9" dy=".32em" text-anchor="end" transform="translate(0 12.862)">350</text></g><path d="M-6 0h6v205h-6" class="domain"/></g><circle cy="198.997" cx="2.85" r="2" class="dot" fill="#1F77B4"/><circle cy="203.222" cx="5.7" r="2" class="dot" fill="#1F77B4"/><circle cy="202.882" cx="8.55" r="2" class="dot" fill="#1F77B4"/><circle cy="202.814" cx="11.4" r="2" class="dot" fill="#1F77B4"/><circle cy="200.874" cx="14.25" r="2" class="dot" fill="#1F77B4"/><circle cy="201.818" cx="17.1" r="2" class="dot" fill="#1F77B4"/><circle cy="199.172" cx="19.95" r="2" class="dot" fill="#1F77B4"/><circle cy="200.719" cx="22.8" r="2" class="dot" fill="#1F77B4"/><circle cy="200.847" cx="25.65" r="2" class="dot" fill="#1F77B4"/><circle cy="202.427" cx="28.5" r="2" class="dot" fill="#1F77B4"/><circle cy="202.015" cx="31.35" r="2" class="dot" fill="#1F77B4"/><circle cy="201.574" cx="34.2" r="2" class="dot" fill="#1F77B4"/><circle cy="200.235" cx="37.05" r="2" class="dot" fill="#1F77B4"/><circle cy="199.188" cx="39.9" r="2" class="dot" fill="#1F77B4"/><circle cy="199.548" cx="42.75" r="2" class="dot" fill="#1F77B4"/><circle cy="200.253" cx="45.6" r="2" class="dot" fill="#1F77B4"/><circle cy="168.047" cx="48.45" r="2" class="dot" fill="#1F77B4"/><circle cy="201.222" cx="51.3" r="2" class="dot" fill="#1F77B4"/><circle cy="200.666" cx="54.15" r="2" class="dot" fill="#1F77B4"/><circle cy="199.896" cx="57" r="2" class="dot" fill="#1F77B4"/><circle cy="197.338" cx="59.85" r="2" class="dot" fill="#1F77B4"/><circle cy="199.681" cx="62.7" r="2" class="dot" fill="#1F77B4"/><circle cy="198.602" cx="65.55" r="2" class="dot" fill="#1F77B4"/><circle cy="197.66" cx="68.4" r="2" class="dot" fill="#1F77B4"/><circle cy="195.363" cx="71.25" r="2" class="dot" fill="#1F77B4"/><circle cy="198.833" cx="74.1" r="2" class="dot" fill="#1F77B4"/><circle cy="197.458" cx="76.95" r="2" class="dot" fill="#1F77B4"/><circle cy="196.388" cx="79.8" r="2" class="dot" fill="#1F77B4"/><circle cy="198.383" cx="82.65" r="2" class="dot" fill="#1F77B4"/><circle cy="198.064" cx="85.5" r="2" class="dot" fill="#1F77B4"/><circle cy="196.729" cx="88.35" r="2" class="dot" fill="#1F77B4"/><circle cy="192.933" cx="91.2" r="2" class="dot" fill="#1F77B4"/><circle cy="195.615" cx="94.05" r="2" class="dot" fill="#1F77B4"/><circle cy="197.378" cx="96.9" r="2" class="dot" fill="#1F77B4"/><circle cy="195.893" cx="99.75" r="2" class="dot" fill="#1F77B4"/><circle cy="185.585" cx="102.6" r="2" class="dot" fill="#1F77B4"/><circle cy="197.69" cx="105.45" r="2" class="dot" fill="#1F77B4"/><circle cy="196.804" cx="108.3" r="2" class="dot" fill="#1F77B4"/><circle cy="195.206" cx="111.15" r="2" class="dot" fill="#1F77B4"/><circle cy="166.03" cx="114" r="2" class="dot" fill="#1F77B4"/><circle cy="192.391" cx="116.85" r="2" class="dot" fill="#1F77B4"/><circle cy="196.084" cx="119.7" r="2" class="dot" fill="#1F77B4"/><circle cy="194.941" cx="122.55" r="2" class="dot" fill="#1F77B4"/><circle cy="154.348" cx="125.4" r="2" class="dot" fill="#1F77B4"/><circle cy="193.269" cx="128.25" r="2" class="dot" fill="#1F77B4"/><circle cy="195.917" cx="131.1" r="2" class="dot" fill="#1F77B4"/><circle cy="193.682" cx="133.95" r="2" class="dot" fill="#1F77B4"/><circle cy="194.545" cx="136.8" r="2" class="dot" fill="#1F77B4"/><circle cy="194.984" cx="139.65" r="2" class="dot" fill="#1F77B4"/><circle cy="194.909" cx="142.5" r="2" class="dot" fill="#1F77B4"/><circle cy="154.635" cx="145.35" r="2" class="dot" fill="#1F77B4"/><circle cy="192.904" cx="148.2" r="2" class="dot" fill="#1F77B4"/><circle cy="194.497" cx="151.05" r="2" class="dot" fill="#1F77B4"/><circle cy="166.316" cx="153.9" r="2" class="dot" fill="#1F77B4"/><circle cy="193.63" cx="156.75" r="2" class="dot" fill="#1F77B4"/><circle cy="192.821" cx="159.6" r="2" class="dot" fill="#1F77B4"/><circle cy="154.133" cx="162.45" r="2" class="dot" fill="#1F77B4"/><circle cy="191.212" cx="165.3" r="2" class="dot" fill="#1F77B4"/><circle cy="191.849" cx="168.15" r="2" class="dot" fill="#1F77B4"/><circle cy="167.982" cx="171" r="2" class="dot" fill="#1F77B4"/><circle cy="190.31" cx="173.85" r="2" class="dot" fill="#1F77B4"/><circle cy="190.496" cx="176.7" r="2" class="dot" fill="#1F77B4"/><circle cy="183.694" cx="179.55" r="2" class="dot" fill="#1F77B4"/><circle cy="191.519" cx="182.4" r="2" class="dot" fill="#1F77B4"/><circle cy="166.818" cx="185.25" r="2" class="dot" fill="#1F77B4"/><circle cy="191.214" cx="188.1" r="2" class="dot" fill="#1F77B4"/><circle cy="191.2" cx="190.95" r="2" class="dot" fill="#1F77B4"/><circle cy="185.009" cx="193.8" r="2" class="dot" fill="#1F77B4"/><circle cy="191.008" cx="196.65" r="2" class="dot" fill="#1F77B4"/><circle cy="164.544" cx="199.5" r="2" class="dot" fill="#1F77B4"/><circle cy="189.212" cx="202.35" r="2" class="dot" fill="#1F77B4"/><circle cy="190.667" cx="205.2" r="2" class="dot" fill="#1F77B4"/><circle cy="182.842" cx="208.05" r="2" class="dot" fill="#1F77B4"/><circle cy="187.731" cx="210.9" r="2" class="dot" fill="#1F77B4"/><circle cy="163.132" cx="213.75" r="2" class="dot" fill="#1F77B4"/><circle cy="188.402" cx="216.6" r="2" class="dot" fill="#1F77B4"/><circle cy="188.418" cx="219.45" r="2" class="dot" fill="#1F77B4"/><circle cy="184.829" cx="222.3" r="2" class="dot" fill="#1F77B4"/><circle cy="188.491" cx="225.15" r="2" class="dot" fill="#1F77B4"/><circle cy="187.242" cx="228" r="2" class="dot" fill="#1F77B4"/><circle cy="189.436" cx="230.85" r="2" class="dot" fill="#1F77B4"/><circle cy="182.718" cx="233.7" r="2" class="dot" fill="#1F77B4"/><circle cy="185.281" cx="236.55" r="2" class="dot" fill="#1F77B4"/><circle cy="186.335" cx="239.4" r="2" class="dot" fill="#1F77B4"/><circle cy="186.83" cx="242.25" r="2" class="dot" fill="#1F77B4"/><circle cy="182.413" cx="245.1" r="2" class="dot" fill="#1F77B4"/><circle cy="187.378" cx="247.95" r="2" class="dot" fill="#1F77B4"/><circle cy="186.134" cx="250.8" r="2" class="dot" fill="#1F77B4"/><circle cy="185.887" cx="253.65" r="2" class="dot" fill="#1F77B4"/><circle cy="179.027" cx="256.5" r="2" class="dot" fill="#1F77B4"/><circle cy="186.043" cx="259.35" r="2" class="dot" fill="#1F77B4"/><circle cy="182.698" cx="262.2" r="2" class="dot" fill="#1F77B4"/><circle cy="185.235" cx="265.05" r="2" class="dot" fill="#1F77B4"/><circle cy="181.541" cx="267.9" r="2" class="dot" fill="#1F77B4"/><circle cy="185.234" cx="270.75" r="2" class="dot" fill="#1F77B4"/><circle cy="185.089" cx="273.6" r="2" class="dot" fill="#1F77B4"/><circle cy="185.713" cx="276.45" r="2" class="dot" fill="#1F77B4"/><circle cy="181.627" cx="279.3" r="2" class="dot" fill="#1F77B4"/><circle cy="185.237" cx="282.15" r="2" class="dot" fill="#1F77B4"/><circle cy="182.072" cx="285" r="2" class="dot" fill="#1F77B4"/><circle cy="200.365" cx="2.85" r="2" class="dot" fill="#FF7F0E"/><circle cy="198.818" cx="5.7" r="2" class="dot" fill="#FF7F0E"/><circle cy="199.264" cx="8.55" r="2" class="dot" fill="#FF7F0E"/><circle cy="195.653" cx="11.4" r="2" class="dot" fill="#FF7F0E"/><circle cy="190.747" cx="14.25" r="2" class="dot" fill="#FF7F0E"/><circle cy="196.519" cx="17.1" r="2" class="dot" fill="#FF7F0E"/><circle cy="189.316" cx="19.95" r="2" class="dot" fill="#FF7F0E"/><circle cy="184.963" cx="22.8" r="2" class="dot" fill="#FF7F0E"/><circle cy="179.901" cx="25.65" r="2" class="dot" fill="#FF7F0E"/><circle cy="180.872" cx="28.5" r="2" class="dot" fill="#FF7F0E"/><circle cy="185.262" cx="31.35" r="2" class="dot" fill="#FF7F0E"/><circle cy="183.115" cx="34.2" r="2" class="dot" fill="#FF7F0E"/><circle cy="175.202" cx="37.05" r="2" class="dot" fill="#FF7F0E"/><circle cy="148.729" cx="39.9" r="2" class="dot" fill="#FF7F0E"/><circle cy="151.74" cx="42.75" r="2" class="dot" fill="#FF7F0E"/><circle cy="162.288" cx="45.6" r="2" class="dot" fill="#FF7F0E"/><circle cy="162.763" cx="48.45" r="2" class="dot" fill="#FF7F0E"/><circle cy="158.993" cx="51.3" r="2" class="dot" fill="#FF7F0E"/><circle cy="165.064" cx="54.15" r="2" class="dot" fill="#FF7F0E"/><circle cy="156.658" cx="57" r="2" class="dot" fill="#FF7F0E"/><circle cy="162.264" cx="59.85" r="2" class="dot" fill="#FF7F0E"/><circle cy="159.726" cx="62.7" r="2" class="dot" fill="#FF7F0E"/><circle cy="158.541" cx="65.55" r="2" class="dot" fill="#FF7F0E"/><circle cy="153.842" cx="68.4" r="2" class="dot" fill="#FF7F0E"/><circle cy="118.198" cx="71.25" r="2" class="dot" fill="#FF7F0E"/><circle cy="131.849" cx="74.1" r="2" class="dot" fill="#FF7F0E"/><circle cy="133.815" cx="76.95" r="2" class="dot" fill="#FF7F0E"/><circle cy="140.409" cx="79.8" r="2" class="dot" fill="#FF7F0E"/><circle cy="126.8" cx="82.65" r="2" class="dot" fill="#FF7F0E"/><circle cy="137.667" cx="85.5" r="2" class="dot" fill="#FF7F0E"/><circle cy="140.045" cx="88.35" r="2" class="dot" fill="#FF7F0E"/><circle cy="139.389" cx="91.2" r="2" class="dot" fill="#FF7F0E"/><circle cy="131.321" cx="94.05" r="2" class="dot" fill="#FF7F0E"/><circle cy="132.401" cx="96.9" r="2" class="dot" fill="#FF7F0E"/><circle cy="133.335" cx="99.75" r="2" class="dot" fill="#FF7F0E"/><circle cy="125.467" cx="102.6" r="2" class="dot" fill="#FF7F0E"/><circle cy="123.129" cx="105.45" r="2" class="dot" fill="#FF7F0E"/><circle cy="123.569" cx="108.3" r="2" class="dot" fill="#FF7F0E"/><circle cy="114.148" cx="111.15" r="2" class="dot" fill="#FF7F0E"/><circle cy="89.992" cx="114" r="2" class="dot" fill="#FF7F0E"/><circle cy="118.936" cx="116.85" r="2" class="dot" fill="#FF7F0E"/><circle cy="116.381" cx="119.7" r="2" class="dot" fill="#FF7F0E"/><circle cy="117.082" cx="122.55" r="2" class="dot" fill="#FF7F0E"/><circle cy="79.687" cx="125.4" r="2" class="dot" fill="#FF7F0E"/><circle cy="117.672" cx="128.25" r="2" class="dot" fill="#FF7F0E"/><circle cy="110.853" cx="131.1" r="2" class="dot" fill="#FF7F0E"/><circle cy="103.705" cx="133.95" r="2" class="dot" fill="#FF7F0E"/><circle cy="99.026" cx="136.8" r="2" class="dot" fill="#FF7F0E"/><circle cy="99.905" cx="139.65" r="2" class="dot" fill="#FF7F0E"/><circle cy="99.961" cx="142.5" r="2" class="dot" fill="#FF7F0E"/><circle cy="61.059" cx="145.35" r="2" class="dot" fill="#FF7F0E"/><circle cy="82.918" cx="148.2" r="2" class="dot" fill="#FF7F0E"/><circle cy="76.504" cx="151.05" r="2" class="dot" fill="#FF7F0E"/><circle cy="39.775" cx="153.9" r="2" class="dot" fill="#FF7F0E"/><circle cy="79.757" cx="156.75" r="2" class="dot" fill="#FF7F0E"/><circle cy="79.274" cx="159.6" r="2" class="dot" fill="#FF7F0E"/><circle cy="51.716" cx="162.45" r="2" class="dot" fill="#FF7F0E"/><circle cy="81.341" cx="165.3" r="2" class="dot" fill="#FF7F0E"/><circle cy="84.352" cx="168.15" r="2" class="dot" fill="#FF7F0E"/><circle cy="46.018" cx="171" r="2" class="dot" fill="#FF7F0E"/><circle cy="72.298" cx="173.85" r="2" class="dot" fill="#FF7F0E"/><circle cy="79.953" cx="176.7" r="2" class="dot" fill="#FF7F0E"/><circle cy="71.071" cx="179.55" r="2" class="dot" fill="#FF7F0E"/><circle cy="78.395" cx="182.4" r="2" class="dot" fill="#FF7F0E"/><circle cy="36.9" cx="185.25" r="2" class="dot" fill="#FF7F0E"/><circle cy="70.299" cx="188.1" r="2" class="dot" fill="#FF7F0E"/><circle cy="74.017" cx="190.95" r="2" class="dot" fill="#FF7F0E"/><circle cy="57.664" cx="193.8" r="2" class="dot" fill="#FF7F0E"/><circle cy="66.165" cx="196.65" r="2" class="dot" fill="#FF7F0E"/><circle cy="34.271" cx="199.5" r="2" class="dot" fill="#FF7F0E"/><circle cy="56.08" cx="202.35" r="2" class="dot" fill="#FF7F0E"/><circle cy="64.155" cx="205.2" r="2" class="dot" fill="#FF7F0E"/><circle cy="60.649" cx="208.05" r="2" class="dot" fill="#FF7F0E"/><circle cy="64.072" cx="210.9" r="2" class="dot" fill="#FF7F0E"/><circle cy="34.659" cx="213.75" r="2" class="dot" fill="#FF7F0E"/><circle cy="44.596" cx="216.6" r="2" class="dot" fill="#FF7F0E"/><circle cy="55.337" cx="219.45" r="2" class="dot" fill="#FF7F0E"/><circle cy="48.408" cx="222.3" r="2" class="dot" fill="#FF7F0E"/><circle cy="49.354" cx="225.15" r="2" class="dot" fill="#FF7F0E"/><circle cy="44.622" cx="228" r="2" class="dot" fill="#FF7F0E"/><circle cy="50.764" cx="230.85" r="2" class="dot" fill="#FF7F0E"/><circle cy="52.193" cx="233.7" r="2" class="dot" fill="#FF7F0E"/><circle cy="39.019" cx="236.55" r="2" class="dot" fill="#FF7F0E"/><circle cy="48.209" cx="239.4" r="2" class="dot" fill="#FF7F0E"/><circle cy="40.157" cx="242.25" r="2" class="dot" fill="#FF7F0E"/><circle cy="45.957" cx="245.1" r="2" class="dot" fill="#FF7F0E"/><circle cy="24.383" cx="247.95" r="2" class="dot" fill="#FF7F0E"/><circle cy="39.931" cx="250.8" r="2" class="dot" fill="#FF7F0E"/><circle cy="24.231" cx="253.65" r="2" class="dot" fill="#FF7F0E"/><circle cy="31.987" cx="256.5" r="2" class="dot" fill="#FF7F0E"/><circle cy="24.835" cx="259.35" r="2" class="dot" fill="#FF7F0E"/><circle cy="27.05" cx="262.2" r="2" class="dot" fill="#FF7F0E"/><circle cy="35.097" cx="265.05" r="2" class="dot" fill="#FF7F0E"/><circle cy="33.106" cx="267.9" r="2" class="dot" fill="#FF7F0E"/><circle cy="27.226" cx="270.75" r="2" class="dot" fill="#FF7F0E"/><circle cy="20.166" cx="273.6" r="2" class="dot" fill="#FF7F0E"/><circle cy="32.943" cx="276.45" r="2" class="dot" fill="#FF7F0E"/><circle cy="25.727" cx="279.3" r="2" class="dot" fill="#FF7F0E"/><circle cy="10.361" cx="282.15" r="2" class="dot" fill="#FF7F0E"/><circle cx="285" r="2" class="dot" fill="#FF7F0E"/><circle cy="197.959" cx="2.85" r="2" class="dot" fill="#2CA02C"/><circle cy="197.978" cx="5.7" r="2" class="dot" fill="#2CA02C"/><circle cy="198.702" cx="8.55" r="2" class="dot" fill="#2CA02C"/><circle cy="195.795" cx="11.4" r="2" class="dot" fill="#2CA02C"/><circle cy="193.674" cx="14.25" r="2" class="dot" fill="#2CA02C"/><circle cy="194.789" cx="17.1" r="2" class="dot" fill="#2CA02C"/><circle cy="191.148" cx="19.95" r="2" class="dot" fill="#2CA02C"/><circle cy="189.561" cx="22.8" r="2" class="dot" fill="#2CA02C"/><circle cy="186.431" cx="25.65" r="2" class="dot" fill="#2CA02C"/><circle cy="175.833" cx="28.5" r="2" class="dot" fill="#2CA02C"/><circle cy="180.325" cx="31.35" r="2" class="dot" fill="#2CA02C"/><circle cy="180.849" cx="34.2" r="2" class="dot" fill="#2CA02C"/><circle cy="170.332" cx="37.05" r="2" class="dot" fill="#2CA02C"/><circle cy="143.067" cx="39.9" r="2" class="dot" fill="#2CA02C"/><circle cy="154.845" cx="42.75" r="2" class="dot" fill="#2CA02C"/><circle cy="167.65" cx="45.6" r="2" class="dot" fill="#2CA02C"/><circle cy="162.353" cx="48.45" r="2" class="dot" fill="#2CA02C"/><circle cy="165.833" cx="51.3" r="2" class="dot" fill="#2CA02C"/><circle cy="160.808" cx="54.15" r="2" class="dot" fill="#2CA02C"/><circle cy="161.358" cx="57" r="2" class="dot" fill="#2CA02C"/><circle cy="163.936" cx="59.85" r="2" class="dot" fill="#2CA02C"/><circle cy="160.262" cx="62.7" r="2" class="dot" fill="#2CA02C"/><circle cy="158.504" cx="65.55" r="2" class="dot" fill="#2CA02C"/><circle cy="153.61" cx="68.4" r="2" class="dot" fill="#2CA02C"/><circle cy="146.24" cx="71.25" r="2" class="dot" fill="#2CA02C"/><circle cy="144.631" cx="74.1" r="2" class="dot" fill="#2CA02C"/><circle cy="141.698" cx="76.95" r="2" class="dot" fill="#2CA02C"/><circle cy="144.079" cx="79.8" r="2" class="dot" fill="#2CA02C"/><circle cy="142.334" cx="82.65" r="2" class="dot" fill="#2CA02C"/><circle cy="135.874" cx="85.5" r="2" class="dot" fill="#2CA02C"/><circle cy="138.398" cx="88.35" r="2" class="dot" fill="#2CA02C"/><circle cy="138.723" cx="91.2" r="2" class="dot" fill="#2CA02C"/><circle cy="136.585" cx="94.05" r="2" class="dot" fill="#2CA02C"/><circle cy="134.128" cx="96.9" r="2" class="dot" fill="#2CA02C"/><circle cy="123.692" cx="99.75" r="2" class="dot" fill="#2CA02C"/><circle cy="110.355" cx="102.6" r="2" class="dot" fill="#2CA02C"/><circle cy="129.764" cx="105.45" r="2" class="dot" fill="#2CA02C"/><circle cy="94.511" cx="108.3" r="2" class="dot" fill="#2CA02C"/><circle cy="118.367" cx="111.15" r="2" class="dot" fill="#2CA02C"/><circle cy="127.253" cx="114" r="2" class="dot" fill="#2CA02C"/><circle cy="119.826" cx="116.85" r="2" class="dot" fill="#2CA02C"/><circle cy="89.106" cx="119.7" r="2" class="dot" fill="#2CA02C"/><circle cy="116.369" cx="122.55" r="2" class="dot" fill="#2CA02C"/><circle cy="107.511" cx="125.4" r="2" class="dot" fill="#2CA02C"/><circle cy="108.39" cx="128.25" r="2" class="dot" fill="#2CA02C"/><circle cy="103.199" cx="131.1" r="2" class="dot" fill="#2CA02C"/><circle cy="112.061" cx="133.95" r="2" class="dot" fill="#2CA02C"/><circle cy="117.804" cx="136.8" r="2" class="dot" fill="#2CA02C"/><circle cy="82.805" cx="139.65" r="2" class="dot" fill="#2CA02C"/><circle cy="105.008" cx="142.5" r="2" class="dot" fill="#2CA02C"/><circle cy="100.254" cx="145.35" r="2" class="dot" fill="#2CA02C"/><circle cy="93.917" cx="148.2" r="2" class="dot" fill="#2CA02C"/><circle cy="93.725" cx="151.05" r="2" class="dot" fill="#2CA02C"/><circle cy="90.509" cx="153.9" r="2" class="dot" fill="#2CA02C"/><circle cy="92.811" cx="156.75" r="2" class="dot" fill="#2CA02C"/><circle cy="73.655" cx="159.6" r="2" class="dot" fill="#2CA02C"/><circle cy="69.679" cx="162.45" r="2" class="dot" fill="#2CA02C"/><circle cy="83.764" cx="165.3" r="2" class="dot" fill="#2CA02C"/><circle cy="72.847" cx="168.15" r="2" class="dot" fill="#2CA02C"/><circle cy="82.967" cx="171" r="2" class="dot" fill="#2CA02C"/><circle cy="84.936" cx="173.85" r="2" class="dot" fill="#2CA02C"/><circle cy="79.49" cx="176.7" r="2" class="dot" fill="#2CA02C"/><circle cy="64.908" cx="179.55" r="2" class="dot" fill="#2CA02C"/><circle cy="49.479" cx="182.4" r="2" class="dot" fill="#2CA02C"/><circle cy="77.468" cx="185.25" r="2" class="dot" fill="#2CA02C"/><circle cy="74.952" cx="188.1" r="2" class="dot" fill="#2CA02C"/><circle cy="70.564" cx="190.95" r="2" class="dot" fill="#2CA02C"/><circle cy="68.63" cx="193.8" r="2" class="dot" fill="#2CA02C"/><circle cy="35.332" cx="196.65" r="2" class="dot" fill="#2CA02C"/><circle cy="52.479" cx="199.5" r="2" class="dot" fill="#2CA02C"/><circle cy="69.184" cx="202.35" r="2" class="dot" fill="#2CA02C"/><circle cy="64.053" cx="205.2" r="2" class="dot" fill="#2CA02C"/><circle cy="56.314" cx="208.05" r="2" class="dot" fill="#2CA02C"/><circle cy="40.68" cx="210.9" r="2" class="dot" fill="#2CA02C"/><circle cy="57.79" cx="213.75" r="2" class="dot" fill="#2CA02C"/><circle cy="63.817" cx="216.6" r="2" class="dot" fill="#2CA02C"/><circle cy="58.407" cx="219.45" r="2" class="dot" fill="#2CA02C"/><circle cy="44.522" cx="222.3" r="2" class="dot" fill="#2CA02C"/><circle cy="54.62" cx="225.15" r="2" class="dot" fill="#2CA02C"/><circle cy="58.03" cx="228" r="2" class="dot" fill="#2CA02C"/><circle cy="58.399" cx="230.85" r="2" class="dot" fill="#2CA02C"/><circle cy="50.109" cx="233.7" r="2" class="dot" fill="#2CA02C"/><circle cy="48.947" cx="236.55" r="2" class="dot" fill="#2CA02C"/><circle cy="54.154" cx="239.4" r="2" class="dot" fill="#2CA02C"/><circle cy="42.381" cx="242.25" r="2" class="dot" fill="#2CA02C"/><circle cy="41.926" cx="245.1" r="2" class="dot" fill="#2CA02C"/><circle cy="28.375" cx="247.95" r="2" class="dot" fill="#2CA02C"/><circle cy="49.857" cx="250.8" r="2" class="dot" fill="#2CA02C"/><circle cy="37.726" cx="253.65" r="2" class="dot" fill="#2CA02C"/><circle cy="39.856" cx="256.5" r="2" class="dot" fill="#2CA02C"/><circle cy="42.931" cx="259.35" r="2" class="dot" fill="#2CA02C"/><circle cy="37.693" cx="262.2" r="2" class="dot" fill="#2CA02C"/><circle cy="28.018" cx="265.05" r="2" class="dot" fill="#2CA02C"/><circle cy="21.4" cx="267.9" r="2" class="dot" fill="#2CA02C"/><circle cy="36.738" cx="270.75" r="2" class="dot" fill="#2CA02C"/><circle cy="30.076" cx="273.6" r="2" class="dot" fill="#2CA02C"/><circle cy="34.314" cx="276.45" r="2" class="dot" fill="#2CA02C"/><circle cy="22.672" cx="279.3" r="2" class="dot" fill="#2CA02C"/><circle cy="32.519" cx="282.15" r="2" class="dot" fill="#2CA02C"/><circle cy="17.293" cx="285" r="2" class="dot" fill="#2CA02C"/><path class="regression" stroke-width="2" stroke="#1F77B4" d="M0 200.136l285-20.51"/><path class="regression" stroke-width="2" stroke="#FF7F0E" d="M0 191.838L285 5.71"/><path class="regression" stroke-width="2" stroke="#2CA02C" d="M0 192.656l285-179.33"/><g class="legend"><path fill="#1F77B4" d="M267 0h18v18h-18z"/><text dy=".35em" y="9" x="261" text-anchor="end">postMessage</text></g><g class="legend"><path fill="#FF7F0E" d="M267 20h18v18h-18z"/><text dy=".35em" y="9" x="261" text-anchor="end" transform="translate(0 20)">BC channel</text></g><g class="legend"><path fill="#2CA02C" d="M267 40h18v18h-18z"/><text dy=".35em" y="9" x="261" text-anchor="end" transform="translate(0 40)">threads</text></g></g></svg>